<svg width="18" height="28" viewBox="0 0 18 28" fill="none" xmlns="http://www.w3.org/2000/svg">
<path d="M9.01432 0.105255C8.35435 0.105255 7.86408 0.364624 7.54352 0.88336L0.47235 11.3044C0.283785 11.5638 0.180074 11.8509 0.161218 12.1659C0.142361 12.4808 0.208359 12.7865 0.359211 13.0829C0.528919 13.3608 0.755196 13.5831 1.03804 13.7499C1.32089 13.9166 1.62259 14 1.94315 14H16.0855C16.4061 14 16.7078 13.9166 16.9906 13.7499C17.2734 13.5831 17.4903 13.3608 17.6411 13.0829C17.792 12.805 17.858 12.4994 17.8391 12.1659C17.8203 11.8324 17.726 11.5453 17.5563 11.3044L10.4851 0.88336C10.1269 0.364624 9.63659 0.105255 9.01432 0.105255ZM9.01432 14C8.35435 14 7.86408 14.2594 7.54352 14.7781L0.47235 25.1991C0.283785 25.4585 0.180074 25.7457 0.161218 26.0606C0.142361 26.3756 0.208359 26.6813 0.359211 26.9777C0.528919 27.2556 0.755196 27.4779 1.03804 27.6446C1.32089 27.8114 1.62259 27.8947 1.94315 27.8947H16.0855C16.4061 27.8947 16.7078 27.8114 16.9906 27.6446C17.2734 27.4779 17.4903 27.2556 17.6411 26.9777C17.792 26.6998 17.858 26.3941 17.8391 26.0606C17.8203 25.7271 17.726 25.44 17.5563 25.1991L10.4851 14.7781C10.1269 14.2594 9.63659 14 9.01432 14Z" fill="#E6E6E6"/>
</svg>
