<svg width="32" height="32" viewBox="0 0 32 32" fill="none" xmlns="http://www.w3.org/2000/svg">
<path d="M0 26.016C0 27.68 0.586667 29.088 1.76 30.24C2.93333 31.392 4.352 31.9787 6.016 32H26.016C27.6587 32 29.0667 31.4133 30.24 30.24C31.4133 29.0667 32 27.6587 32 26.016V6.016C32 4.352 31.4133 2.93333 30.24 1.76C29.0667 0.586667 27.6587 0 26.016 0H6.016C4.352 0 2.93333 0.586667 1.76 1.76C0.586667 2.93333 0 4.352 0 6.016L0 26.016ZM4 26.016V8H28V26.016C28 26.5707 27.808 27.04 27.424 27.424C27.04 27.808 26.5707 28 26.016 28H6.016C5.46133 28 4.98133 27.808 4.576 27.424C4.17067 27.04 3.97867 26.5707 4 26.016ZM4 4C4 3.44533 4.192 2.976 4.576 2.592C4.96 2.208 5.44 2.016 6.016 2.016C6.592 2.016 7.06133 2.208 7.424 2.592C7.78667 2.976 7.97867 3.44533 8 4C8.02133 4.55467 7.82933 5.03467 7.424 5.44C7.01867 5.84533 6.54933 6.03733 6.016 6.016C5.48267 5.99467 5.00267 5.80267 4.576 5.44C4.14933 5.07733 3.95733 4.59733 4 4ZM12 18.016H14.016V16H12V18.016ZM12 14.016H14.016V12H12V14.016ZM14.016 16H16V14.016H14.016V16ZM16 20H20V18.016H16V20Z" fill="#8257E5"/>
</svg>
