<svg width="34" height="35" viewBox="0 0 34 35" fill="none" xmlns="http://www.w3.org/2000/svg">
<path d="M0 17.0031C0 19.3151 0.453333 21.5138 1.36 23.5991C2.26667 25.6844 3.468 27.4978 4.964 29.0391C6.46 30.5804 8.27333 31.7931 10.404 32.6771C12.5347 33.5611 14.7333 34.0031 17 34.0031C19.2667 34.0031 21.4653 33.5611 23.596 32.6771C25.7267 31.7931 27.54 30.5804 29.036 29.0391C30.532 27.4978 31.7333 25.6844 32.64 23.5991C33.5467 21.5138 34 19.3151 34 17.0031C34 14.6911 33.5467 12.4924 32.64 10.4071C31.7333 8.32176 30.532 6.50842 29.036 4.96709C27.54 3.42576 25.738 2.22442 23.63 1.36309C21.522 0.501758 19.312 0.0484242 17 0.00309091C14.688 -0.0422424 12.478 0.411091 10.37 1.36309C8.262 2.31509 6.46 3.51642 4.964 4.96709C3.468 6.41776 2.26667 8.23109 1.36 10.4071C0.453333 12.5831 0 14.7818 0 17.0031ZM4.25 17.0031C4.25 14.6911 4.81667 12.5604 5.95 10.6111C7.08333 8.66176 8.636 7.12042 10.608 5.98709C12.58 4.85376 14.7107 4.27576 17 4.25309C19.2893 4.23042 21.42 4.80842 23.392 5.98709C25.364 7.16576 26.9167 8.70709 28.05 10.6111C29.1833 12.5151 29.75 14.6458 29.75 17.0031C29.75 19.3604 29.1833 21.5024 28.05 23.4291C26.9167 25.3558 25.364 26.8971 23.392 28.0531C21.42 29.2091 19.2893 29.7758 17 29.7531C14.7107 29.7304 12.58 29.1638 10.608 28.0531C8.636 26.9424 7.08333 25.4011 5.95 23.4291C4.81667 21.4571 4.25 19.3151 4.25 17.0031ZM10.676 20.3351C10.3587 21.5138 10.4607 22.4091 10.982 23.0211C11.594 23.5424 12.5007 23.6558 13.702 23.3611C14.9033 23.0664 16.1047 22.5791 17.306 21.8991C18.5073 21.2191 19.4027 20.5958 19.992 20.0291C20.5813 19.4624 21.216 18.5558 21.896 17.3091C22.576 16.0624 23.052 14.8611 23.324 13.7051C23.596 12.5491 23.494 11.6538 23.018 11.0191C22.406 10.4978 21.4993 10.3844 20.298 10.6791C19.0967 10.9738 17.8953 11.4611 16.694 12.1411C15.4927 12.8211 14.5973 13.4444 14.008 14.0111C13.4187 14.5778 12.784 15.4844 12.104 16.7311C11.424 17.9778 10.948 19.1791 10.676 20.3351ZM15.504 15.5071C16.116 14.8951 17.1813 14.1471 18.7 13.2631C20.2187 12.3791 21.1593 12.1298 21.522 12.5151C21.8847 12.9004 21.624 13.8411 20.74 15.3371C19.856 16.8331 19.108 17.8871 18.496 18.4991L15.504 15.5071Z" fill="#8257E5"/>
</svg>
