<svg width="178" height="178" viewBox="0 0 178 178" fill="none" xmlns="http://www.w3.org/2000/svg">
<path d="M0 88.9956C0 77.0108 2.37333 65.5007 7.12 54.4653C11.8667 43.4298 18.156 33.937 25.988 25.9867C33.82 18.0364 43.3133 11.7474 54.468 7.11964C65.6227 2.49188 77.1333 0.118661 89 0C101.104 0 112.674 2.37321 123.71 7.11964C134.746 11.8661 144.18 18.1551 152.012 25.9867C159.844 33.8183 166.133 43.3112 170.88 54.4653C175.627 65.6194 178 77.1295 178 88.9956V122.458C178 131.713 174.737 139.545 168.21 145.953C161.683 152.36 153.851 155.624 144.714 155.742C136.289 155.742 128.991 153.013 122.82 147.555C116.649 142.096 112.971 135.273 111.784 127.086C104.545 131.357 96.9507 133.493 89 133.493C80.9307 133.493 73.514 131.535 66.75 127.62C59.986 123.704 54.5273 118.305 50.374 111.422C46.2207 104.54 44.2627 97.0645 44.5 88.9956C44.5 76.7735 48.8313 66.3314 57.494 57.6691C66.1567 49.0069 76.6587 44.6164 89 44.4978C101.341 44.3791 111.843 48.7696 120.506 57.6691C129.169 66.5687 133.5 77.0108 133.5 88.9956V122.458C133.5 125.424 134.627 128.035 136.882 130.289C139.137 132.544 141.747 133.612 144.714 133.493C147.681 133.493 150.291 132.425 152.546 130.289C154.801 128.154 155.869 125.543 155.75 122.458V88.9956C155.75 76.8922 152.783 65.738 146.85 55.5332C140.917 45.3284 132.788 37.2595 122.464 31.3264C112.14 25.3934 100.985 22.3675 89 22.2489C77.0147 22.1302 65.86 25.1561 55.536 31.3264C45.212 37.4968 37.0833 45.5657 31.15 55.5332C25.2167 65.5007 22.25 76.6548 22.25 88.9956C22.25 101.336 25.2167 112.55 31.15 122.636C37.0833 132.722 45.212 140.791 55.536 146.843C65.86 152.894 77.0147 155.861 89 155.742H100.214C103.181 155.742 105.791 156.869 108.046 159.124C110.301 161.379 111.369 163.989 111.25 166.956C111.131 169.922 110.063 172.533 108.046 174.787C106.029 177.042 103.418 178.11 100.214 177.991H89C76.896 177.991 65.3853 175.677 54.468 171.049C43.5507 166.422 34.0573 160.073 25.988 152.004C17.9187 143.935 11.6293 134.443 7.12 123.526C2.61067 112.609 0.237333 101.099 0 88.9956ZM66.75 88.9956C66.75 95.1659 68.9453 100.446 73.336 104.837C77.7267 109.227 82.948 111.363 89 111.244C95.052 111.126 100.273 108.99 104.664 104.837C109.055 100.684 111.25 95.4032 111.25 88.9956C111.25 82.5879 109.055 77.3668 104.664 73.3323C100.273 69.2979 95.052 67.1026 89 66.7467C82.948 66.3907 77.7267 68.5859 73.336 73.3323C68.9453 78.0788 66.75 83.2998 66.75 88.9956Z" fill="white"/>
</svg>
