<svg width="34" height="34" viewBox="0 0 34 34" fill="none" xmlns="http://www.w3.org/2000/svg">
<path d="M0.00169992 31.8921C0.00169992 32.4814 0.20569 32.9801 0.613669 33.388C1.02165 33.796 1.53162 34 2.14359 34C2.75556 34 3.2542 33.796 3.63952 33.388C4.02483 32.9801 4.22882 32.4814 4.25149 31.8921V2.14352C4.25149 1.55421 4.0475 1.05557 3.63952 0.647588C3.23154 0.239608 2.7329 0.0242846 2.14359 0.00161897C1.55429 -0.0210466 1.04431 0.194276 0.613669 0.647588C0.183024 1.1009 -0.0209656 1.59954 0.00169992 2.14352V31.8921ZM6.39338 19.1427H17.0009V23.3925H34L29.7502 14.8929L34 6.39331H21.2506V2.14352H6.39338V19.1427ZM10.6432 14.8929V6.39331H17.0009V14.8929H10.6432ZM21.2506 19.1427V10.6431H27.1323L24.9905 14.8929L27.1323 19.1427H21.2506Z" fill="#8257E5"/>
</svg>
