<svg width="177" height="173" viewBox="0 0 177 173" fill="none" xmlns="http://www.w3.org/2000/svg">
<path d="M88.5 0C39.6333 0 0 39.7095 0 88.6868C0 127.872 25.3552 161.114 60.5266 172.843C64.9442 173.663 66.375 170.914 66.375 168.579V152.068C41.7572 157.434 36.6316 141.603 36.6316 141.603C32.6049 131.352 26.8008 128.625 26.8008 128.625C18.7694 123.119 27.4129 123.238 27.4129 123.238C36.2998 123.858 40.9755 132.38 40.9755 132.38C48.8668 145.934 61.6771 142.017 66.729 139.748C67.5181 134.02 69.8118 130.103 72.3488 127.894C52.6944 125.64 32.0296 118.035 32.0296 84.0603C32.0296 74.3712 35.4885 66.4633 41.1451 60.2553C40.2306 58.0159 37.1995 48.992 42.008 36.7828C42.008 36.7828 49.442 34.4031 66.3529 45.8732C73.4107 43.9073 80.9775 42.9244 88.5 42.8874C96.0225 42.9244 103.597 43.9073 110.669 45.8732C127.565 34.4031 134.985 36.7828 134.985 36.7828C139.8 48.9994 136.769 58.0233 135.855 60.2553C141.534 66.4633 144.963 74.3786 144.963 84.0603C144.963 118.123 124.261 125.625 104.555 127.82C107.727 130.569 110.625 135.964 110.625 144.242V168.579C110.625 170.936 112.041 173.708 116.532 172.836C151.674 161.092 177 127.857 177 88.6868C177 39.7095 137.374 0 88.5 0Z" fill="white"/>
</svg>
