<svg width="48" height="48" viewBox="0 0 48 48" fill="none" xmlns="http://www.w3.org/2000/svg">
<circle cx="24" cy="24" r="24" fill="#8257E5"/>
<path d="M24.0143 10.1053C23.3543 10.1053 22.8641 10.3646 22.5435 10.8834L15.4724 21.3044C15.2838 21.5638 15.1801 21.8509 15.1612 22.1659C15.1424 22.4808 15.2084 22.7865 15.3592 23.0829C15.5289 23.3608 15.7552 23.5831 16.038 23.7499C16.3209 23.9166 16.6226 24 16.9432 24H31.0855C31.4061 24 31.7078 23.9166 31.9906 23.7499C32.2734 23.5831 32.4903 23.3608 32.6411 23.0829C32.792 22.805 32.858 22.4994 32.8391 22.1659C32.8203 21.8324 32.726 21.5453 32.5563 21.3044L25.4851 10.8834C25.1269 10.3646 24.6366 10.1053 24.0143 10.1053ZM24.0143 24C23.3543 24 22.8641 24.2594 22.5435 24.7781L15.4724 35.1991C15.2838 35.4585 15.1801 35.7457 15.1612 36.0606C15.1424 36.3756 15.2084 36.6813 15.3592 36.9777C15.5289 37.2556 15.7552 37.4779 16.038 37.6446C16.3209 37.8114 16.6226 37.8947 16.9432 37.8947H31.0855C31.4061 37.8947 31.7078 37.8114 31.9906 37.6446C32.2734 37.4779 32.4903 37.2556 32.6411 36.9777C32.792 36.6998 32.858 36.3941 32.8391 36.0606C32.8203 35.7271 32.726 35.44 32.5563 35.1991L25.4851 24.7781C25.1269 24.2594 24.6366 24 24.0143 24Z" fill="#E6E6E6"/>
</svg>
