<svg width="463" height="514" viewBox="0 0 463 514" fill="none" xmlns="http://www.w3.org/2000/svg">
<path d="M236.485 0C246.51 2.43936 255.597 6.41274 262.284 14.8373C268.571 22.7589 271.571 31.7494 271.259 41.7834C271.171 44.8137 271.821 46.5867 274.558 48.1836C313.069 70.6659 351.517 93.2362 389.915 115.907C392.553 117.466 394.065 117.265 396.303 115.241C408.89 103.886 426.264 101.296 440.276 108.476C455.25 116.133 464.087 131.273 462.874 147.179C461.562 164.33 450.85 177.645 434.063 183.015C433.126 183.316 432.238 183.719 431.238 184.109V328.244C438.426 332.909 445.7 336.216 451.163 341.434C466.912 356.473 466.799 381.319 451.7 397.364C437.326 412.654 412.489 413.609 396.778 399.212C394.015 396.672 392.178 396.773 389.153 398.558C351.192 420.99 313.182 443.309 275.096 465.527C272.071 467.288 271.146 469.111 271.246 472.606C271.884 495.252 253.734 514 231.485 514C209.237 514 191.087 495.252 191.725 472.606C191.825 469.111 190.887 467.288 187.875 465.527C149.639 443.234 111.479 420.827 73.3805 398.319C70.6431 396.71 69.0182 396.659 66.5808 398.885C54.3314 410.063 36.9697 412.666 23.0329 405.713C7.87107 398.143 -1.166 382.765 0.121443 366.708C1.48388 349.758 12.3834 336.141 28.5826 331.136C29.5325 330.847 30.4575 330.457 31.6324 330.03V183.932C21.3704 181.267 12.8833 175.86 6.82112 166.857C-4.05336 150.712 -1.42848 127.827 12.8458 115.19C28.5951 101.246 50.9815 100.856 65.9433 114.587C68.7932 117.202 70.6931 117.353 73.9679 115.417C111.766 93.0476 149.652 70.8042 187.588 48.6865C190.712 46.8633 191.862 45.0275 191.75 41.2804C191.162 21.7279 204.624 4.94158 223.723 0.88018C224.673 0.678996 225.586 0.301776 226.511 0C229.836 0 233.16 0 236.485 0ZM134.553 190.848C158.001 150.536 181.375 110.387 204.724 70.2509C202.162 67.208 199.824 64.4418 197.312 61.4491C157.376 84.8996 117.591 108.275 78.8427 131.034V158.118C96.6169 168.567 115.366 179.582 134.553 190.861V190.848ZM328.431 190.848C347.667 179.544 366.504 168.466 384.128 158.105V131.009C345.168 108.136 305.382 84.7739 265.634 61.4366C262.946 64.6807 260.634 67.4595 258.284 70.3012C281.708 110.563 305.007 150.586 328.431 190.848ZM52.7939 331.4C77.3803 289.127 101.879 247.016 126.49 204.692C107.904 193.778 90.0172 183.228 72.0555 172.817C71.0681 172.251 69.1682 172.226 68.2182 172.817C61.6685 176.841 55.2563 181.091 48.0567 185.756V330.105C49.6441 330.545 51.044 330.935 52.7814 331.413L52.7939 331.4ZM336.493 204.73C361.242 247.268 385.753 289.391 410.289 331.551C412.264 330.86 413.627 330.382 415.002 329.904V185.567C408.202 181.367 401.877 177.859 396.04 173.672C393.74 172.025 392.453 171.723 390.065 173.157C374.079 182.688 357.992 192.055 341.943 201.486C340.268 202.467 338.593 203.472 336.505 204.717L336.493 204.73ZM79.0177 361.088H223.361V298.243C216.074 293.515 209.661 289.265 203.112 285.241C202.162 284.663 200.262 284.701 199.274 285.279C158.976 308.893 118.728 332.595 78.4802 356.297C78.2302 356.435 78.1302 356.838 77.8678 357.265C78.2177 358.422 78.5927 359.679 79.0177 361.088ZM239.648 361.301H383.916C384.353 359.73 384.766 358.196 385.216 356.573C373.166 349.482 361.429 342.566 349.68 335.676C321.444 319.103 293.208 302.505 264.909 286.033C263.509 285.216 261.022 284.663 259.834 285.367C253.222 289.265 246.847 293.578 239.648 298.23V361.314V361.301ZM140.365 212.828C139.452 214.336 138.84 215.317 138.265 216.323C115.103 256.132 91.9296 295.942 68.7682 335.751C68.2682 336.619 67.5182 337.436 67.3433 338.366C67.1933 339.171 67.4182 340.403 67.9682 340.906C68.6807 341.56 69.9056 341.988 70.8681 341.912C71.7555 341.849 72.593 340.982 73.4555 340.479C112.341 317.657 151.239 294.835 190.112 272.001C191.35 271.271 192.5 270.366 192.525 270.341V243.47C175.751 233.612 158.264 223.339 140.365 212.828ZM322.656 212.802C304.707 223.352 286.995 233.763 270.471 243.483V270.479C270.821 270.693 271.921 271.435 273.058 272.101C311.794 294.848 350.53 317.619 389.328 340.265C390.84 341.145 393.015 340.894 394.89 341.158C394.628 339.284 394.915 337.096 394.04 335.588C373.754 300.481 353.342 265.437 332.943 230.393C329.593 224.635 326.218 218.901 322.656 212.802ZM223.373 377.736H78.9802C78.5802 379.358 78.2302 380.778 77.8303 382.4C117.803 405.864 157.589 429.214 196.925 452.312C201.212 448.213 204.674 444.038 208.962 441.046C213.236 438.066 218.336 436.268 223.386 433.803V377.736H223.373ZM239.66 377.622V434.532C250.472 437.198 259.109 443.271 265.459 452.689C305.669 429.075 345.468 405.713 385.341 382.287C384.741 380.426 384.291 379.056 383.816 377.61H239.648L239.66 377.622ZM218.674 78.072C195.175 118.472 171.888 158.495 148.364 198.921C165.864 209.194 183.025 219.291 200.249 229.274C200.937 229.677 202.412 229.274 203.224 228.759C209.736 224.672 216.161 220.46 223.398 215.782V79.7066C221.998 79.2288 220.623 78.751 218.674 78.0845V78.072ZM314.656 198.921C290.983 158.231 267.684 118.208 244.36 78.1223C242.46 78.751 241.085 79.2036 239.735 79.6437V216.26C247.572 220.825 254.672 224.961 262.521 229.538C279.108 219.806 296.695 209.483 314.669 198.921H314.656ZM255.434 40.526C255.509 27.1095 244.722 16.0947 231.51 16.0947C218.486 16.0947 207.774 26.8078 207.587 40.023C207.399 52.9868 218.174 63.9891 231.26 64.2028C244.185 64.404 255.347 53.4772 255.434 40.526ZM231.56 497.918C244.572 497.893 255.384 487.041 255.434 473.939C255.484 460.85 244.747 449.923 231.723 449.797C218.524 449.671 207.499 460.749 207.599 474.027C207.699 487.129 218.549 497.943 231.56 497.918ZM39.6696 168.63C52.9439 168.592 63.9684 157.515 63.7934 144.387C63.6184 131.323 52.8689 120.635 39.7821 120.522C26.9577 120.409 16.0082 131.449 15.9707 144.526C15.9332 157.59 26.8327 168.668 39.6696 168.63ZM423.464 168.63C436.313 168.58 447.15 157.452 447.038 144.4C446.938 131.323 435.913 120.333 423.101 120.522C409.977 120.723 399.303 131.449 399.215 144.5C399.128 157.628 410.227 168.68 423.464 168.63ZM63.7934 369.399C63.7184 356.171 52.6564 345.282 39.4196 345.408C26.5577 345.534 15.7957 356.724 15.9707 369.776C16.1457 382.652 26.8827 393.466 39.5446 393.516C52.7939 393.566 63.8684 382.551 63.7934 369.399ZM423.264 393.516C436.088 393.604 447.025 382.539 447.038 369.474C447.038 356.41 436.126 345.332 423.301 345.408C410.202 345.483 399.452 356.108 399.215 369.198C398.99 382.312 409.989 393.428 423.264 393.516ZM207.599 256.975C207.537 269.913 218.374 280.928 231.323 281.067C244.16 281.205 255.197 270.328 255.409 257.327C255.622 244.225 244.472 232.908 231.423 232.971C218.499 233.034 207.662 243.961 207.599 256.975Z" fill="#8257E5"/>
</svg>
