<svg width="299" height="302" viewBox="0 0 299 302" fill="none" xmlns="http://www.w3.org/2000/svg">
<path d="M152.719 0C159.193 1.43324 165.061 3.7678 169.38 8.71765C173.44 13.372 175.377 18.6543 175.176 24.5498C175.119 26.3303 175.539 27.3719 177.307 28.3102C202.176 41.5196 227.006 54.7808 251.803 68.1011C253.506 69.0172 254.483 68.899 255.928 67.7095C264.056 61.0383 275.276 59.5164 284.325 63.7349C293.995 68.2341 299.702 77.129 298.919 86.4746C298.071 96.5516 291.154 104.375 280.313 107.53C279.708 107.707 279.135 107.944 278.489 108.173V192.859C283.13 195.6 287.828 197.543 291.355 200.609C301.526 209.445 301.454 224.044 291.703 233.47C282.42 242.454 266.381 243.015 256.234 234.556C254.45 233.064 253.264 233.123 251.31 234.172C226.796 247.352 202.249 260.466 177.654 273.52C175.7 274.554 175.103 275.625 175.168 277.679C175.579 290.985 163.859 302 149.491 302C135.122 302 123.402 290.985 123.814 277.679C123.878 275.625 123.273 274.554 121.327 273.52C96.6353 260.421 71.9916 247.256 47.3882 234.032C45.6205 233.086 44.5711 233.057 42.9971 234.364C35.0866 240.932 23.8746 242.461 14.8743 238.376C5.08305 233.928 -0.752987 224.893 0.0784264 215.459C0.958271 205.5 7.99703 197.499 18.4583 194.559C19.0718 194.389 19.6691 194.16 20.4279 193.909L20.4279 108.069C13.8008 106.503 8.31991 103.326 4.405 98.0366C-2.61761 88.5506 -0.922497 75.1047 8.29569 67.68C18.4664 59.4869 32.9233 59.2578 42.5854 67.3254C44.4258 68.862 45.6528 68.9507 47.7676 67.813C72.1773 54.67 96.6434 41.6009 121.142 28.6057C123.16 27.5345 123.902 26.4558 123.83 24.2543C123.45 12.7662 132.144 2.90342 144.478 0.517149C145.091 0.398943 145.681 0.177308 146.278 0C148.425 0 150.572 0 152.719 0ZM86.8925 112.133C102.035 88.4472 117.13 64.8578 132.209 41.2758C130.554 39.488 129.044 37.8627 127.422 36.1044C101.632 49.8827 75.9388 63.6167 50.9157 76.9886V92.9021C62.394 99.0413 74.502 105.513 86.8925 112.14V112.133ZM212.097 112.133C224.52 105.491 236.684 98.9822 248.066 92.8947V76.9739C222.905 63.5354 197.212 49.8088 171.543 36.097C169.808 38.003 168.314 39.6357 166.797 41.3054C181.924 64.9612 196.97 88.4767 212.097 112.133ZM34.0937 194.714C49.9713 169.876 65.7923 145.134 81.686 120.267C69.683 113.854 58.132 107.656 46.5326 101.538C45.8949 101.206 44.668 101.191 44.0545 101.538C39.8248 103.903 35.6839 106.4 31.0344 109.141L31.0344 193.953C32.0596 194.211 32.9636 194.44 34.0856 194.721L34.0937 194.714ZM217.303 120.289C233.286 145.282 249.115 170.031 264.96 194.802C266.236 194.396 267.115 194.115 268.003 193.835V109.03C263.612 106.562 259.528 104.501 255.758 102.041C254.273 101.073 253.441 100.896 251.9 101.738C241.576 107.338 231.187 112.842 220.823 118.383C219.741 118.959 218.659 119.55 217.311 120.281L217.303 120.289ZM51.0287 212.157H144.244V175.232C139.538 172.454 135.397 169.957 131.167 167.593C130.554 167.253 129.327 167.275 128.689 167.615C102.665 181.49 76.6734 195.416 50.6816 209.342C50.5202 209.423 50.4556 209.659 50.2861 209.911C50.5121 210.59 50.7543 211.329 51.0287 212.157ZM154.762 212.282H247.928C248.211 211.359 248.477 210.457 248.768 209.504C240.986 205.338 233.407 201.274 225.819 197.226C207.585 187.489 189.35 177.737 171.075 168.059C170.171 167.578 168.565 167.253 167.798 167.667C163.528 169.957 159.411 172.491 154.762 175.225V212.29V212.282ZM90.6459 125.047C90.0567 125.933 89.6612 126.509 89.2898 127.1C74.3325 150.49 59.367 173.88 44.4097 197.27C44.0868 197.78 43.6025 198.26 43.4895 198.807C43.3926 199.28 43.5379 200.004 43.8931 200.299C44.3532 200.683 45.1442 200.934 45.7658 200.89C46.3389 200.853 46.8797 200.343 47.4367 200.048C72.5486 186.639 97.6685 173.23 122.772 159.814C123.571 159.385 124.314 158.853 124.33 158.838V143.051C113.498 137.259 102.205 131.223 90.6459 125.047ZM208.368 125.032C196.776 131.23 185.338 137.347 174.667 143.058V158.92C174.893 159.045 175.603 159.481 176.338 159.873C201.353 173.237 226.368 186.617 251.423 199.922C252.4 200.439 253.805 200.292 255.015 200.447C254.846 199.346 255.032 198.061 254.467 197.174C241.366 176.547 228.184 155.957 215.011 135.367C212.847 131.984 210.668 128.615 208.368 125.032ZM144.252 221.938H51.0045C50.7462 222.891 50.5202 223.726 50.2619 224.679C76.076 238.465 101.769 252.184 127.172 265.755C129.94 263.347 132.176 260.894 134.945 259.136C137.706 257.385 140.999 256.328 144.26 254.88V221.938H144.252ZM154.77 221.872V255.309C161.752 256.875 167.33 260.443 171.43 265.977C197.398 252.103 223.099 238.376 248.848 224.612C248.461 223.519 248.17 222.714 247.864 221.864H154.762L154.77 221.872ZM141.217 45.8711C126.042 69.6082 111.003 93.1237 95.812 116.876C107.113 122.911 118.196 128.844 129.319 134.71C129.763 134.946 130.715 134.71 131.24 134.407C135.445 132.006 139.594 129.531 144.268 126.783V46.8315C143.364 46.5508 142.476 46.27 141.217 45.8785V45.8711ZM203.201 116.876C187.913 92.9685 172.867 69.4531 157.805 45.9006C156.578 46.27 155.69 46.536 154.818 46.7946V127.063C159.879 129.745 164.464 132.176 169.533 134.865C180.245 129.147 191.602 123.081 203.21 116.876H203.201ZM164.956 23.811C165.005 15.9282 158.039 9.45643 149.507 9.45643C141.096 9.45643 134.178 15.7509 134.057 23.5155C133.936 31.1323 140.894 37.5967 149.345 37.7223C157.692 37.8405 164.9 31.4205 164.956 23.811ZM149.539 292.551C157.942 292.536 164.924 286.16 164.956 278.462C164.989 270.772 158.055 264.352 149.644 264.278C141.12 264.204 134 270.712 134.065 278.514C134.13 286.212 141.136 292.566 149.539 292.551ZM25.6181 99.0783C34.1906 99.0561 41.31 92.5474 41.197 84.8345C41.084 77.1586 34.1421 70.8789 25.6908 70.8124C17.4089 70.7459 10.3379 77.2324 10.3137 84.9158C10.2895 92.5918 17.3282 99.1004 25.6181 99.0783ZM273.468 99.0783C281.766 99.0487 288.764 92.5105 288.692 84.8419C288.627 77.1586 281.508 70.7016 273.234 70.8124C264.758 70.9306 257.865 77.2324 257.808 84.901C257.752 92.6139 264.92 99.1078 273.468 99.0783ZM41.197 217.04C41.1486 209.268 34.0049 202.87 25.4567 202.944C17.1506 203.018 10.2007 209.593 10.3137 217.261C10.4267 224.827 17.3605 231.18 25.5374 231.21C34.0937 231.239 41.2455 224.768 41.197 217.04ZM273.339 231.21C281.621 231.261 288.684 224.76 288.692 217.084C288.692 209.408 281.645 202.9 273.363 202.944C264.904 202.988 257.962 209.231 257.808 216.922C257.663 224.627 264.766 231.158 273.339 231.21ZM134.065 150.985C134.025 158.587 141.023 165.059 149.386 165.14C157.676 165.222 164.803 158.831 164.94 151.192C165.078 143.494 157.877 136.845 149.45 136.882C141.104 136.919 134.105 143.339 134.065 150.985Z" fill="#17171A"/>
</svg>
