<svg width="265" height="535" viewBox="0 0 265 535" fill="none" xmlns="http://www.w3.org/2000/svg">
<g filter="url(#filter0_d_4_477)">
<path d="M-138.184 135.714C-131.32 132.029 -124.146 129.573 -115.894 130.529C-108.135 131.428 -101.617 134.475 -96.3665 139.668C-94.7772 141.233 -93.4595 141.805 -91.0822 141.266C-57.6289 133.694 -24.1625 126.196 9.33056 118.773C11.6321 118.264 12.36 117.422 12.5036 115.309C13.3299 103.44 21.5409 93.6269 33.1721 90.3692C45.5939 86.88 58.6641 90.1556 66.5898 98.7396C75.1329 107.998 76.4039 119.934 70.0197 130.855C69.6642 131.466 69.3907 132.103 69.0482 132.789L146.946 205.192C153.442 204.014 159.254 202.111 165.096 202.057C181.935 201.895 195.301 214.431 195.619 229.888C195.931 244.61 182.709 257.257 166.237 257.722C163.336 257.8 162.374 258.75 161.666 261.129C152.79 290.994 143.826 320.826 134.766 350.645C134.044 353.011 134.518 354.38 136.462 356.087C149.054 367.15 149.146 385.459 136.839 396.359C124.532 407.258 104.36 406.732 92.4737 395.044C90.6399 393.239 89.136 392.782 86.5182 393.374C53.3189 400.907 20.0999 408.346 -13.1388 415.704C-15.5229 416.236 -16.4489 417.007 -16.5944 419.319C-17.3292 430.935 -25.5264 440.748 -36.9938 444.082C-49.4717 447.708 -62.7817 444.41 -70.7475 435.714C-79.1542 426.532 -80.4845 414.352 -74.2282 403.902C-73.8591 403.291 -73.5581 402.642 -73.1392 401.852L-152.097 328.464C-159.214 332.152 -166.831 333.594 -175.05 332.041C-189.791 329.258 -200.707 316.477 -199.64 303.136C-198.464 288.416 -186.292 277.253 -170.594 276.821C-167.604 276.739 -166.472 275.884 -165.707 273.307C-156.887 243.553 -147.951 213.82 -138.92 184.125C-138.177 181.679 -138.533 180.193 -140.62 178.366C-151.512 168.832 -153.138 153.805 -144.767 142.408C-144.351 141.842 -144.05 141.205 -143.701 140.601C-141.862 138.972 -140.023 137.343 -138.184 135.714ZM-91.4269 281.518C-100.242 249.781 -109.011 218.162 -117.786 186.563C-120.848 186.289 -123.636 186.045 -126.643 185.772C-136.061 217.116 -145.436 248.349 -154.57 278.763L-139.933 292.369C-124.453 288.91 -108.129 285.258 -91.4201 281.524L-91.4269 281.518ZM15.8207 186.539C20.3525 171.437 24.7855 156.644 28.9351 142.806L14.2907 129.194C-19.6222 136.791 -54.2565 144.546 -88.8565 152.296C-88.5898 155.242 -88.3672 157.771 -88.1312 160.349C-53.4145 169.099 -18.8961 177.789 15.8207 186.539ZM-60.6926 392.174C-69.9388 358.894 -79.1451 325.739 -88.4047 292.422C-104.585 296.045 -120.181 299.508 -135.743 303.077C-136.595 303.277 -137.66 304.195 -137.866 304.957C-139.314 310.187 -140.564 315.463 -142.026 321.334L-64.013 393.844C-62.8971 393.287 -61.912 392.797 -60.6927 392.186L-60.6926 392.174ZM27.7827 189.562C64.4623 198.806 100.786 207.957 137.144 217.115C137.863 215.801 138.359 214.893 138.861 213.98L60.8549 141.475C54.8238 142.697 49.4292 144.033 43.9373 144.789C41.7749 145.089 40.8996 145.568 40.3537 147.457C36.6613 160.077 32.8253 172.663 29.044 185.263C28.6476 186.576 28.2647 187.902 27.7828 189.55L27.7827 189.562ZM-30.1421 394.24L49.7041 323.527L15.7399 291.959C9.15377 293.154 3.30985 294.16 -2.48781 295.347C-3.32589 295.522 -4.35648 296.472 -4.59011 297.246C-14.1197 328.85 -23.5741 360.473 -33.0285 392.096C-33.0921 392.288 -32.9299 392.539 -32.8441 392.883C-32.0253 393.292 -31.1383 393.74 -30.1421 394.24ZM58.8289 315.656L138.634 244.98C138.026 243.976 137.425 243.003 136.798 241.968C126.299 244.309 116.069 246.585 105.846 248.879C81.2701 254.387 56.6806 259.882 32.1245 265.471C30.9084 265.747 29.2335 266.687 28.9572 267.623C27.4061 272.82 26.2107 278.109 24.7424 283.973L58.8357 315.662L58.8289 315.656ZM-76.3331 289.711C-76.0224 290.916 -75.8311 291.709 -75.6055 292.496C-66.903 323.84 -58.2074 355.19 -49.5049 386.533C-49.3125 387.214 -49.2857 387.992 -48.8796 388.545C-48.5277 389.023 -47.7372 389.532 -47.1612 389.515C-46.4137 389.494 -45.505 389.109 -45.0134 388.6C-44.5565 388.133 -44.5621 387.287 -44.3569 386.612C-35.1804 356.098 -25.9971 325.579 -16.8344 295.065C-16.544 294.092 -16.3972 293.074 -16.3969 293.049L-30.919 279.551C-45.5257 282.817 -60.7508 286.223 -76.3331 289.711ZM24.4913 200.396C20.2638 214.488 16.093 228.395 12.2053 241.372L26.7953 254.933C27.1044 254.869 28.1138 254.703 29.1032 254.481C62.8237 246.93 96.5578 239.393 130.259 231.761C131.571 231.463 132.638 230.271 133.818 229.485C132.66 228.672 131.637 227.433 130.337 227.103C100.142 219.407 69.912 211.803 39.6887 204.193C34.7233 202.941 29.7577 201.714 24.4913 200.396ZM58.7083 331.884L-21.1655 402.621C-20.5102 403.631 -19.9359 404.517 -19.2805 405.527C15.5119 397.731 50.1394 389.969 84.3821 382.302C84.5383 378.143 84.1974 374.35 84.9517 370.746C85.7058 367.155 87.5551 363.753 89.0166 360.042L58.7152 331.877L58.7083 331.884ZM67.6564 323.848L98.4131 352.435C105.835 348.478 113.895 347.297 122.497 348.917C131.978 317.357 141.367 286.124 150.764 254.824C149.426 254.183 148.436 253.715 147.392 253.221L67.6427 323.848L67.6564 323.848ZM-105.843 183.658C-97.0077 215.464 -88.2588 246.976 -79.4238 278.807C-64.1919 275.394 -49.2417 272.059 -34.3182 268.636C-33.7204 268.501 -33.122 267.577 -32.9512 266.92C-31.5574 261.677 -30.28 256.413 -28.8045 250.518L-102.346 182.164C-103.379 182.61 -104.397 183.043 -105.836 183.664L-105.843 183.658ZM12.5638 197.342C-22.5222 188.5 -57.0407 179.809 -91.6069 171.099C-92.3181 172.346 -92.8341 173.247 -93.343 174.129L-19.5093 242.755C-12.7073 241.209 -6.54424 239.809 0.271515 238.262C4.18702 225.248 8.33627 211.447 12.5708 197.335L12.5638 197.342ZM-105.8 146.788C-113.009 140.012 -124.929 139.764 -132.237 146.236C-139.442 152.617 -139.578 163.246 -132.539 169.976C-125.637 176.58 -113.731 176.828 -106.376 170.525C-99.1177 164.294 -98.8485 153.337 -105.8 146.788ZM128.189 388.243C135.373 381.856 135.489 371.109 128.436 364.503C121.39 357.903 109.545 357.674 102.272 363.992C94.9029 370.395 94.7913 381.36 102.023 387.981C109.159 394.514 121.005 394.63 128.189 388.243ZM-155.921 316.84C-148.598 310.318 -148.487 299.352 -155.678 292.844C-162.836 286.367 -174.558 286.264 -181.858 292.619C-189.014 298.844 -189.104 309.754 -182.057 316.341C-175.018 322.922 -163.002 323.147 -155.921 316.84ZM56.3822 128.822C63.4629 122.502 63.4436 111.603 56.3276 105.102C49.2049 98.5821 37.1672 98.4625 30.1819 104.834C23.0307 111.364 22.9225 121.981 29.9279 128.58C36.974 135.217 49.0872 135.332 56.3822 128.822ZM-34.0718 405.873C-41.2623 399.265 -53.2663 399.214 -60.5206 405.762C-67.5674 412.126 -67.4726 423.02 -60.322 429.49C-53.2666 435.872 -41.4831 436.044 -34.4517 429.867C-27.0954 423.401 -26.9222 412.443 -34.0718 405.873ZM177.81 241.886C184.952 235.647 185.022 224.731 177.968 218.163C170.907 211.6 158.884 211.381 151.831 217.702C144.626 224.157 144.422 234.76 151.364 241.452C158.328 248.15 170.419 248.345 177.81 241.886ZM-15.282 278.95C-8.32393 285.48 3.62365 285.704 10.8616 279.43C18.0373 273.211 18.2645 262.34 11.3554 255.705C4.39202 249.02 -7.89151 248.797 -15.0761 255.221C-22.1914 261.585 -22.2808 272.382 -15.282 278.95Z" fill="#8257E5"/>
</g>
<defs>
<filter id="filter0_d_4_477" x="-207.712" y="88.9934" width="411.337" height="372.541" filterUnits="userSpaceOnUse" color-interpolation-filters="sRGB">
<feFlood flood-opacity="0" result="BackgroundImageFix"/>
<feColorMatrix in="SourceAlpha" type="matrix" values="0 0 0 0 0 0 0 0 0 0 0 0 0 0 0 0 0 0 127 0" result="hardAlpha"/>
<feOffset dy="8"/>
<feGaussianBlur stdDeviation="4"/>
<feComposite in2="hardAlpha" operator="out"/>
<feColorMatrix type="matrix" values="0 0 0 0 0.235294 0 0 0 0 0.172549 0 0 0 0 0.384314 0 0 0 1 0"/>
<feBlend mode="normal" in2="BackgroundImageFix" result="effect1_dropShadow_4_477"/>
<feBlend mode="normal" in="SourceGraphic" in2="effect1_dropShadow_4_477" result="shape"/>
</filter>
</defs>
</svg>
