<svg width="32" height="32" viewBox="0 0 32 32" fill="none" xmlns="http://www.w3.org/2000/svg">
<path d="M0 26.016V6.016C0 4.352 0.586652 2.93333 1.75995 1.76C2.93326 0.586667 4.35189 0 6.01585 0H20.7035L16.6716 4H6.01585C5.46119 4 4.98121 4.20267 4.57588 4.608C4.17056 5.01333 3.97856 5.48267 3.9999 6.016V26.016C3.9999 26.5707 4.19189 27.04 4.57588 27.424C4.95987 27.808 5.43986 28 6.01585 28H26.0153C26.5487 28 27.018 27.808 27.4233 27.424C27.8286 27.04 28.0206 26.5707 27.9993 26.016V15.328L31.9992 11.328V26.016C31.9992 27.68 31.4125 29.088 30.2392 30.24C29.0659 31.392 27.658 31.9787 26.0153 32H6.01585C4.35189 32 2.93326 31.4133 1.75995 30.24C0.586652 29.0667 0 27.6587 0 26.016ZM6.01585 26.016L8.12779 18.176L20.3835 5.984L26.1113 11.552L13.7916 23.84L6.01585 26.016ZM22.1114 4.256L25.1834 1.184C25.9513 0.394667 26.89 0 27.9993 0C29.1086 0 30.0472 0.394667 30.8152 1.184C31.5832 1.97333 31.9778 2.912 31.9992 4C32.0205 5.088 31.6259 6.03733 30.8152 6.848L27.8393 9.824L22.1114 4.256Z" fill="#8257E5"/>
</svg>
