<svg width="2353" height="685" viewBox="0 0 2353 685" fill="none" xmlns="http://www.w3.org/2000/svg">
<g clip-path="url(#clip0_133_1936)">
<rect width="2353" height="685" fill="#0F0F10"/>
<path d="M2096.07 655.464C2097.52 649.497 2099.8 644.11 2104.46 640.21C2108.84 636.543 2113.77 634.855 2119.21 635.16C2120.86 635.248 2121.83 634.88 2122.73 633.262C2135.44 610.496 2148.19 587.769 2161 565.073C2161.89 563.514 2161.8 562.607 2160.73 561.245C2154.72 553.584 2153.54 543.163 2157.62 534.868C2161.98 526.003 2170.31 520.897 2178.93 521.809C2188.23 522.796 2195.32 529.359 2198.02 539.462C2198.17 540.026 2198.38 540.561 2198.58 541.164L2276.85 542.862C2279.48 538.619 2281.37 534.307 2284.28 531.102C2292.65 521.861 2306.14 522.221 2314.66 531.44C2322.77 540.216 2322.97 555.081 2314.95 564.307C2313.53 565.929 2313.56 567.029 2314.49 568.859C2326.18 591.825 2337.81 614.82 2349.38 637.858C2350.3 639.688 2351.28 640.263 2353.18 640.244C2365.48 640.13 2375.43 651.204 2375.14 664.51C2374.85 677.816 2364.43 688.448 2352.14 687.8C2350.25 687.699 2349.24 688.239 2348.25 690.019C2335.65 712.623 2322.98 735.18 2310.27 757.699C2309.36 759.317 2309.31 760.288 2310.48 761.772C2316.4 769.229 2317.58 779.643 2313.63 787.896C2309.32 796.874 2300.85 802.097 2292.15 801.138C2282.96 800.123 2275.71 793.445 2273.2 783.698C2273.05 783.127 2272.86 782.569 2272.64 781.861L2193.3 780.14C2191.72 786.245 2188.67 791.257 2183.7 794.776C2174.79 801.09 2162.4 799.25 2155.72 790.565C2148.35 780.982 2148.43 767.589 2156.08 758.803C2157.54 757.13 2157.65 755.996 2156.64 754.014C2144.98 731.146 2133.39 708.227 2121.87 685.28C2120.92 683.389 2119.94 682.68 2117.91 682.703C2107.28 682.824 2098.34 674.576 2096.38 663.106C2096.28 662.535 2096.09 661.985 2095.94 661.429C2095.98 659.44 2096.03 657.452 2096.07 655.464ZM2198.39 718.671C2176.8 704.173 2155.3 689.722 2133.81 675.285C2132.12 676.782 2130.59 678.147 2128.93 679.614C2141.15 703.774 2153.33 727.842 2165.18 751.283L2179.89 751.602C2185.8 741.096 2192.02 730.013 2198.4 718.672L2198.39 718.671ZM2200.9 602.726C2195.02 591.088 2189.24 579.693 2183.85 569.031L2169.13 568.712C2156.2 591.742 2143 615.26 2129.81 638.756C2131.54 640.401 2133.02 641.817 2134.53 643.255C2156.7 629.721 2178.74 616.26 2200.9 602.726ZM2273.66 769.222C2251.02 754.02 2228.47 738.873 2205.8 723.656C2199.63 734.643 2193.67 745.215 2187.79 755.834C2187.47 756.418 2187.43 757.554 2187.74 758.129C2189.84 762.093 2192.06 765.978 2194.5 770.339L2272.89 772.04C2273.15 771.096 2273.38 770.263 2273.66 769.23L2273.66 769.222ZM2208.55 598.068C2231.97 583.768 2255.16 569.606 2278.38 555.429C2278.03 554.24 2277.79 553.42 2277.54 552.592L2199.16 550.891C2196.79 554.908 2194.8 558.649 2192.45 562.091C2191.53 563.447 2191.35 564.213 2192.1 565.658C2197.07 575.331 2201.94 585.061 2206.86 594.77C2207.37 595.784 2207.89 596.797 2208.54 598.06L2208.55 598.068ZM2290.12 753.889L2291.99 667.567L2257.86 666.827C2255.2 671.129 2252.81 674.913 2250.54 678.783C2250.21 679.344 2250.21 680.481 2250.51 681.078C2262.81 705.456 2275.16 729.805 2287.51 754.154C2287.58 754.305 2287.8 754.37 2288.03 754.532C2288.66 754.336 2289.35 754.127 2290.12 753.889ZM2292.32 657.83L2294.19 571.552C2293.34 571.272 2292.52 571.007 2291.64 570.719C2287.63 577.842 2283.73 584.779 2279.83 591.725C2270.46 608.415 2261.08 625.106 2251.77 641.836C2251.31 642.663 2250.98 644.144 2251.34 644.863C2253.38 648.863 2255.63 652.726 2258.07 657.086L2292.33 657.83L2292.32 657.83ZM2210.4 715.455C2211.21 716.018 2211.73 716.396 2212.27 716.752C2233.59 731.072 2254.91 745.4 2276.23 759.72C2276.69 760.029 2277.13 760.487 2277.63 760.603C2278.06 760.702 2278.74 760.582 2279.02 760.259C2279.38 759.841 2279.63 759.113 2279.6 758.537C2279.58 758.005 2279.12 757.494 2278.86 756.973C2266.97 733.449 2255.08 709.917 2243.18 686.401C2242.8 685.652 2242.32 684.954 2242.31 684.939L2227.72 684.622C2222.15 694.538 2216.34 704.874 2210.4 715.455ZM2212.75 606.438C2218.25 617.296 2223.67 628.011 2228.74 638.008L2243.4 638.326C2243.52 638.119 2243.94 637.47 2244.31 636.798C2257.17 613.9 2270.04 591.003 2282.84 568.068C2283.34 567.174 2283.23 565.87 2283.4 564.752C2282.37 564.887 2281.19 564.689 2280.36 565.194C2261.03 576.913 2241.73 588.707 2222.44 600.493C2219.27 602.429 2216.11 604.379 2212.75 606.438ZM2301.03 667.756L2299.16 754.108C2300.04 754.366 2300.8 754.592 2301.68 754.85C2314.94 731.222 2328.14 707.704 2341.19 684.452C2339.02 681.839 2336.8 679.72 2335.23 677.12C2333.67 674.529 2332.75 671.458 2331.48 668.409L2301.03 667.748L2301.03 667.756ZM2301.18 658.014L2332.09 658.685C2333.68 652.25 2337.09 647.157 2342.28 643.47C2329.98 619.145 2317.81 595.069 2305.61 570.947C2304.59 571.284 2303.84 571.537 2303.05 571.804L2301.18 658.022L2301.18 658.014ZM2138.24 667.035C2159.87 681.565 2181.3 695.962 2202.95 710.507C2208.76 700.163 2214.46 690.018 2220.11 679.835C2220.34 679.429 2220.14 678.542 2219.87 678.05C2217.73 674.107 2215.53 670.216 2213.08 665.832L2139.18 664.229C2138.91 665.061 2138.63 665.877 2138.24 667.036L2138.24 667.035ZM2205.11 611.058C2182.71 624.737 2160.67 638.199 2138.6 651.675C2138.91 652.818 2139.14 653.646 2139.36 654.458L2213.55 656.068C2216.13 651.435 2218.47 647.238 2221.06 642.598C2215.99 632.564 2210.61 621.924 2205.11 611.051L2205.11 611.058ZM2118.32 644.609C2111.04 644.406 2104.92 650.727 2104.74 658.628C2104.58 666.417 2110.25 672.95 2117.43 673.217C2124.47 673.482 2130.58 667.168 2130.87 659.345C2131.14 651.618 2125.35 644.814 2118.32 644.609ZM2366.41 664.276C2366.56 656.494 2360.81 649.9 2353.69 649.716C2346.59 649.532 2340.51 655.824 2340.28 663.611C2340.04 671.504 2345.91 678.227 2353.12 678.324C2360.24 678.418 2366.25 672.057 2366.41 664.276ZM2185.09 775.153C2185.24 767.214 2179.37 760.49 2172.24 760.44C2165.14 760.391 2159.2 766.694 2158.97 774.519C2158.74 782.187 2164.59 788.865 2171.69 789.042C2178.79 789.218 2184.95 782.83 2185.09 775.153ZM2190.07 545.631C2190.21 537.946 2184.31 531.334 2177.22 531.247C2170.12 531.153 2164.01 537.617 2163.94 545.281C2163.88 553.132 2169.57 559.642 2176.65 559.848C2183.78 560.055 2189.93 553.548 2190.07 545.631ZM2294.44 763.092C2287.25 762.981 2281.19 769.468 2281.09 777.385C2280.99 785.079 2286.93 791.647 2294.02 791.696C2301.01 791.743 2307.03 785.449 2307.22 777.877C2307.42 769.954 2301.58 763.202 2294.44 763.092ZM2312.2 548.4C2312.41 540.732 2306.54 534.061 2299.45 533.899C2292.35 533.746 2286.2 540.141 2286.07 547.811C2285.94 555.646 2291.57 562.2 2298.68 562.496C2305.8 562.785 2311.98 556.338 2312.2 548.4ZM2235.25 675.766C2242.27 675.956 2248.4 669.605 2248.64 661.863C2248.88 654.187 2243.12 647.459 2236.06 647.178C2228.95 646.897 2222.66 653.431 2222.52 661.236C2222.39 668.966 2228.18 675.576 2235.25 675.766Z" fill="#17171A"/>
<path d="M199.338 -16.7521C203.949 -19.0403 208.632 -20.4897 213.649 -19.606C218.367 -18.7748 222.106 -16.5306 224.85 -12.8746C225.681 -11.7726 226.442 -11.3484 227.966 -11.6432C249.425 -15.7848 270.884 -19.8755 292.353 -23.9148C293.828 -24.1915 294.361 -24.7386 294.656 -26.1601C296.328 -34.1451 302.372 -40.5284 309.894 -42.39C317.928 -44.3848 325.702 -41.7965 329.772 -35.7753C334.158 -29.2813 333.779 -21.1906 328.758 -14.0068C328.478 -13.6049 328.247 -13.1831 327.968 -12.7303L369.137 38.3759C373.276 37.7693 377.061 36.6537 380.684 36.7859C391.129 37.1643 398.182 46.0094 396.869 56.4476C395.624 66.3903 386.199 74.5411 375.952 74.3783C374.148 74.3466 373.459 74.9602 372.788 76.5447C364.373 96.4386 355.906 116.308 347.382 136.165C346.703 137.741 346.863 138.678 347.901 139.886C354.618 147.715 352.886 160.071 344.199 167.07C335.512 174.068 323.07 173.129 316.851 164.899C315.891 163.628 315.005 163.277 313.326 163.6C292.028 167.722 270.728 171.78 249.424 175.783C247.895 176.073 247.246 176.567 246.93 178.122C245.34 185.939 239.305 192.323 231.877 194.241C223.795 196.326 215.874 193.716 211.79 187.617C207.48 181.179 207.847 172.922 212.742 166.053C213.031 165.651 213.281 165.222 213.617 164.701L171.888 112.899C167.119 115.182 162.261 115.934 157.323 114.649C148.465 112.345 142.953 103.405 144.917 94.4344C147.084 84.5363 155.714 77.3567 165.477 77.5192C167.337 77.5501 168.122 77.006 168.848 75.2893C177.217 55.4689 185.657 35.6655 194.152 15.8909C194.851 14.2616 194.776 13.2489 193.661 11.9557C187.847 5.20775 188.309 -4.97846 194.606 -12.4259C194.92 -12.7961 195.168 -13.2168 195.443 -13.6148C196.741 -14.6606 198.04 -15.7063 199.338 -16.7521ZM214.049 82.9788C211.691 61.3097 209.349 39.7221 207.002 18.1469C205.133 17.8739 203.43 17.6283 201.594 17.3574C192.699 38.2336 183.841 59.0359 175.212 79.2933L182.948 88.8967C192.873 87.0109 203.339 85.0191 214.053 82.9833L214.049 82.9788ZM289.751 21.9964C294.033 11.9377 298.224 2.08499 302.146 -7.1322L294.406 -16.74C272.661 -12.5951 250.453 -8.36457 228.267 -4.13694C228.145 -2.1414 228.035 -0.428766 227.93 1.31796C248.576 8.22591 269.105 15.0885 289.751 21.9964ZM222.271 158.531C219.797 135.808 217.335 113.171 214.855 90.4234C204.481 92.3997 194.483 94.2852 184.496 96.2433C183.949 96.3533 183.2 96.942 182.998 97.4503C181.59 100.937 180.3 104.461 178.821 108.38L220.052 159.562C220.797 159.218 221.455 158.916 222.27 158.539L222.271 158.531ZM296.864 24.3826C318.677 31.6808 340.279 38.9065 361.902 46.1378C362.476 45.2714 362.871 44.6734 363.271 44.0715L322.045 -7.10608C318.19 -6.45641 314.718 -5.71091 311.243 -5.35951C309.875 -5.22015 309.286 -4.9222 308.763 -3.66302C305.243 4.74489 301.638 13.1263 298.065 21.5182C297.691 22.3928 297.324 23.2763 296.865 24.3742L296.864 24.3826ZM240.99 160.809L297.35 115.407L279.4 93.124C275.204 93.7398 271.487 94.2497 267.78 94.8832C267.244 94.9769 266.513 95.5879 266.292 96.1036C257.303 117.152 248.357 138.215 239.412 159.279C239.354 159.407 239.43 159.581 239.449 159.815C239.916 160.115 240.422 160.443 240.99 160.809ZM303.771 110.36L360.102 64.9819C359.823 64.287 359.546 63.6133 359.259 62.8966C352.528 64.1721 345.97 65.4118 339.414 66.6642C323.656 69.6695 307.89 72.6659 292.136 75.7265C291.355 75.877 290.226 76.4632 289.964 77.0864C288.495 80.5483 287.238 84.0826 285.756 87.9967L303.774 110.364L303.771 110.36ZM222.596 88.9439C222.671 89.7659 222.712 90.3063 222.775 90.8438C225.102 112.244 227.424 133.648 229.751 155.049C229.804 155.514 229.745 156.039 229.942 156.424C230.113 156.757 230.553 157.123 230.912 157.128C231.376 157.136 231.977 156.902 232.331 156.573C232.66 156.272 232.739 155.7 232.932 155.251C241.597 134.928 250.266 114.601 258.922 94.2774C259.197 93.6296 259.388 92.9468 259.39 92.9301L251.715 83.4025C242.35 85.1833 232.588 87.0411 222.596 88.9439ZM293.767 31.5971C289.771 40.9834 285.83 50.2459 282.154 58.8898L289.865 68.4619C290.062 68.4276 290.704 68.3447 291.338 68.2232C312.96 64.1045 334.589 59.9947 356.206 55.8206C357.048 55.657 357.826 54.8838 358.633 54.3876C357.995 53.8059 357.483 52.9397 356.71 52.6799C338.762 46.6131 320.782 40.6079 302.808 34.5987C299.855 33.6104 296.899 32.6389 293.767 31.5971ZM302.11 121.306L245.731 166.723C246.038 167.424 246.307 168.038 246.614 168.739C268.924 164.485 291.128 160.25 313.084 156.068C313.588 153.266 313.747 150.696 314.566 148.287C315.384 145.886 316.862 143.644 318.13 141.182L302.115 121.302L302.11 121.306ZM308.437 116.143L324.692 136.322C329.675 133.866 334.783 133.303 339.952 134.645C348.908 113.624 357.774 92.8223 366.652 71.9747C365.886 71.5036 365.319 71.1591 364.721 70.7958L308.429 116.142L308.437 116.143ZM214.683 16.5323C217.047 38.2484 219.386 59.7639 221.748 81.4967C231.515 79.635 241.1 77.8171 250.677 75.9393C251.06 75.8658 251.521 75.2592 251.691 74.8208C253.066 71.3235 254.372 67.8091 255.862 63.8743L216.994 15.6258C216.311 15.8967 215.638 16.1598 214.686 16.5368L214.683 16.5323ZM286.678 29.1913C265.812 22.2104 245.283 15.3478 224.727 8.47082C224.164 9.29133 223.757 9.88431 223.355 10.465L262.377 58.9051C266.741 58.0584 270.694 57.2921 275.067 56.4459C278.763 47.778 282.682 38.5859 286.683 29.1873L286.678 29.1913ZM218.312 -8.34307C214.509 -13.1237 207.151 -13.6363 201.993 -9.48067C196.907 -5.38398 195.784 1.78389 199.486 6.52861C203.115 11.1842 210.465 11.6962 215.636 7.65569C220.74 3.66179 221.977 -3.72343 218.312 -8.34307ZM339.635 161.344C344.708 157.242 345.83 149.994 342.107 145.332C338.388 140.676 331.075 140.178 325.953 144.231C320.764 148.338 319.623 155.733 323.455 160.41C327.236 165.024 334.561 165.445 339.635 161.344ZM170.655 104.945C175.827 100.757 176.968 93.3612 173.15 88.7617C169.35 84.1845 162.1 83.776 156.958 87.8523C151.918 91.8459 150.796 99.2044 154.517 103.853C158.234 108.497 165.653 108.996 170.655 104.945ZM320.511 -15.7732C325.514 -19.8326 326.567 -27.187 322.795 -31.7794C319.021 -36.3846 311.577 -36.8136 306.628 -32.7169C301.561 -28.5174 300.457 -21.3569 304.151 -16.7015C307.866 -12.0195 315.357 -11.5918 320.511 -15.7732ZM237.42 168.544C233.612 163.878 226.183 163.496 221.05 167.704C216.064 171.794 215.058 179.147 218.855 183.72C222.601 188.23 229.882 188.687 234.84 184.723C240.028 180.573 241.206 173.184 237.42 168.544ZM384.667 64.0277C389.699 60.0251 390.809 52.6616 387.083 48.0254C383.351 43.3932 375.926 42.8976 370.94 46.9582C365.847 51.1052 364.685 58.2536 368.331 62.9695C371.989 67.6903 379.459 68.1718 384.667 64.0277ZM261.458 83.4494C265.13 88.0567 272.507 88.5535 277.603 84.5295C282.655 80.5408 283.858 73.2128 280.227 68.536C276.568 63.8235 268.982 63.3179 263.905 67.4448C258.876 71.5323 257.766 78.8153 261.458 83.4494Z" fill="#17171A"/>
<path d="M1385.34 6.24786C1389.95 3.95967 1394.63 2.51027 1399.65 3.39399C1404.37 4.22519 1408.11 6.46935 1410.85 10.1254C1411.68 11.2274 1412.44 11.6516 1413.97 11.3568C1435.42 7.21523 1456.88 3.12451 1478.35 -0.914799C1479.83 -1.19152 1480.36 -1.73857 1480.66 -3.16011C1482.33 -11.1451 1488.37 -17.5284 1495.89 -19.39C1503.93 -21.3848 1511.7 -18.7965 1515.77 -12.7753C1520.16 -6.28131 1519.78 1.80943 1514.76 8.99324C1514.48 9.39511 1514.25 9.81693 1513.97 10.2697L1555.14 61.3759C1559.28 60.7693 1563.06 59.6537 1566.68 59.7859C1577.13 60.1643 1584.18 69.0094 1582.87 79.4476C1581.62 89.3903 1572.2 97.5411 1561.95 97.3783C1560.15 97.3466 1559.46 97.9602 1558.79 99.5447C1550.37 119.439 1541.91 139.308 1533.38 159.165C1532.7 160.741 1532.86 161.678 1533.9 162.886C1540.62 170.715 1538.89 183.071 1530.2 190.07C1521.51 197.068 1509.07 196.129 1502.85 187.899C1501.89 186.628 1501 186.277 1499.33 186.6C1478.03 190.722 1456.73 194.78 1435.42 198.783C1433.9 199.073 1433.25 199.567 1432.93 201.122C1431.34 208.939 1425.3 215.323 1417.88 217.241C1409.79 219.326 1401.87 216.716 1397.79 210.617C1393.48 204.179 1393.85 195.922 1398.74 189.053C1399.03 188.651 1399.28 188.222 1399.62 187.701L1357.89 135.899C1353.12 138.182 1348.26 138.934 1343.32 137.649C1334.47 135.345 1328.95 126.405 1330.92 117.434C1333.08 107.536 1341.71 100.357 1351.48 100.519C1353.34 100.55 1354.12 100.006 1354.85 98.2893C1363.22 78.4689 1371.66 58.6655 1380.15 38.8909C1380.85 37.2616 1380.78 36.2489 1379.66 34.9557C1373.85 28.2078 1374.31 18.0215 1380.61 10.5741C1380.92 10.2039 1381.17 9.78318 1381.44 9.38524C1382.74 8.33945 1384.04 7.29365 1385.34 6.24786ZM1400.05 105.979C1397.69 84.3097 1395.35 62.7221 1393 41.1469C1391.13 40.8739 1389.43 40.6283 1387.59 40.3574C1378.7 61.2336 1369.84 82.0359 1361.21 102.293L1368.95 111.897C1378.87 110.011 1389.34 108.019 1400.05 105.983L1400.05 105.979ZM1475.75 44.9964C1480.03 34.9377 1484.22 25.085 1488.15 15.8678L1480.41 6.26002C1458.66 10.4049 1436.45 14.6354 1414.27 18.8631C1414.14 20.8586 1414.04 22.5712 1413.93 24.318C1434.58 31.2259 1455.1 38.0885 1475.75 44.9964ZM1408.27 181.531C1405.8 158.808 1403.33 136.171 1400.86 113.423C1390.48 115.4 1380.48 117.285 1370.5 119.243C1369.95 119.353 1369.2 119.942 1369 120.45C1367.59 123.937 1366.3 127.461 1364.82 131.38L1406.05 182.562C1406.8 182.218 1407.46 181.916 1408.27 181.539L1408.27 181.531ZM1482.86 47.3826C1504.68 54.6808 1526.28 61.9065 1547.9 69.1378C1548.48 68.2714 1548.87 67.6734 1549.27 67.0715L1508.04 15.8939C1504.19 16.5436 1500.72 17.2891 1497.24 17.6405C1495.87 17.7799 1495.29 18.0778 1494.76 19.337C1491.24 27.7449 1487.64 36.1263 1484.06 44.5182C1483.69 45.3928 1483.32 46.2763 1482.86 47.3742L1482.86 47.3826ZM1426.99 183.809L1483.35 138.407L1465.4 116.124C1461.2 116.74 1457.49 117.25 1453.78 117.883C1453.24 117.977 1452.51 118.588 1452.29 119.104C1443.3 140.152 1434.36 161.215 1425.41 182.279C1425.35 182.407 1425.43 182.581 1425.45 182.815C1425.92 183.115 1426.42 183.443 1426.99 183.809ZM1489.77 133.36L1546.1 87.9819C1545.82 87.287 1545.55 86.6133 1545.26 85.8966C1538.53 87.1721 1531.97 88.4118 1525.41 89.6642C1509.66 92.6695 1493.89 95.6659 1478.14 98.7265C1477.36 98.877 1476.23 99.4632 1475.96 100.086C1474.5 103.548 1473.24 107.083 1471.76 110.997L1489.77 133.364L1489.77 133.36ZM1408.6 111.944C1408.67 112.766 1408.71 113.306 1408.77 113.844C1411.1 135.244 1413.42 156.648 1415.75 178.049C1415.8 178.514 1415.74 179.039 1415.94 179.424C1416.11 179.757 1416.55 180.123 1416.91 180.128C1417.38 180.136 1417.98 179.902 1418.33 179.573C1418.66 179.272 1418.74 178.7 1418.93 178.251C1427.6 157.928 1436.27 137.601 1444.92 117.277C1445.2 116.63 1445.39 115.947 1445.39 115.93L1437.72 106.403C1428.35 108.183 1418.59 110.041 1408.6 111.944ZM1479.77 54.5971C1475.77 63.9834 1471.83 73.2459 1468.15 81.8898L1475.86 91.4619C1476.06 91.4276 1476.7 91.3447 1477.34 91.2232C1498.96 87.1045 1520.59 82.9947 1542.21 78.8206C1543.05 78.657 1543.83 77.8838 1544.63 77.3876C1544 76.8059 1543.48 75.9397 1542.71 75.6799C1524.76 69.6131 1506.78 63.6079 1488.81 57.5987C1485.85 56.6104 1482.9 55.6389 1479.77 54.5971ZM1488.11 144.306L1431.73 189.723C1432.04 190.424 1432.31 191.038 1432.61 191.739C1454.92 187.485 1477.13 183.25 1499.08 179.068C1499.59 176.266 1499.75 173.696 1500.57 171.287C1501.38 168.886 1502.86 166.644 1504.13 164.182L1488.12 144.302L1488.11 144.306ZM1494.44 139.143L1510.69 159.322C1515.68 156.866 1520.78 156.303 1525.95 157.645C1534.91 136.624 1543.77 115.822 1552.65 94.9747C1551.89 94.5036 1551.32 94.1591 1550.72 93.7958L1494.43 139.142L1494.44 139.143ZM1400.68 39.5323C1403.05 61.2484 1405.39 82.7639 1407.75 104.497C1417.51 102.635 1427.1 100.817 1436.68 98.9393C1437.06 98.8658 1437.52 98.2592 1437.69 97.8208C1439.07 94.3235 1440.37 90.8091 1441.86 86.8743L1402.99 38.6258C1402.31 38.8967 1401.64 39.1598 1400.69 39.5368L1400.68 39.5323ZM1472.68 52.1913C1451.81 45.2104 1431.28 38.3478 1410.73 31.4708C1410.16 32.2913 1409.76 32.8843 1409.36 33.465L1448.38 81.9051C1452.74 81.0584 1456.69 80.2921 1461.07 79.4459C1464.76 70.778 1468.68 61.5859 1472.68 52.1873L1472.68 52.1913ZM1404.31 14.6569C1400.51 9.87627 1393.15 9.36367 1387.99 13.5193C1382.91 17.616 1381.78 24.7839 1385.49 29.5286C1389.12 34.1842 1396.47 34.6962 1401.64 30.6557C1406.74 26.6618 1407.98 19.2766 1404.31 14.6569ZM1525.63 184.344C1530.71 180.242 1531.83 172.994 1528.11 168.332C1524.39 163.676 1517.07 163.178 1511.95 167.231C1506.76 171.338 1505.62 178.733 1509.45 183.41C1513.24 188.024 1520.56 188.445 1525.63 184.344ZM1356.65 127.945C1361.83 123.757 1362.97 116.361 1359.15 111.762C1355.35 107.185 1348.1 106.776 1342.96 110.852C1337.92 114.846 1336.8 122.204 1340.52 126.853C1344.23 131.497 1351.65 131.996 1356.65 127.945ZM1506.51 7.22684C1511.51 3.16737 1512.57 -4.18696 1508.79 -8.77936C1505.02 -13.3846 1497.58 -13.8136 1492.63 -9.71686C1487.56 -5.51739 1486.46 1.64314 1490.15 6.29845C1493.87 10.9805 1501.36 11.4082 1506.51 7.22684ZM1423.42 191.544C1419.61 186.878 1412.18 186.496 1407.05 190.704C1402.06 194.794 1401.06 202.147 1404.85 206.72C1408.6 211.23 1415.88 211.687 1420.84 207.723C1426.03 203.573 1427.21 196.184 1423.42 191.544ZM1570.67 87.0277C1575.7 83.0251 1576.81 75.6616 1573.08 71.0254C1569.35 66.3932 1561.93 65.8976 1556.94 69.9582C1551.85 74.1052 1550.68 81.2536 1554.33 85.9695C1557.99 90.6903 1565.46 91.1718 1570.67 87.0277ZM1447.46 106.449C1451.13 111.057 1458.51 111.554 1463.6 107.529C1468.65 103.541 1469.86 96.2128 1466.23 91.536C1462.57 86.8235 1454.98 86.3179 1449.9 90.4448C1444.88 94.5323 1443.77 101.815 1447.46 106.449Z" fill="#17171A"/>
<path d="M-23.5445 263.943C-17.5295 260.958 -11.4205 259.068 -4.87527 260.221C1.2788 261.305 6.15667 264.232 9.73624 269.002C10.8208 270.439 11.8125 270.993 13.8018 270.608C41.7945 265.205 69.7882 259.869 97.7939 254.6C99.7182 254.239 100.414 253.525 100.799 251.671C102.979 241.254 110.864 232.927 120.676 230.499C131.157 227.896 141.299 231.273 146.608 239.127C152.33 247.599 151.835 258.153 145.286 267.525C144.92 268.049 144.618 268.599 144.254 269.19L197.96 335.858C203.359 335.067 208.297 333.612 213.023 333.784C226.649 334.278 235.849 345.816 234.136 359.433C232.512 372.403 220.217 383.036 206.85 382.824C204.497 382.782 203.598 383.583 202.723 385.65C191.745 411.602 180.701 437.521 169.58 463.426C168.695 465.481 168.903 466.704 170.257 468.28C179.019 478.493 176.761 494.611 165.428 503.74C154.095 512.87 137.865 511.645 129.752 500.909C128.5 499.251 127.344 498.792 125.153 499.214C97.371 504.591 69.5847 509.885 41.7927 515.107C39.7987 515.486 38.9523 516.129 38.54 518.159C36.4658 528.355 28.5923 536.683 18.9026 539.185C8.35939 541.905 -1.97362 538.501 -7.30078 530.545C-12.9224 522.146 -12.4447 511.375 -6.05814 502.414C-5.68204 501.89 -5.35615 501.33 -4.91697 500.65L-59.3536 433.075C-65.5739 436.052 -71.9114 437.034 -78.3538 435.357C-89.9085 432.351 -97.0985 420.689 -94.5363 408.987C-91.7102 396.075 -80.4527 386.709 -67.7156 386.921C-65.2895 386.961 -64.2656 386.252 -63.319 384.012C-52.4011 358.156 -41.3917 332.323 -30.3101 306.527C-29.3977 304.401 -29.496 303.08 -30.9495 301.393C-38.5341 292.59 -37.9319 279.302 -29.7169 269.587C-29.308 269.104 -28.9838 268.555 -28.6251 268.036C-26.9316 266.672 -25.2381 265.308 -23.5445 263.943ZM-4.35365 394.043C-7.43034 365.776 -10.4843 337.615 -13.5464 309.469C-15.9853 309.113 -18.2066 308.793 -20.6014 308.44C-32.2051 335.673 -43.7605 362.809 -55.0171 389.236L-44.9253 401.763C-31.9785 399.303 -18.3244 396.705 -4.34897 394.049L-4.35365 394.043ZM94.3997 314.491C99.986 301.37 105.453 288.517 110.569 276.493L100.473 263.959C72.1058 269.366 43.1357 274.885 14.1941 280.4C14.034 283.003 13.8916 285.237 13.7535 287.516C40.6865 296.527 67.4667 305.48 94.3997 314.491ZM6.37247 492.601C3.14427 462.96 -0.0676038 433.43 -3.30182 403.755C-16.8357 406.333 -29.8773 408.793 -42.9055 411.347C-43.6193 411.49 -44.5964 412.258 -44.86 412.921C-46.6969 417.47 -48.3794 422.067 -50.3084 427.179L3.47693 493.946C4.44948 493.498 5.3078 493.104 6.3708 492.612L6.37247 492.601ZM103.679 317.604C132.134 327.125 160.315 336.551 188.522 345.984C189.27 344.854 189.786 344.074 190.308 343.288L136.527 276.527C131.499 277.374 126.97 278.347 122.437 278.805C120.652 278.987 119.884 279.376 119.202 281.018C114.61 291.986 109.907 302.92 105.246 313.867C104.758 315.008 104.28 316.161 103.68 317.593L103.679 317.604ZM30.7913 495.573L104.314 436.346L80.8973 407.278C75.4239 408.081 70.5742 408.746 65.7388 409.573C65.0394 409.695 64.0858 410.492 63.7983 411.165C52.0709 438.622 40.4017 466.1 28.7325 493.577C28.6567 493.744 28.7557 493.971 28.7813 494.277C29.3906 494.668 30.0501 495.096 30.7913 495.573ZM112.689 429.762L186.173 370.566C185.81 369.66 185.449 368.781 185.074 367.846C176.294 369.51 167.739 371.127 159.186 372.761C138.629 376.681 118.062 380.59 97.5108 384.582C96.4932 384.779 95.0201 385.544 94.6776 386.357C92.762 390.873 91.122 395.483 89.1883 400.589L112.694 429.768L112.689 429.762ZM6.79646 401.825C6.89391 402.897 6.94739 403.602 7.02933 404.303C10.0651 432.22 13.0944 460.142 16.1301 488.059C16.1987 488.666 16.1213 489.351 16.3788 489.854C16.6023 490.287 17.176 490.765 17.6436 490.772C18.2501 490.782 19.0333 490.477 19.4955 490.047C19.9241 489.654 20.0273 488.909 20.2792 488.323C31.5824 461.811 42.8919 435.295 54.184 408.782C54.5426 407.937 54.791 407.047 54.7944 407.025L44.7822 394.596C32.565 396.919 19.8303 399.343 6.79646 401.825ZM99.6385 327.015C94.4268 339.26 89.2846 351.343 84.4894 362.619L94.5484 375.106C94.8063 375.061 95.643 374.953 96.4707 374.794C124.676 369.422 152.891 364.06 181.092 358.615C182.19 358.402 183.204 357.393 184.257 356.746C183.426 355.987 182.757 354.857 181.749 354.518C158.335 346.604 134.881 338.77 111.433 330.931C107.581 329.642 103.725 328.374 99.6385 327.015ZM110.523 444.041L36.9754 503.289C37.376 504.203 37.7272 505.004 38.1278 505.918C67.2309 500.369 96.1963 494.844 124.839 489.388C125.495 485.733 125.703 482.382 126.772 479.238C127.839 476.106 129.767 473.182 131.42 469.97L110.529 444.036L110.523 444.041ZM118.777 437.306L139.982 463.629C146.482 460.426 153.144 459.691 159.888 461.442C171.571 434.02 183.137 406.884 194.718 379.688C193.719 379.074 192.979 378.624 192.199 378.15L118.766 437.305L118.777 437.306ZM-3.527 307.363C-0.442982 335.692 2.60871 363.759 5.68937 392.11C18.4305 389.681 30.934 387.31 43.4273 384.86C43.9274 384.764 44.5287 383.973 44.7505 383.401C46.5448 378.839 48.2478 374.254 50.1912 369.121L-0.511344 306.181C-1.40245 306.534 -2.2808 306.877 -3.52232 307.369L-3.527 307.363ZM90.3915 323.877C63.1719 314.77 36.3916 305.818 9.57523 296.847C8.84176 297.917 8.31008 298.691 7.78646 299.448L58.6905 362.639C64.3831 361.534 69.5408 360.535 75.2444 359.431C80.0667 348.123 85.1781 336.132 90.3978 323.872L90.3915 323.877ZM1.20754 274.913C-3.75331 268.677 -13.3519 268.008 -20.0815 273.429C-26.7155 278.773 -28.18 288.124 -23.3515 294.313C-18.6166 300.387 -9.02903 301.055 -2.28349 295.784C4.3746 290.574 5.98866 280.939 1.20754 274.913ZM159.474 496.271C166.092 490.92 167.556 481.465 162.7 475.384C157.848 469.309 148.307 468.661 141.627 473.947C134.856 479.304 133.369 488.952 138.367 495.052C143.3 501.072 152.855 501.622 159.474 496.271ZM-60.9616 422.699C-54.2143 417.235 -52.7265 407.587 -57.7069 401.587C-62.6639 395.616 -72.1216 395.083 -78.8297 400.401C-85.404 405.61 -86.8677 415.21 -82.0142 421.274C-77.1655 427.332 -67.4861 427.983 -60.9616 422.699ZM134.527 265.22C141.053 259.925 142.427 250.331 137.506 244.34C132.583 238.333 122.872 237.773 116.417 243.117C109.807 248.596 108.366 257.937 113.185 264.009C118.031 270.117 127.803 270.675 134.527 265.22ZM26.1336 505.664C21.1667 499.576 11.4748 499.079 4.77939 504.568C-1.72505 509.904 -3.037 519.496 1.91531 525.461C6.80202 531.345 16.3002 531.941 22.7684 526.769C29.5358 521.356 31.0725 511.717 26.1336 505.664ZM218.219 369.321C224.784 364.1 226.232 354.494 221.37 348.446C216.502 342.403 206.816 341.757 200.312 347.054C193.668 352.464 192.152 361.789 196.908 367.941C201.68 374.099 211.424 374.727 218.219 369.321ZM57.4923 394.657C62.2814 400.667 71.9055 401.316 78.5529 396.066C85.143 390.863 86.7121 381.303 81.9759 375.202C77.2023 369.055 67.3066 368.395 60.6832 373.779C54.1235 379.111 52.675 388.612 57.4923 394.657Z" fill="#17171A"/>
<path d="M1162.46 286.943C1168.47 283.958 1174.58 282.068 1181.12 283.221C1187.28 284.305 1192.16 287.232 1195.74 292.002C1196.82 293.439 1197.81 293.993 1199.8 293.608C1227.79 288.205 1255.79 282.869 1283.79 277.6C1285.72 277.239 1286.41 276.525 1286.8 274.671C1288.98 264.254 1296.86 255.927 1306.68 253.499C1317.16 250.896 1327.3 254.273 1332.61 262.127C1338.33 270.599 1337.84 281.153 1331.29 290.525C1330.92 291.049 1330.62 291.599 1330.25 292.19L1383.96 358.858C1389.36 358.067 1394.3 356.612 1399.02 356.784C1412.65 357.278 1421.85 368.816 1420.14 382.433C1418.51 395.403 1406.22 406.036 1392.85 405.824C1390.5 405.782 1389.6 406.583 1388.72 408.65C1377.75 434.602 1366.7 460.521 1355.58 486.426C1354.7 488.481 1354.9 489.704 1356.26 491.28C1365.02 501.493 1362.76 517.611 1351.43 526.74C1340.1 535.87 1323.87 534.645 1315.75 523.909C1314.5 522.251 1313.34 521.792 1311.15 522.214C1283.37 527.591 1255.58 532.885 1227.79 538.107C1225.8 538.486 1224.95 539.129 1224.54 541.159C1222.47 551.355 1214.59 559.683 1204.9 562.185C1194.36 564.905 1184.03 561.501 1178.7 553.545C1173.08 545.146 1173.56 534.375 1179.94 525.414C1180.32 524.89 1180.64 524.33 1181.08 523.65L1126.65 456.075C1120.43 459.052 1114.09 460.034 1107.65 458.357C1096.09 455.351 1088.9 443.689 1091.46 431.987C1094.29 419.075 1105.55 409.709 1118.28 409.921C1120.71 409.961 1121.73 409.252 1122.68 407.012C1133.6 381.156 1144.61 355.323 1155.69 329.527C1156.6 327.401 1156.5 326.08 1155.05 324.393C1147.47 315.59 1148.07 302.302 1156.28 292.587C1156.69 292.104 1157.02 291.555 1157.37 291.036C1159.07 289.672 1160.76 288.308 1162.46 286.943ZM1181.65 417.043C1178.57 388.776 1175.52 360.615 1172.45 332.469C1170.01 332.113 1167.79 331.793 1165.4 331.44C1153.79 358.673 1142.24 385.809 1130.98 412.236L1141.07 424.763C1154.02 422.303 1167.68 419.705 1181.65 417.049L1181.65 417.043ZM1280.4 337.491C1285.99 324.37 1291.45 311.517 1296.57 299.493L1286.47 286.959C1258.11 292.366 1229.14 297.885 1200.19 303.4C1200.03 306.003 1199.89 308.237 1199.75 310.516C1226.69 319.527 1253.47 328.48 1280.4 337.491ZM1192.37 515.601C1189.14 485.96 1185.93 456.43 1182.7 426.755C1169.16 429.333 1156.12 431.793 1143.09 434.347C1142.38 434.49 1141.4 435.258 1141.14 435.921C1139.3 440.47 1137.62 445.067 1135.69 450.179L1189.48 516.946C1190.45 516.498 1191.31 516.104 1192.37 515.612L1192.37 515.601ZM1289.68 340.604C1318.13 350.125 1346.31 359.551 1374.52 368.984C1375.27 367.854 1375.79 367.074 1376.31 366.288L1322.53 299.527C1317.5 300.374 1312.97 301.347 1308.44 301.805C1306.65 301.987 1305.88 302.376 1305.2 304.018C1300.61 314.986 1295.91 325.92 1291.25 336.867C1290.76 338.008 1290.28 339.161 1289.68 340.593L1289.68 340.604ZM1216.79 518.573L1290.31 459.346L1266.9 430.278C1261.42 431.081 1256.57 431.746 1251.74 432.573C1251.04 432.695 1250.09 433.492 1249.8 434.165C1238.07 461.622 1226.4 489.1 1214.73 516.577C1214.66 516.744 1214.76 516.971 1214.78 517.277C1215.39 517.668 1216.05 518.096 1216.79 518.573ZM1298.69 452.762L1372.17 393.566C1371.81 392.66 1371.45 391.781 1371.07 390.846C1362.29 392.51 1353.74 394.127 1345.19 395.761C1324.63 399.681 1304.06 403.59 1283.51 407.582C1282.49 407.779 1281.02 408.544 1280.68 409.357C1278.76 413.873 1277.12 418.483 1275.19 423.589L1298.69 452.768L1298.69 452.762ZM1192.8 424.825C1192.89 425.897 1192.95 426.602 1193.03 427.303C1196.07 455.22 1199.09 483.142 1202.13 511.059C1202.2 511.666 1202.12 512.351 1202.38 512.854C1202.6 513.287 1203.18 513.765 1203.64 513.772C1204.25 513.782 1205.03 513.477 1205.5 513.047C1205.92 512.654 1206.03 511.909 1206.28 511.323C1217.58 484.811 1228.89 458.295 1240.18 431.782C1240.54 430.937 1240.79 430.047 1240.79 430.025L1230.78 417.596C1218.57 419.919 1205.83 422.343 1192.8 424.825ZM1285.64 350.015C1280.43 362.26 1275.28 374.343 1270.49 385.619L1280.55 398.106C1280.81 398.061 1281.64 397.953 1282.47 397.794C1310.68 392.422 1338.89 387.06 1367.09 381.615C1368.19 381.402 1369.2 380.393 1370.26 379.746C1369.43 378.987 1368.76 377.857 1367.75 377.518C1344.33 369.604 1320.88 361.77 1297.43 353.931C1293.58 352.642 1289.73 351.374 1285.64 350.015ZM1296.52 467.041L1222.98 526.289C1223.38 527.203 1223.73 528.004 1224.13 528.918C1253.23 523.369 1282.2 517.844 1310.84 512.388C1311.5 508.733 1311.7 505.382 1312.77 502.238C1313.84 499.106 1315.77 496.182 1317.42 492.97L1296.53 467.036L1296.52 467.041ZM1304.78 460.306L1325.98 486.629C1332.48 483.426 1339.14 482.691 1345.89 484.442C1357.57 457.02 1369.14 429.884 1380.72 402.688C1379.72 402.074 1378.98 401.624 1378.2 401.15L1304.77 460.305L1304.78 460.306ZM1182.47 330.363C1185.56 358.692 1188.61 386.759 1191.69 415.11C1204.43 412.681 1216.93 410.31 1229.43 407.86C1229.93 407.764 1230.53 406.973 1230.75 406.401C1232.54 401.839 1234.25 397.254 1236.19 392.121L1185.49 329.181C1184.6 329.534 1183.72 329.877 1182.48 330.369L1182.47 330.363ZM1276.39 346.877C1249.17 337.77 1222.39 328.818 1195.58 319.847C1194.84 320.917 1194.31 321.691 1193.79 322.448L1244.69 385.639C1250.38 384.534 1255.54 383.535 1261.24 382.431C1266.07 371.123 1271.18 359.132 1276.4 346.872L1276.39 346.877ZM1187.21 297.913C1182.25 291.677 1172.65 291.008 1165.92 296.429C1159.28 301.773 1157.82 311.124 1162.65 317.313C1167.38 323.387 1176.97 324.055 1183.72 318.784C1190.37 313.574 1191.99 303.939 1187.21 297.913ZM1345.47 519.271C1352.09 513.92 1353.56 504.465 1348.7 498.384C1343.85 492.309 1334.31 491.661 1327.63 496.947C1320.86 502.304 1319.37 511.952 1324.37 518.052C1329.3 524.072 1338.86 524.622 1345.47 519.271ZM1125.04 445.699C1131.79 440.235 1133.27 430.587 1128.29 424.587C1123.34 418.616 1113.88 418.083 1107.17 423.401C1100.6 428.61 1099.13 438.21 1103.99 444.274C1108.83 450.332 1118.51 450.983 1125.04 445.699ZM1320.53 288.22C1327.05 282.925 1328.43 273.331 1323.51 267.34C1318.58 261.333 1308.87 260.773 1302.42 266.117C1295.81 271.596 1294.37 280.937 1299.18 287.009C1304.03 293.117 1313.8 293.675 1320.53 288.22ZM1212.13 528.664C1207.17 522.576 1197.47 522.079 1190.78 527.568C1184.27 532.904 1182.96 542.496 1187.92 548.461C1192.8 554.345 1202.3 554.941 1208.77 549.769C1215.54 544.356 1217.07 534.717 1212.13 528.664ZM1404.22 392.321C1410.78 387.1 1412.23 377.494 1407.37 371.446C1402.5 365.403 1392.82 364.757 1386.31 370.054C1379.67 375.464 1378.15 384.789 1382.91 390.941C1387.68 397.099 1397.42 397.727 1404.22 392.321ZM1243.49 417.657C1248.28 423.667 1257.91 424.316 1264.55 419.066C1271.14 413.863 1272.71 404.303 1267.98 398.202C1263.2 392.055 1253.31 391.395 1246.68 396.779C1240.12 402.111 1238.67 411.612 1243.49 417.657Z" fill="#17171A"/>
<path d="M267.77 548.01C270.71 541.094 274.528 535.039 280.932 531.254C286.953 527.696 293.231 526.634 299.747 528.083C301.715 528.516 302.961 528.264 304.372 526.489C324.238 501.518 344.153 476.602 364.127 451.735C365.5 450.027 365.572 448.914 364.549 447.057C358.82 436.614 359.462 423.795 366.036 414.587C373.052 404.745 384.132 400.232 394.364 403.045C405.396 406.082 412.659 415.415 413.912 428.151C413.984 428.862 414.127 429.55 414.248 430.317L508.44 447.901C512.454 443.297 515.593 438.466 519.736 435.171C531.68 425.672 547.902 428.784 556.358 441.608C564.419 453.817 561.707 471.807 550.188 481.358C548.157 483.036 547.976 484.37 548.736 486.765C558.296 516.82 567.775 546.897 577.178 577.015C577.922 579.407 578.989 580.295 581.287 580.649C596.172 582.953 605.985 598.301 602.996 614.313C600.007 630.324 585.317 641.098 570.604 637.876C568.333 637.378 567.016 637.83 565.461 639.783C545.755 664.58 525.986 689.308 506.159 713.98C504.739 715.753 504.488 716.917 505.615 718.942C511.275 729.121 510.643 741.933 504.227 751.114C497.243 761.102 485.98 765.729 475.66 762.844C464.766 759.796 457.331 750.291 456.237 738.022C456.175 737.303 456.045 736.59 455.923 735.693L360.449 717.87C357.328 724.93 352.655 730.378 345.957 733.642C333.945 739.498 319.343 734.817 313.002 723.003C306.005 709.968 308.758 693.81 319.741 684.718C321.833 682.987 322.187 681.638 321.362 679.045C311.821 649.115 302.375 619.137 293.017 589.138C292.246 586.667 291.2 585.616 288.737 585.24C275.88 583.277 266.719 571.542 266.63 557.301C266.627 556.593 266.503 555.891 266.43 555.188C266.876 552.795 267.323 550.403 267.77 548.01ZM378.795 644.648C355.601 622.855 332.504 601.136 309.412 579.437C307.079 580.91 304.957 582.254 302.664 583.697C312.624 615.297 322.555 646.78 332.222 677.442L349.922 680.746C359.138 669.23 368.855 657.081 378.803 644.649L378.795 644.648ZM404.841 505.124C400.038 489.902 395.329 474.995 390.926 461.047L373.218 457.742C353.037 482.989 332.425 508.771 311.834 534.528C313.593 536.858 315.099 538.861 316.64 540.899C346.098 528.954 375.383 517.069 404.841 505.124ZM459.662 720.631C435.339 697.781 411.111 675.013 386.759 652.138C377.129 664.183 367.832 675.768 358.616 687.423C358.113 688.065 357.842 689.429 358.1 690.185C359.85 695.389 361.766 700.522 363.847 706.273L458.179 723.882C458.68 722.793 459.123 721.834 459.669 720.642L459.662 720.631ZM414.995 501.016C446.119 488.395 476.939 475.894 507.787 463.38C507.6 461.874 507.471 460.835 507.344 459.788L413.02 442.18C409.362 446.561 406.219 450.684 402.699 454.374C401.313 455.828 400.943 456.718 401.559 458.611C405.64 471.278 409.601 483.998 413.608 496.698C414.024 498.023 414.456 499.351 414.989 501.005L414.995 501.016ZM482.585 705.381L501.977 601.505L460.908 593.839C456.839 598.506 453.2 602.602 449.691 606.825C449.185 607.438 448.955 608.809 449.2 609.591C459.218 641.472 469.3 673.327 479.383 705.183C479.439 705.38 479.689 705.501 479.933 705.742C480.736 705.631 481.608 705.515 482.585 705.381ZM504.304 589.811L523.685 485.989C522.717 485.482 521.77 484.998 520.77 484.477C514.517 492.283 508.421 499.886 502.34 507.5C487.716 525.799 473.077 544.094 458.51 562.449C457.788 563.357 457.093 565.08 457.393 566.02C459.052 571.254 461.014 576.368 463.087 582.116L504.313 589.812L504.304 589.811ZM393.939 643.146C394.803 643.987 395.361 644.547 395.941 645.084C418.845 666.608 441.747 688.142 464.651 709.666C465.151 710.132 465.584 710.771 466.169 711.011C466.675 711.217 467.51 711.205 467.913 710.871C468.436 710.438 468.88 709.608 468.96 708.906C469.038 708.26 468.583 707.552 468.37 706.87C458.68 676.102 448.992 645.325 439.292 614.564C438.982 613.585 438.544 612.647 438.531 612.626L420.971 609.348C412.276 620.217 403.213 631.547 393.939 643.146ZM418.412 511.958C422.895 526.162 427.319 540.178 431.451 553.256L449.093 556.549C449.28 556.323 449.912 555.622 450.501 554.885C470.569 529.784 490.654 504.686 510.665 479.528C511.444 478.547 511.572 476.951 511.996 475.634C510.736 475.594 509.345 475.12 508.242 475.566C482.574 485.882 456.931 496.296 431.29 506.701C427.076 508.409 422.876 510.138 418.412 511.958ZM512.858 603.527L493.46 707.439C494.466 707.925 495.348 708.35 496.354 708.835C517.057 682.931 537.661 657.148 558.04 631.659C555.937 628.073 553.674 625.072 552.295 621.622C550.922 618.182 550.432 614.293 549.499 610.358L512.859 603.518L512.858 603.527ZM514.972 591.793L552.162 598.735C555.357 591.28 560.486 585.805 567.494 582.384C557.464 550.566 547.543 519.076 537.591 487.524C536.295 487.728 535.338 487.885 534.33 488.05L514.962 591.8L514.972 591.793ZM316.397 570.352C339.641 592.192 362.668 613.832 385.926 635.693C394.99 624.353 403.894 613.234 412.732 602.057C413.087 601.611 413.023 600.501 412.795 599.853C410.999 594.668 409.11 589.531 407.025 583.752L318.1 567.152C317.599 568.101 317.102 569.032 316.405 570.354L316.397 570.352ZM408.266 516.022C378.495 528.094 349.21 539.979 319.88 551.874C320.036 553.318 320.147 554.362 320.253 555.387L409.532 572.054C413.568 566.971 417.225 562.366 421.27 557.275C417.139 544.152 412.755 530.236 408.267 516.013L408.266 516.022ZM296.799 539.317C288.041 537.627 279.394 544.046 277.619 553.554C275.87 562.927 281.431 571.942 290.042 573.689C298.489 575.406 307.126 568.994 309.024 559.602C310.892 550.326 305.251 540.96 296.799 539.317ZM592.497 612.297C594.228 602.93 588.589 593.825 580.034 592.191C571.487 590.558 562.904 596.952 561.072 606.309C559.216 615.793 564.974 625.078 573.665 626.626C582.241 628.152 590.765 621.664 592.497 612.297ZM351.529 710.219C353.287 700.662 347.529 691.377 338.927 689.901C330.366 688.433 321.937 694.865 320.105 704.269C318.308 713.484 324.052 722.711 332.593 724.333C341.125 725.954 349.829 719.462 351.529 710.219ZM403.088 434.024C404.781 424.771 398.965 415.614 390.421 414.103C381.861 412.58 373.199 419.173 371.601 428.416C369.969 437.885 375.544 446.875 384.062 448.531C392.629 450.195 401.343 443.556 403.088 434.024ZM485.972 717.351C477.317 715.791 468.715 722.423 467.019 731.965C465.373 741.236 471.241 750.346 479.794 751.812C488.231 753.257 496.741 746.849 498.474 737.744C500.287 728.215 494.577 718.901 485.972 717.351ZM550.024 461.602C551.804 452.384 546.042 443.163 537.506 441.561C528.969 439.967 520.264 446.468 518.59 455.706C516.88 465.142 522.379 474.174 530.901 475.942C539.441 477.704 548.183 471.144 550.024 461.602ZM431.822 600.147C440.269 601.77 448.923 595.315 450.753 586.013C452.568 576.792 446.943 567.523 438.475 565.784C429.941 564.032 421.048 570.675 419.336 580.074C417.641 589.383 423.325 598.514 431.822 600.147Z" fill="#17171A"/>
<path d="M1453.77 571.01C1456.71 564.094 1460.53 558.039 1466.93 554.254C1472.95 550.696 1479.23 549.634 1485.75 551.083C1487.72 551.516 1488.96 551.264 1490.37 549.489C1510.24 524.518 1530.15 499.602 1550.13 474.735C1551.5 473.027 1551.57 471.914 1550.55 470.057C1544.82 459.614 1545.46 446.795 1552.04 437.587C1559.05 427.745 1570.13 423.232 1580.36 426.045C1591.4 429.082 1598.66 438.415 1599.91 451.151C1599.98 451.862 1600.13 452.55 1600.25 453.317L1694.44 470.901C1698.45 466.297 1701.59 461.466 1705.74 458.171C1717.68 448.672 1733.9 451.784 1742.36 464.608C1750.42 476.817 1747.71 494.807 1736.19 504.358C1734.16 506.036 1733.98 507.37 1734.74 509.765C1744.3 539.82 1753.77 569.897 1763.18 600.015C1763.92 602.407 1764.99 603.295 1767.29 603.649C1782.17 605.953 1791.99 621.301 1789 637.313C1786.01 653.324 1771.32 664.098 1756.6 660.876C1754.33 660.378 1753.02 660.83 1751.46 662.783C1731.76 687.58 1711.99 712.308 1692.16 736.98C1690.74 738.753 1690.49 739.917 1691.62 741.942C1697.27 752.121 1696.64 764.933 1690.23 774.114C1683.24 784.102 1671.98 788.729 1661.66 785.844C1650.77 782.796 1643.33 773.291 1642.24 761.022C1642.18 760.303 1642.05 759.59 1641.92 758.693L1546.45 740.87C1543.33 747.93 1538.65 753.378 1531.96 756.642C1519.95 762.498 1505.34 757.817 1499 746.003C1492.01 732.968 1494.76 716.81 1505.74 707.718C1507.83 705.987 1508.19 704.638 1507.36 702.045C1497.82 672.115 1488.37 642.137 1479.02 612.138C1478.25 609.667 1477.2 608.616 1474.74 608.24C1461.88 606.277 1452.72 594.542 1452.63 580.301C1452.63 579.593 1452.5 578.891 1452.43 578.188C1452.88 575.795 1453.32 573.403 1453.77 571.01ZM1564.79 667.648C1541.6 645.855 1518.5 624.136 1495.41 602.437C1493.08 603.91 1490.96 605.254 1488.66 606.697C1498.62 638.297 1508.55 669.78 1518.22 700.442L1535.92 703.746C1545.14 692.23 1554.85 680.081 1564.8 667.649L1564.79 667.648ZM1590.84 528.124C1586.04 512.902 1581.33 497.995 1576.93 484.047L1559.22 480.742C1539.04 505.989 1518.42 531.771 1497.83 557.528C1499.59 559.858 1501.1 561.861 1502.64 563.899C1532.1 551.954 1561.38 540.069 1590.84 528.124ZM1645.66 743.631C1621.34 720.781 1597.11 698.013 1572.76 675.138C1563.13 687.183 1553.83 698.768 1544.62 710.423C1544.11 711.065 1543.84 712.429 1544.1 713.185C1545.85 718.389 1547.77 723.522 1549.85 729.273L1644.18 746.882C1644.68 745.793 1645.12 744.834 1645.67 743.642L1645.66 743.631ZM1601 524.016C1632.12 511.395 1662.94 498.894 1693.79 486.38C1693.6 484.874 1693.47 483.835 1693.34 482.788L1599.02 465.18C1595.36 469.561 1592.22 473.684 1588.7 477.374C1587.31 478.828 1586.94 479.718 1587.56 481.611C1591.64 494.278 1595.6 506.998 1599.61 519.698C1600.02 521.023 1600.46 522.351 1600.99 524.005L1601 524.016ZM1668.59 728.381L1687.98 624.505L1646.91 616.839C1642.84 621.506 1639.2 625.602 1635.69 629.825C1635.19 630.438 1634.95 631.809 1635.2 632.591C1645.22 664.472 1655.3 696.327 1665.38 728.183C1665.44 728.38 1665.69 728.501 1665.93 728.742C1666.74 728.631 1667.61 728.515 1668.59 728.381ZM1690.3 612.811L1709.69 508.989C1708.72 508.482 1707.77 507.998 1706.77 507.477C1700.52 515.283 1694.42 522.886 1688.34 530.5C1673.72 548.799 1659.08 567.094 1644.51 585.449C1643.79 586.357 1643.09 588.08 1643.39 589.02C1645.05 594.254 1647.01 599.368 1649.09 605.116L1690.31 612.812L1690.3 612.811ZM1579.94 666.146C1580.8 666.987 1581.36 667.547 1581.94 668.084C1604.85 689.608 1627.75 711.142 1650.65 732.666C1651.15 733.132 1651.58 733.771 1652.17 734.011C1652.67 734.217 1653.51 734.205 1653.91 733.871C1654.44 733.438 1654.88 732.608 1654.96 731.906C1655.04 731.26 1654.58 730.552 1654.37 729.87C1644.68 699.102 1634.99 668.325 1625.29 637.564C1624.98 636.585 1624.54 635.647 1624.53 635.626L1606.97 632.348C1598.28 643.217 1589.21 654.547 1579.94 666.146ZM1604.41 534.958C1608.89 549.162 1613.32 563.178 1617.45 576.256L1635.09 579.549C1635.28 579.323 1635.91 578.622 1636.5 577.885C1656.57 552.784 1676.65 527.686 1696.67 502.528C1697.44 501.547 1697.57 499.951 1698 498.634C1696.74 498.594 1695.35 498.12 1694.24 498.566C1668.57 508.882 1642.93 519.296 1617.29 529.701C1613.08 531.409 1608.88 533.138 1604.41 534.958ZM1698.86 626.527L1679.46 730.439C1680.47 730.925 1681.35 731.35 1682.35 731.835C1703.06 705.931 1723.66 680.148 1744.04 654.659C1741.94 651.073 1739.67 648.072 1738.29 644.622C1736.92 641.182 1736.43 637.293 1735.5 633.358L1698.86 626.518L1698.86 626.527ZM1700.97 614.793L1738.16 621.735C1741.36 614.28 1746.49 608.805 1753.49 605.384C1743.46 573.566 1733.54 542.076 1723.59 510.524C1722.29 510.728 1721.34 510.885 1720.33 511.05L1700.96 614.8L1700.97 614.793ZM1502.4 593.352C1525.64 615.192 1548.67 636.832 1571.93 658.693C1580.99 647.353 1589.89 636.234 1598.73 625.057C1599.09 624.611 1599.02 623.501 1598.79 622.853C1597 617.668 1595.11 612.531 1593.03 606.752L1504.1 590.152C1503.6 591.101 1503.1 592.032 1502.4 593.354L1502.4 593.352ZM1594.27 539.022C1564.49 551.094 1535.21 562.979 1505.88 574.874C1506.04 576.318 1506.15 577.362 1506.25 578.387L1595.53 595.054C1599.57 589.971 1603.22 585.366 1607.27 580.275C1603.14 567.152 1598.76 553.236 1594.27 539.013L1594.27 539.022ZM1482.8 562.317C1474.04 560.627 1465.39 567.046 1463.62 576.554C1461.87 585.927 1467.43 594.942 1476.04 596.689C1484.49 598.406 1493.13 591.994 1495.02 582.602C1496.89 573.326 1491.25 563.96 1482.8 562.317ZM1778.5 635.297C1780.23 625.93 1774.59 616.825 1766.03 615.191C1757.49 613.558 1748.9 619.952 1747.07 629.309C1745.22 638.793 1750.97 648.078 1759.67 649.626C1768.24 651.152 1776.76 644.664 1778.5 635.297ZM1537.53 733.219C1539.29 723.662 1533.53 714.377 1524.93 712.901C1516.37 711.433 1507.94 717.865 1506.11 727.269C1504.31 736.484 1510.05 745.711 1518.59 747.333C1527.13 748.954 1535.83 742.462 1537.53 733.219ZM1589.09 457.024C1590.78 447.771 1584.97 438.614 1576.42 437.103C1567.86 435.58 1559.2 442.173 1557.6 451.416C1555.97 460.885 1561.54 469.875 1570.06 471.531C1578.63 473.195 1587.34 466.556 1589.09 457.024ZM1671.97 740.351C1663.32 738.791 1654.72 745.423 1653.02 754.965C1651.37 764.236 1657.24 773.346 1665.79 774.812C1674.23 776.257 1682.74 769.849 1684.47 760.744C1686.29 751.215 1680.58 741.901 1671.97 740.351ZM1736.02 484.602C1737.8 475.384 1732.04 466.163 1723.51 464.561C1714.97 462.967 1706.26 469.468 1704.59 478.706C1702.88 488.142 1708.38 497.174 1716.9 498.942C1725.44 500.704 1734.18 494.144 1736.02 484.602ZM1617.82 623.147C1626.27 624.77 1634.92 618.315 1636.75 609.013C1638.57 599.792 1632.94 590.523 1624.47 588.784C1615.94 587.032 1607.05 593.675 1605.34 603.074C1603.64 612.383 1609.33 621.514 1617.82 623.147Z" fill="#17171A"/>
<path d="M992.069 70.4635C993.523 64.4973 995.799 59.1097 1000.46 55.2098C1004.84 51.5432 1009.77 49.8551 1015.21 50.1602C1016.86 50.2482 1017.83 49.8804 1018.73 48.2622C1031.44 25.4964 1044.19 2.76906 1057 -19.9272C1057.89 -21.4861 1057.8 -22.3929 1056.73 -23.7548C1050.72 -31.416 1049.54 -41.8369 1053.62 -50.1318C1057.98 -58.9967 1066.31 -64.1032 1074.93 -63.1907C1084.23 -62.2037 1091.32 -55.6407 1094.02 -45.5384C1094.17 -44.9743 1094.38 -44.4388 1094.58 -43.8362L1172.85 -42.1378C1175.48 -46.381 1177.37 -50.6925 1180.28 -53.8977C1188.65 -63.139 1202.14 -62.779 1210.66 -53.5601C1218.77 -44.7836 1218.97 -29.9194 1210.95 -20.6928C1209.53 -19.0708 1209.56 -17.9708 1210.49 -16.1408C1222.18 6.82532 1233.81 29.82 1245.38 52.8583C1246.3 54.688 1247.28 55.2627 1249.18 55.244C1261.48 55.1296 1271.43 66.2043 1271.14 79.51C1270.85 92.8156 1260.43 103.448 1248.14 102.8C1246.25 102.699 1245.24 103.239 1244.25 105.019C1231.65 127.623 1218.98 150.18 1206.27 172.699C1205.36 174.317 1205.31 175.288 1206.48 176.772C1212.4 184.229 1213.58 194.643 1209.63 202.896C1205.32 211.874 1196.85 217.097 1188.15 216.138C1178.96 215.123 1171.71 208.445 1169.2 198.698C1169.05 198.127 1168.86 197.569 1168.64 196.861L1089.3 195.14C1087.72 201.245 1084.67 206.257 1079.7 209.776C1070.79 216.09 1058.4 214.25 1051.72 205.565C1044.35 195.982 1044.43 182.589 1052.08 173.803C1053.54 172.13 1053.65 170.996 1052.64 169.014C1040.98 146.146 1029.39 123.227 1017.87 100.28C1016.92 98.3894 1015.94 97.6801 1013.91 97.7032C1003.28 97.8241 994.339 89.5757 992.381 78.1059C992.284 77.5355 992.091 76.9853 991.939 76.4286C991.982 74.4403 992.025 72.4519 992.069 70.4635ZM1094.39 133.671C1072.8 119.173 1051.3 104.722 1029.81 90.2854C1028.12 91.782 1026.59 93.1472 1024.93 94.6144C1037.15 118.774 1049.33 142.842 1061.18 166.283L1075.89 166.602C1081.8 156.096 1088.02 145.013 1094.4 133.672L1094.39 133.671ZM1096.9 17.7257C1091.02 6.08836 1085.24 -5.30711 1079.85 -15.969L1065.13 -16.2883C1052.2 6.74197 1039 30.2598 1025.81 53.7556C1027.54 55.4009 1029.02 56.8166 1030.53 58.2554C1052.7 44.7215 1074.74 31.2595 1096.9 17.7257ZM1169.66 184.222C1147.02 169.02 1124.47 153.873 1101.8 138.656C1095.63 149.643 1089.67 160.215 1083.79 170.834C1083.47 171.418 1083.43 172.554 1083.74 173.129C1085.84 177.093 1088.06 180.978 1090.5 185.339L1168.89 187.04C1169.15 186.096 1169.38 185.263 1169.66 184.23L1169.66 184.222ZM1104.55 13.0678C1127.97 -1.2316 1151.16 -15.3939 1174.38 -29.5706C1174.03 -30.7599 1173.79 -31.5803 1173.54 -32.4082L1095.16 -34.1089C1092.79 -30.0919 1090.8 -26.3509 1088.45 -22.9093C1087.53 -21.5533 1087.35 -20.787 1088.1 -19.3423C1093.07 -9.66942 1097.94 0.0613606 1102.86 9.77046C1103.37 10.7837 1103.89 11.7972 1104.54 13.0602L1104.55 13.0678ZM1186.12 168.889L1187.99 82.567L1153.86 81.8265C1151.2 86.1288 1148.81 89.9134 1146.54 93.7829C1146.21 94.3442 1146.21 95.4809 1146.51 96.0782C1158.81 120.456 1171.16 144.805 1183.51 169.154C1183.58 169.305 1183.8 169.37 1184.03 169.532C1184.66 169.336 1185.35 169.127 1186.12 168.889ZM1188.32 72.8295L1190.19 -13.4477C1189.34 -13.7279 1188.52 -13.9926 1187.64 -14.2808C1183.63 -7.15842 1179.73 -0.220822 1175.83 6.72455C1166.46 23.4155 1157.08 40.1061 1147.77 56.8355C1147.31 57.6631 1146.98 59.1441 1147.34 59.8626C1149.38 63.8628 1151.63 67.7259 1154.07 72.0863L1188.33 72.8297L1188.32 72.8295ZM1106.4 130.455C1107.21 131.018 1107.73 131.396 1108.27 131.752C1129.59 146.072 1150.91 160.4 1172.23 174.72C1172.69 175.029 1173.13 175.487 1173.63 175.603C1174.06 175.702 1174.74 175.582 1175.02 175.259C1175.38 174.841 1175.63 174.113 1175.6 173.537C1175.58 173.005 1175.12 172.494 1174.86 171.973C1162.97 148.449 1151.08 124.917 1139.18 101.401C1138.8 100.652 1138.32 99.954 1138.31 99.9387L1123.72 99.6221C1118.15 109.538 1112.34 119.874 1106.4 130.455ZM1108.75 21.4378C1114.25 32.2963 1119.67 43.0112 1124.74 53.0078L1139.4 53.3258C1139.52 53.1191 1139.94 52.47 1140.31 51.7976C1153.17 28.9004 1166.04 6.00349 1178.84 -16.9323C1179.34 -17.8264 1179.23 -19.13 1179.4 -20.2482C1178.37 -20.1133 1177.19 -20.311 1176.36 -19.8055C1157.03 -8.08713 1137.73 3.70674 1118.44 15.4931C1115.27 17.4286 1112.11 19.3793 1108.75 21.4378ZM1197.03 82.7557L1195.16 169.108C1196.04 169.366 1196.8 169.592 1197.68 169.85C1210.94 146.222 1224.14 122.704 1237.19 99.4517C1235.02 96.8394 1232.8 94.7196 1231.23 92.1204C1229.67 89.5288 1228.75 86.4578 1227.48 83.4089L1197.03 82.7482L1197.03 82.7557ZM1197.18 73.0144L1228.09 73.6849C1229.68 67.2504 1233.09 62.1567 1238.28 58.4703C1225.98 34.1448 1213.81 10.0689 1201.61 -14.0526C1200.59 -13.7157 1199.84 -13.4628 1199.05 -13.1957L1197.18 73.0217L1197.18 73.0144ZM1034.24 82.0354C1055.87 96.5646 1077.3 110.962 1098.95 125.507C1104.76 115.163 1110.46 105.018 1116.11 94.8353C1116.34 94.4289 1116.14 93.5421 1115.87 93.0501C1113.73 89.1075 1111.53 85.2156 1109.08 80.8325L1035.18 79.2291C1034.91 80.0607 1034.63 80.8773 1034.24 82.0355L1034.24 82.0354ZM1101.11 26.0583C1078.71 39.7367 1056.67 53.1986 1034.6 66.6747C1034.91 67.8184 1035.14 68.646 1035.36 69.4584L1109.55 71.0682C1112.13 66.4351 1114.47 62.238 1117.06 57.5976C1111.99 47.5635 1106.61 36.9244 1101.11 26.0508L1101.11 26.0583ZM1014.32 59.6088C1007.04 59.4059 1000.92 65.7271 1000.74 73.6282C1000.58 81.4173 1006.25 87.9496 1013.43 88.2175C1020.47 88.4823 1026.58 82.1685 1026.87 74.3446C1027.14 66.6178 1021.35 59.8138 1014.32 59.6088ZM1262.41 79.2756C1262.56 71.4938 1256.81 64.9 1249.69 64.7157C1242.59 64.5316 1236.51 70.8239 1236.28 78.6114C1236.04 86.5036 1241.91 93.2272 1249.12 93.3238C1256.24 93.4184 1262.25 87.0575 1262.41 79.2756ZM1081.09 190.153C1081.24 182.214 1075.37 175.49 1068.24 175.44C1061.14 175.391 1055.2 181.694 1054.97 189.519C1054.74 197.187 1060.59 203.865 1067.69 204.042C1074.79 204.218 1080.95 197.83 1081.09 190.153ZM1086.07 -39.369C1086.21 -47.054 1080.31 -53.666 1073.22 -53.7525C1066.12 -53.8468 1060.01 -47.3833 1059.94 -39.7191C1059.88 -31.8679 1065.57 -25.3579 1072.65 -25.1517C1079.78 -24.9447 1085.93 -31.4524 1086.07 -39.369ZM1190.44 178.092C1183.25 177.981 1177.19 184.468 1177.09 192.385C1176.99 200.079 1182.93 206.647 1190.02 206.696C1197.01 206.743 1203.03 200.449 1203.22 192.877C1203.42 184.954 1197.58 178.202 1190.44 178.092ZM1208.2 -36.5996C1208.41 -44.268 1202.54 -50.9391 1195.45 -51.1005C1188.35 -51.2544 1182.2 -44.8592 1182.07 -37.1889C1181.94 -29.3542 1187.57 -22.8004 1194.68 -22.5042C1201.8 -22.2151 1207.98 -28.6621 1208.2 -36.5996ZM1131.25 90.7663C1138.27 90.9561 1144.4 84.605 1144.64 76.8625C1144.88 69.1872 1139.12 62.4586 1132.06 62.1783C1124.95 61.8969 1118.66 68.4313 1118.52 76.236C1118.39 83.966 1124.18 90.5756 1131.25 90.7663Z" fill="#17171A"/>
<path d="M2178.07 93.4635C2179.52 87.4973 2181.8 82.1097 2186.46 78.2098C2190.84 74.5432 2195.77 72.8551 2201.21 73.1602C2202.86 73.2482 2203.83 72.8804 2204.73 71.2622C2217.44 48.4964 2230.19 25.7691 2243 3.07278C2243.89 1.51392 2243.8 0.607071 2242.73 -0.754819C2236.72 -8.416 2235.54 -18.8369 2239.62 -27.1318C2243.98 -35.9967 2252.31 -41.1032 2260.93 -40.1907C2270.23 -39.2037 2277.32 -32.6407 2280.02 -22.5384C2280.17 -21.9743 2280.38 -21.4388 2280.58 -20.8362L2358.85 -19.1378C2361.48 -23.381 2363.37 -27.6925 2366.28 -30.8977C2374.65 -40.139 2388.14 -39.779 2396.66 -30.5601C2404.77 -21.7836 2404.97 -6.91936 2396.95 2.30715C2395.53 3.92921 2395.56 5.02922 2396.49 6.85923C2408.18 29.8253 2419.81 52.82 2431.38 75.8583C2432.3 77.688 2433.28 78.2627 2435.18 78.244C2447.48 78.1296 2457.43 89.2043 2457.14 102.51C2456.85 115.816 2446.43 126.448 2434.14 125.8C2432.25 125.699 2431.24 126.239 2430.25 128.019C2417.65 150.623 2404.98 173.18 2392.27 195.699C2391.36 197.317 2391.31 198.288 2392.48 199.772C2398.4 207.229 2399.58 217.643 2395.63 225.896C2391.32 234.874 2382.85 240.097 2374.15 239.138C2364.96 238.123 2357.71 231.445 2355.2 221.698C2355.05 221.127 2354.86 220.569 2354.64 219.861L2275.3 218.14C2273.72 224.245 2270.67 229.257 2265.7 232.776C2256.79 239.09 2244.4 237.25 2237.72 228.565C2230.35 218.982 2230.43 205.589 2238.08 196.803C2239.54 195.13 2239.65 193.996 2238.64 192.014C2226.98 169.146 2215.39 146.227 2203.87 123.28C2202.92 121.389 2201.94 120.68 2199.91 120.703C2189.28 120.824 2180.34 112.576 2178.38 101.106C2178.28 100.535 2178.09 99.9853 2177.94 99.4286C2177.98 97.4403 2178.03 95.4519 2178.07 93.4635ZM2280.39 156.671C2258.8 142.173 2237.3 127.722 2215.81 113.285C2214.12 114.782 2212.59 116.147 2210.93 117.614C2223.15 141.774 2235.33 165.842 2247.18 189.283L2261.89 189.602C2267.8 179.096 2274.02 168.013 2280.4 156.672L2280.39 156.671ZM2282.9 40.7257C2277.02 29.0884 2271.24 17.6929 2265.85 7.03097L2251.13 6.71168C2238.2 29.742 2225 53.2598 2211.81 76.7556C2213.54 78.4009 2215.02 79.8166 2216.53 81.2554C2238.7 67.7215 2260.74 54.2595 2282.9 40.7257ZM2355.66 207.222C2333.02 192.02 2310.47 176.873 2287.8 161.656C2281.63 172.643 2275.67 183.215 2269.79 193.834C2269.47 194.418 2269.43 195.554 2269.74 196.129C2271.84 200.093 2274.06 203.978 2276.5 208.339L2354.89 210.04C2355.15 209.096 2355.38 208.263 2355.66 207.23L2355.66 207.222ZM2290.55 36.0678C2313.97 21.7684 2337.16 7.60613 2360.38 -6.57065C2360.03 -7.75985 2359.79 -8.58028 2359.54 -9.40816L2281.16 -11.1089C2278.79 -7.09192 2276.8 -3.35086 2274.45 0.0906637C2273.53 1.44667 2273.35 2.21304 2274.1 3.65766C2279.07 13.3306 2283.94 23.0614 2288.86 32.7705C2289.37 33.7837 2289.89 34.7972 2290.54 36.0602L2290.55 36.0678ZM2372.12 191.889L2373.99 105.567L2339.86 104.827C2337.2 109.129 2334.81 112.913 2332.54 116.783C2332.21 117.344 2332.21 118.481 2332.51 119.078C2344.81 143.456 2357.16 167.805 2369.51 192.154C2369.58 192.305 2369.8 192.37 2370.03 192.532C2370.66 192.336 2371.35 192.127 2372.12 191.889ZM2374.32 95.8295L2376.19 9.55228C2375.34 9.27213 2374.52 9.00739 2373.64 8.71918C2369.63 15.8416 2365.73 22.7792 2361.83 29.7245C2352.46 46.4155 2343.08 63.1061 2333.77 79.8355C2333.31 80.6631 2332.98 82.1441 2333.34 82.8626C2335.38 86.8628 2337.63 90.7259 2340.07 95.0863L2374.33 95.8297L2374.32 95.8295ZM2292.4 153.455C2293.21 154.018 2293.73 154.396 2294.27 154.752C2315.59 169.072 2336.91 183.4 2358.23 197.72C2358.69 198.029 2359.13 198.487 2359.63 198.603C2360.06 198.702 2360.74 198.582 2361.02 198.259C2361.38 197.841 2361.63 197.113 2361.6 196.537C2361.58 196.005 2361.12 195.494 2360.86 194.973C2348.97 171.449 2337.08 147.917 2325.18 124.401C2324.8 123.652 2324.32 122.954 2324.31 122.939L2309.72 122.622C2304.15 132.538 2298.34 142.874 2292.4 153.455ZM2294.75 44.4378C2300.25 55.2963 2305.67 66.0112 2310.74 76.0078L2325.4 76.3258C2325.52 76.1191 2325.94 75.47 2326.31 74.7976C2339.17 51.9004 2352.04 29.0035 2364.84 6.06772C2365.34 5.17361 2365.23 3.86997 2365.4 2.75182C2364.37 2.88672 2363.19 2.68902 2362.36 3.1945C2343.03 14.9129 2323.73 26.7067 2304.44 38.4931C2301.27 40.4286 2298.11 42.3793 2294.75 44.4378ZM2383.03 105.756L2381.16 192.108C2382.04 192.366 2382.8 192.592 2383.68 192.85C2396.94 169.222 2410.14 145.704 2423.19 122.452C2421.02 119.839 2418.8 117.72 2417.23 115.12C2415.67 112.529 2414.75 109.458 2413.48 106.409L2383.03 105.748L2383.03 105.756ZM2383.18 96.0144L2414.09 96.6849C2415.68 90.2504 2419.09 85.1567 2424.28 81.4703C2411.98 57.1448 2399.81 33.0689 2387.61 8.94741C2386.59 9.28429 2385.84 9.53724 2385.05 9.80425L2383.18 96.0217L2383.18 96.0144ZM2220.24 105.035C2241.87 119.565 2263.3 133.962 2284.95 148.507C2290.76 138.163 2296.46 128.018 2302.11 117.835C2302.34 117.429 2302.14 116.542 2301.87 116.05C2299.73 112.107 2297.53 108.216 2295.08 103.832L2221.18 102.229C2220.91 103.061 2220.63 103.877 2220.24 105.036L2220.24 105.035ZM2287.11 49.0583C2264.71 62.7367 2242.67 76.1986 2220.6 89.6747C2220.91 90.8184 2221.14 91.646 2221.36 92.4584L2295.55 94.0682C2298.13 89.4351 2300.47 85.238 2303.06 80.5976C2297.99 70.5635 2292.61 59.9244 2287.11 49.0508L2287.11 49.0583ZM2200.32 82.6088C2193.04 82.4059 2186.92 88.7271 2186.74 96.6282C2186.58 104.417 2192.25 110.95 2199.43 111.217C2206.47 111.482 2212.58 105.168 2212.87 97.3446C2213.14 89.6178 2207.35 82.8138 2200.32 82.6088ZM2448.41 102.276C2448.56 94.4938 2442.81 87.9 2435.69 87.7157C2428.59 87.5316 2422.51 93.8239 2422.28 101.611C2422.04 109.504 2427.91 116.227 2435.12 116.324C2442.24 116.418 2448.25 110.057 2448.41 102.276ZM2267.09 213.153C2267.24 205.214 2261.37 198.49 2254.24 198.44C2247.14 198.391 2241.2 204.694 2240.97 212.519C2240.74 220.187 2246.59 226.865 2253.69 227.042C2260.79 227.218 2266.95 220.83 2267.09 213.153ZM2272.07 -16.369C2272.21 -24.054 2266.31 -30.666 2259.22 -30.7525C2252.12 -30.8468 2246.01 -24.3833 2245.94 -16.7191C2245.88 -8.86793 2251.57 -2.35786 2258.65 -2.15175C2265.78 -1.94475 2271.93 -8.45236 2272.07 -16.369ZM2376.44 201.092C2369.25 200.981 2363.19 207.468 2363.09 215.385C2362.99 223.079 2368.93 229.647 2376.02 229.696C2383.01 229.743 2389.03 223.449 2389.22 215.877C2389.42 207.954 2383.58 201.202 2376.44 201.092ZM2394.2 -13.5996C2394.41 -21.268 2388.54 -27.9391 2381.45 -28.1005C2374.35 -28.2544 2368.2 -21.8592 2368.07 -14.1889C2367.94 -6.35415 2373.57 0.199584 2380.68 0.495843C2387.8 0.784923 2393.98 -5.66214 2394.2 -13.5996ZM2317.25 113.766C2324.27 113.956 2330.4 107.605 2330.64 99.8625C2330.88 92.1872 2325.12 85.4586 2318.06 85.1783C2310.95 84.8969 2304.66 91.4313 2304.52 99.236C2304.39 106.966 2310.18 113.576 2317.25 113.766Z" fill="#17171A"/>
<path d="M711.357 273.67C718.066 270.34 724.88 268.231 732.18 269.517C739.045 270.727 744.486 273.992 748.478 279.312C749.688 280.915 750.794 281.532 753.013 281.103C784.236 275.077 815.461 269.125 846.698 263.248C848.845 262.845 849.62 262.049 850.05 259.981C852.482 248.362 861.277 239.074 872.221 236.365C883.911 233.463 895.224 237.229 901.146 245.99C907.528 255.439 906.976 267.212 899.671 277.664C899.263 278.249 898.926 278.863 898.52 279.522L958.424 353.884C964.446 353.001 969.954 351.378 975.226 351.57C990.423 352.121 1000.69 364.991 998.775 380.179C996.963 394.647 983.25 406.506 968.34 406.269C965.715 406.223 964.713 407.116 963.736 409.422C951.492 438.368 939.173 467.28 926.769 496.173C925.782 498.466 926.014 499.83 927.524 501.587C937.298 512.979 934.778 530.958 922.138 541.141C909.497 551.323 891.394 549.957 882.344 537.982C880.949 536.133 879.658 535.621 877.215 536.092C846.227 542.089 815.233 547.994 784.234 553.819C782.01 554.241 781.066 554.959 780.606 557.223C778.293 568.596 769.51 577.885 758.702 580.676C746.942 583.71 735.417 579.912 729.475 571.039C723.205 561.671 723.738 549.657 730.861 539.661C731.281 539.077 731.644 538.452 732.134 537.694L671.415 462.32C664.477 465.641 657.408 466.736 650.222 464.865C637.334 461.513 629.314 448.505 632.172 435.452C635.324 421.05 647.881 410.603 662.088 410.84C664.794 410.885 665.936 410.093 666.992 407.595C679.17 378.755 691.45 349.94 703.81 321.167C704.828 318.796 704.718 317.323 703.097 315.441C694.637 305.623 695.309 290.801 704.472 279.965C704.928 279.426 705.29 278.814 705.69 278.235C707.579 276.713 709.468 275.191 711.357 273.67ZM732.762 418.784C729.331 387.254 725.924 355.843 722.509 324.45C719.788 324.052 717.311 323.695 714.639 323.301C701.697 353.677 688.808 383.945 676.252 413.421L687.508 427.395C701.949 424.651 717.179 421.752 732.768 418.79L732.762 418.784ZM842.912 330.051C849.143 315.415 855.241 301.079 860.948 287.667L849.686 273.687C818.046 279.718 785.732 285.874 753.451 292.025C753.272 294.929 753.113 297.421 752.959 299.963C783 310.014 812.871 320 842.912 330.051ZM744.726 528.716C741.126 495.654 737.543 462.716 733.936 429.616C718.84 432.492 704.293 435.235 689.761 438.084C688.965 438.244 687.875 439.101 687.581 439.841C685.532 444.914 683.656 450.041 681.504 455.743L741.497 530.216C742.581 529.717 743.539 529.277 744.724 528.728L744.726 528.716ZM853.262 333.523C885.002 344.142 916.434 354.656 947.896 365.178C948.731 363.917 949.307 363.047 949.889 362.171L889.902 287.705C884.293 288.651 879.242 289.735 874.185 290.247C872.194 290.449 871.337 290.883 870.577 292.715C865.455 304.949 860.209 317.144 855.01 329.355C854.466 330.628 853.932 331.913 853.264 333.511L853.262 333.523ZM771.963 532.03L853.97 465.968L827.852 433.546C821.747 434.442 816.337 435.184 810.944 436.105C810.164 436.242 809.1 437.131 808.779 437.881C795.699 468.507 782.683 499.156 769.667 529.805C769.582 529.991 769.693 530.244 769.721 530.585C770.401 531.021 771.136 531.498 771.963 532.03ZM863.312 458.625L945.277 392.597C944.872 391.586 944.469 390.606 944.05 389.563C934.257 391.419 924.715 393.223 915.176 395.045C892.246 399.418 869.306 403.778 846.382 408.231C845.247 408.45 843.604 409.303 843.222 410.21C841.086 415.247 839.256 420.39 837.1 426.085L863.318 458.631L863.312 458.625ZM745.199 427.463C745.308 428.659 745.368 429.446 745.459 430.228C748.845 461.366 752.224 492.511 755.61 523.65C755.687 524.326 755.6 525.091 755.887 525.651C756.137 526.135 756.777 526.668 757.298 526.676C757.975 526.687 758.848 526.347 759.364 525.867C759.842 525.429 759.957 524.598 760.238 523.944C772.846 494.372 785.46 464.796 798.056 435.224C798.455 434.281 798.733 433.288 798.736 433.263L787.569 419.4C773.942 421.991 759.737 424.695 745.199 427.463ZM848.756 344.021C842.943 357.678 837.207 371.156 831.858 383.733L843.078 397.661C843.366 397.611 844.299 397.49 845.222 397.314C876.683 391.321 908.154 385.341 939.609 379.267C940.834 379.029 941.965 377.904 943.14 377.182C942.212 376.336 941.466 375.075 940.342 374.697C914.226 365.87 888.065 357.132 861.911 348.388C857.615 346.95 853.314 345.536 848.756 344.021ZM860.896 474.552L778.861 540.637C779.308 541.656 779.699 542.55 780.146 543.57C812.608 537.38 844.916 531.218 876.864 525.132C877.596 521.055 877.828 517.317 879.021 513.811C880.211 510.317 882.361 507.055 884.205 503.472L860.904 474.546L860.896 474.552ZM870.103 467.039L893.755 496.4C901.005 492.827 908.436 492.008 915.958 493.96C928.989 463.374 941.89 433.107 954.808 402.772C953.694 402.087 952.869 401.585 951.998 401.057L870.09 467.039L870.103 467.039ZM733.684 322.1C737.124 353.699 740.528 385.005 743.964 416.627C758.176 413.918 772.122 411.273 786.057 408.541C786.615 408.434 787.286 407.551 787.533 406.913C789.535 401.825 791.434 396.711 793.602 390.986L737.048 320.781C736.054 321.176 735.074 321.558 733.69 322.107L733.684 322.1ZM838.442 340.52C808.081 330.362 778.21 320.377 748.299 310.37C747.481 311.564 746.887 312.427 746.303 313.272L803.082 383.755C809.432 382.523 815.185 381.408 821.546 380.177C826.925 367.565 832.626 354.19 838.449 340.514L838.442 340.52ZM738.965 285.905C733.432 278.949 722.726 278.203 715.219 284.25C707.82 290.211 706.186 300.641 711.572 307.544C716.853 314.319 727.547 315.064 735.071 309.184C742.498 303.373 744.298 292.627 738.965 285.905ZM915.496 532.809C922.878 526.841 924.511 516.294 919.094 509.512C913.683 502.736 903.041 502.012 895.589 507.908C888.038 513.884 886.379 524.645 891.954 531.45C897.456 538.164 908.114 538.777 915.496 532.809ZM669.621 450.746C677.147 444.651 678.807 433.891 673.252 427.198C667.723 420.538 657.174 419.944 649.691 425.875C642.358 431.686 640.726 442.393 646.139 449.157C651.548 455.914 662.344 456.641 669.621 450.746ZM887.67 275.094C894.95 269.187 896.482 258.486 890.993 251.804C885.502 245.103 874.671 244.479 867.47 250.44C860.097 256.551 858.49 266.97 863.865 273.743C869.271 280.556 880.171 281.178 887.67 275.094ZM766.768 543.286C761.228 536.496 750.417 535.941 742.949 542.064C735.694 548.015 734.231 558.714 739.755 565.368C745.205 571.931 755.8 572.596 763.014 566.827C770.563 560.789 772.277 550.037 766.768 543.286ZM981.021 391.209C988.343 385.385 989.958 374.671 984.536 367.925C979.106 361.184 968.303 360.463 961.048 366.372C953.637 372.406 951.946 382.807 957.251 389.669C962.573 396.538 973.442 397.239 981.021 391.209ZM801.746 419.468C807.087 426.172 817.822 426.895 825.237 421.04C832.587 415.236 834.338 404.574 829.055 397.769C823.73 390.912 812.692 390.176 805.305 396.181C797.988 402.128 796.372 412.726 801.746 419.468Z" fill="#17171A"/>
<path d="M1897.36 296.67C1904.07 293.34 1910.88 291.231 1918.18 292.517C1925.04 293.727 1930.49 296.992 1934.48 302.312C1935.69 303.915 1936.79 304.532 1939.01 304.103C1970.24 298.077 2001.46 292.125 2032.7 286.248C2034.84 285.845 2035.62 285.049 2036.05 282.981C2038.48 271.362 2047.28 262.074 2058.22 259.365C2069.91 256.463 2081.22 260.229 2087.15 268.99C2093.53 278.439 2092.98 290.212 2085.67 300.664C2085.26 301.249 2084.93 301.863 2084.52 302.522L2144.42 376.884C2150.45 376.001 2155.95 374.378 2161.23 374.57C2176.42 375.121 2186.69 387.991 2184.78 403.179C2182.96 417.647 2169.25 429.506 2154.34 429.269C2151.71 429.223 2150.71 430.116 2149.74 432.422C2137.49 461.368 2125.17 490.28 2112.77 519.173C2111.78 521.466 2112.01 522.83 2113.52 524.587C2123.3 535.979 2120.78 553.958 2108.14 564.141C2095.5 574.323 2077.39 572.957 2068.34 560.982C2066.95 559.133 2065.66 558.621 2063.22 559.092C2032.23 565.089 2001.23 570.994 1970.23 576.819C1968.01 577.241 1967.07 577.959 1966.61 580.223C1964.29 591.596 1955.51 600.885 1944.7 603.676C1932.94 606.71 1921.42 602.912 1915.48 594.039C1909.2 584.671 1909.74 572.657 1916.86 562.661C1917.28 562.077 1917.64 561.452 1918.13 560.694L1857.42 485.32C1850.48 488.641 1843.41 489.736 1836.22 487.865C1823.33 484.513 1815.31 471.505 1818.17 458.452C1821.32 444.05 1833.88 433.603 1848.09 433.84C1850.79 433.885 1851.94 433.093 1852.99 430.595C1865.17 401.755 1877.45 372.94 1889.81 344.167C1890.83 341.796 1890.72 340.323 1889.1 338.441C1880.64 328.623 1881.31 313.801 1890.47 302.965C1890.93 302.426 1891.29 301.814 1891.69 301.235C1893.58 299.713 1895.47 298.191 1897.36 296.67ZM1918.76 441.784C1915.33 410.254 1911.92 378.843 1908.51 347.45C1905.79 347.052 1903.31 346.695 1900.64 346.301C1887.7 376.677 1874.81 406.945 1862.25 436.421L1873.51 450.395C1887.95 447.651 1903.18 444.752 1918.77 441.79L1918.76 441.784ZM2028.91 353.051C2035.14 338.415 2041.24 324.079 2046.95 310.667L2035.69 296.687C2004.05 302.718 1971.73 308.874 1939.45 315.025C1939.27 317.929 1939.11 320.421 1938.96 322.963C1969 333.014 1998.87 343 2028.91 353.051ZM1930.73 551.716C1927.13 518.654 1923.54 485.716 1919.94 452.616C1904.84 455.492 1890.29 458.235 1875.76 461.084C1874.97 461.244 1873.88 462.101 1873.58 462.841C1871.53 467.914 1869.66 473.041 1867.5 478.743L1927.5 553.216C1928.58 552.717 1929.54 552.277 1930.72 551.728L1930.73 551.716ZM2039.26 356.523C2071 367.142 2102.43 377.656 2133.9 388.178C2134.73 386.917 2135.31 386.047 2135.89 385.171L2075.9 310.705C2070.29 311.651 2065.24 312.735 2060.19 313.247C2058.19 313.449 2057.34 313.883 2056.58 315.715C2051.46 327.949 2046.21 340.144 2041.01 352.355C2040.47 353.628 2039.93 354.913 2039.26 356.511L2039.26 356.523ZM1957.96 555.03L2039.97 488.968L2013.85 456.546C2007.75 457.442 2002.34 458.184 1996.94 459.105C1996.16 459.242 1995.1 460.131 1994.78 460.881C1981.7 491.507 1968.68 522.156 1955.67 552.805C1955.58 552.991 1955.69 553.244 1955.72 553.585C1956.4 554.021 1957.14 554.498 1957.96 555.03ZM2049.31 481.625L2131.28 415.597C2130.87 414.586 2130.47 413.606 2130.05 412.563C2120.26 414.419 2110.71 416.223 2101.18 418.045C2078.25 422.418 2055.31 426.778 2032.38 431.231C2031.25 431.45 2029.6 432.303 2029.22 433.21C2027.09 438.247 2025.26 443.39 2023.1 449.085L2049.32 481.631L2049.31 481.625ZM1931.2 450.463C1931.31 451.659 1931.37 452.446 1931.46 453.228C1934.84 484.366 1938.22 515.511 1941.61 546.65C1941.69 547.326 1941.6 548.091 1941.89 548.651C1942.14 549.135 1942.78 549.668 1943.3 549.676C1943.97 549.687 1944.85 549.347 1945.36 548.867C1945.84 548.429 1945.96 547.598 1946.24 546.944C1958.85 517.372 1971.46 487.796 1984.06 458.224C1984.46 457.281 1984.73 456.288 1984.74 456.263L1973.57 442.4C1959.94 444.991 1945.74 447.695 1931.2 450.463ZM2034.76 367.021C2028.94 380.678 2023.21 394.156 2017.86 406.733L2029.08 420.661C2029.37 420.611 2030.3 420.49 2031.22 420.314C2062.68 414.321 2094.15 408.341 2125.61 402.267C2126.83 402.029 2127.97 400.904 2129.14 400.182C2128.21 399.336 2127.47 398.075 2126.34 397.697C2100.23 388.87 2074.07 380.132 2047.91 371.388C2043.61 369.95 2039.31 368.536 2034.76 367.021ZM2046.9 497.552L1964.86 563.637C1965.31 564.656 1965.7 565.55 1966.15 566.57C1998.61 560.38 2030.92 554.218 2062.86 548.132C2063.6 544.055 2063.83 540.317 2065.02 536.811C2066.21 533.317 2068.36 530.055 2070.21 526.472L2046.9 497.546L2046.9 497.552ZM2056.1 490.039L2079.75 519.4C2087.01 515.827 2094.44 515.008 2101.96 516.96C2114.99 486.374 2127.89 456.107 2140.81 425.772C2139.69 425.087 2138.87 424.585 2138 424.057L2056.09 490.039L2056.1 490.039ZM1919.68 345.1C1923.12 376.699 1926.53 408.005 1929.96 439.627C1944.18 436.918 1958.12 434.273 1972.06 431.541C1972.62 431.434 1973.29 430.551 1973.53 429.913C1975.53 424.825 1977.43 419.711 1979.6 413.986L1923.05 343.781C1922.05 344.176 1921.07 344.558 1919.69 345.107L1919.68 345.1ZM2024.44 363.52C1994.08 353.362 1964.21 343.377 1934.3 333.37C1933.48 334.564 1932.89 335.427 1932.3 336.272L1989.08 406.755C1995.43 405.523 2001.18 404.408 2007.55 403.177C2012.93 390.565 2018.63 377.19 2024.45 363.514L2024.44 363.52ZM1924.97 308.905C1919.43 301.949 1908.73 301.203 1901.22 307.25C1893.82 313.211 1892.19 323.641 1897.57 330.544C1902.85 337.319 1913.55 338.064 1921.07 332.184C1928.5 326.373 1930.3 315.627 1924.97 308.905ZM2101.5 555.809C2108.88 549.841 2110.51 539.294 2105.09 532.512C2099.68 525.736 2089.04 525.012 2081.59 530.908C2074.04 536.884 2072.38 547.645 2077.95 554.45C2083.46 561.164 2094.11 561.777 2101.5 555.809ZM1855.62 473.746C1863.15 467.651 1864.81 456.891 1859.25 450.198C1853.72 443.538 1843.17 442.944 1835.69 448.875C1828.36 454.686 1826.73 465.393 1832.14 472.157C1837.55 478.914 1848.34 479.641 1855.62 473.746ZM2073.67 298.094C2080.95 292.187 2082.48 281.486 2076.99 274.804C2071.5 268.103 2060.67 267.479 2053.47 273.44C2046.1 279.551 2044.49 289.97 2049.87 296.743C2055.27 303.556 2066.17 304.178 2073.67 298.094ZM1952.77 566.286C1947.23 559.496 1936.42 558.941 1928.95 565.064C1921.69 571.015 1920.23 581.714 1925.75 588.368C1931.21 594.931 1941.8 595.596 1949.01 589.827C1956.56 583.789 1958.28 573.037 1952.77 566.286ZM2167.02 414.209C2174.34 408.385 2175.96 397.671 2170.54 390.925C2165.11 384.184 2154.3 383.463 2147.05 389.372C2139.64 395.406 2137.95 405.807 2143.25 412.669C2148.57 419.538 2159.44 420.239 2167.02 414.209ZM1987.75 442.468C1993.09 449.172 2003.82 449.895 2011.24 444.04C2018.59 438.236 2020.34 427.574 2015.05 420.769C2009.73 413.912 1998.69 413.176 1991.3 419.181C1983.99 425.128 1982.37 435.726 1987.75 442.468Z" fill="#17171A"/>
<path d="M522.407 202.56C518.739 198.281 515.941 193.7 515.53 188.137C515.144 182.906 516.52 178.334 519.663 174.438C520.609 173.259 520.855 172.338 520.132 170.799C509.966 149.136 499.854 127.458 489.794 105.756C489.104 104.265 488.38 103.846 486.791 103.915C477.866 104.288 469.466 99.5887 465.467 92.1053C461.189 84.114 461.846 75.1656 467.143 69.2267C472.857 62.8247 481.547 61.0516 490.522 64.4495C491.024 64.6384 491.534 64.7709 492.089 64.9454L535.266 7.50453C533.509 3.27459 531.307 -0.443041 530.473 -4.32445C528.066 -15.5129 535.558 -25.3774 546.991 -26.7906C557.88 -28.1422 569.065 -20.3302 571.648 -9.40967C572.099 -7.48622 572.936 -6.9202 574.798 -6.63393C598.177 -3.05124 621.544 0.593029 644.914 4.30214C646.768 4.59842 647.72 4.17697 648.724 2.75093C655.228 -6.48412 668.808 -7.96856 678.573 -0.629193C688.337 6.71017 690.686 20.1685 683.622 28.983C682.531 30.343 682.396 31.3789 683.191 33.0741C693.293 54.5715 703.328 76.0894 713.305 97.6266C714.024 99.171 714.722 99.7271 716.459 99.6442C725.183 99.2302 733.582 103.92 737.615 111.289C742.002 119.307 741.361 128.416 735.986 134.391C730.311 140.696 721.448 142.527 712.84 139.178C712.337 138.98 711.814 138.83 711.17 138.613L667.406 196.835C671.111 201.283 673.216 206.237 673.18 211.825C673.116 221.846 665.109 230.1 655.059 230.428C643.97 230.79 634.029 223.56 631.576 213.153C631.109 211.17 630.32 210.483 628.303 210.175C605.014 206.621 581.724 202.988 558.451 199.288C556.533 198.984 555.479 199.336 554.406 200.866C548.806 208.852 537.87 211.101 528.272 206.419C527.795 206.186 527.281 206.035 526.785 205.851C525.326 204.754 523.867 203.657 522.407 202.56ZM624.311 160.129C601.944 168.459 579.66 176.748 557.39 185.041C557.603 187.099 557.8 188.972 558.006 190.994C582.557 194.822 607.019 198.631 630.842 202.343L638.955 191.55C634.285 181.522 629.356 170.948 624.314 160.124L624.311 160.129ZM539.226 96.1731C527.398 94.3323 515.813 92.5333 504.975 90.8486L496.858 101.647C507.104 123.614 517.566 146.049 528.019 168.461C530.17 168.055 532.017 167.71 533.9 167.353C535.681 143.581 537.445 119.945 539.226 96.1731ZM702.294 131.086C678.841 139.823 655.475 148.523 631.996 157.271C636.883 167.752 641.573 177.856 646.337 187.931C646.6 188.482 647.427 189.119 648.021 189.196C652.1 189.754 656.187 190.175 660.744 190.691L703.985 133.165C703.42 132.466 702.923 131.849 702.303 131.085L702.294 131.086ZM539.846 87.9815C541.727 62.8653 543.588 37.9929 545.45 13.0972C544.376 12.7213 543.635 12.4623 542.889 12.1991L499.652 69.7202C501.378 73.6369 503.103 77.1213 504.41 80.7155C504.926 82.1306 505.4 82.6756 506.878 82.8919C516.749 84.3672 526.614 85.9406 536.483 87.4766C537.512 87.6383 538.548 87.7899 539.837 87.9824L539.846 87.9815ZM699.678 110.605L636.333 62.9894L617.507 88.0343C619.289 92.3223 620.83 96.1312 622.499 99.8953C622.742 100.439 623.588 101.051 624.194 101.146C648.953 105.029 673.716 108.86 698.479 112.691C698.63 112.718 698.795 112.591 699.038 112.507C699.231 111.931 699.443 111.306 699.678 110.605ZM629.249 57.5317L565.936 9.94122C565.273 10.4233 564.633 10.8986 563.949 11.3966C567.113 18.1975 570.192 24.8253 573.284 31.4472C580.712 47.366 588.131 63.2949 595.616 79.1943C595.986 79.9818 596.911 81.0228 597.644 81.1339C601.713 81.7617 605.802 82.1458 610.356 82.6667L629.253 57.5266L629.249 57.5317ZM628.344 149.452C629.196 149.152 629.759 148.963 630.313 148.752C652.402 140.527 674.497 132.307 696.587 124.083C697.066 123.902 697.64 123.824 697.996 123.511C698.302 123.239 698.573 122.674 698.482 122.292C698.365 121.797 697.956 121.222 697.511 120.935C697.103 120.667 696.475 120.736 695.946 120.652C672.044 116.92 648.137 113.183 624.237 109.46C623.476 109.342 622.7 109.324 622.682 109.326L614.632 120.034C619.041 129.496 623.638 139.359 628.344 149.452ZM548.337 89.3289C559.374 91.0456 570.266 92.7392 580.429 94.3166L588.516 83.558C588.426 83.3574 588.166 82.6989 587.866 82.0581C577.681 60.2154 567.502 38.3626 557.259 16.5392C556.859 15.6896 555.829 15.0723 555.086 14.3486C554.64 15.1818 553.858 15.9589 553.79 16.8488C552.177 37.5315 550.637 58.2304 549.092 78.9251C548.837 82.3252 548.6 85.7234 548.337 89.3289ZM641.314 56.3508L704.682 103.982C705.343 103.468 705.922 103.017 706.584 102.503C696.07 79.9661 685.604 57.5364 675.261 35.3554C672.151 35.5747 669.382 36.0962 666.604 35.8746C663.835 35.652 661.058 34.6863 658.104 34.0027L641.309 56.3466L641.314 56.3508ZM634.133 51.0233L651.18 28.3436C647.234 23.7147 645.263 18.4452 645.297 12.5974C620.577 8.74355 596.113 4.92554 571.597 1.10786C571.303 2.0474 571.09 2.74203 570.865 3.47498L634.134 51.0324L634.133 51.0233ZM553.611 177.323C576.026 168.974 598.234 160.706 620.667 152.355C616.065 142.489 611.558 132.804 606.99 123.143C606.809 122.756 606.041 122.43 605.53 122.368C601.448 121.848 597.367 121.407 592.789 120.884L552.027 175.113C552.498 175.765 552.959 176.409 553.615 177.318L553.611 177.323ZM547.689 97.4999C545.89 121.525 544.126 145.16 542.353 168.829C543.376 169.206 544.115 169.479 544.839 169.749L585.763 115.304C583.691 110.9 581.814 106.91 579.74 102.496C569.546 100.903 558.736 99.2158 547.684 97.4958L547.689 97.4999ZM526.231 180.159C522.179 185.481 523.614 193.429 529.412 197.787C535.128 202.084 543.038 201.348 547.079 196.143C551.044 191.039 549.612 183.1 543.933 178.698C538.321 174.354 530.149 175.027 526.231 180.159ZM673.722 5.75511C668.004 1.47284 660.009 2.2307 656.062 7.43564C652.119 12.6356 653.558 20.532 659.236 24.8785C664.991 29.2828 673.148 28.5048 677.081 23.1802C680.962 17.9258 679.44 10.0374 673.722 5.75511ZM659.295 200.283C653.458 195.919 645.302 196.697 641.446 201.986C637.609 207.25 639.125 215.055 644.835 219.417C650.429 223.693 658.541 222.905 662.475 217.706C666.405 212.512 664.94 204.502 659.295 200.283ZM490.864 73.6785C485.21 69.4599 477.121 70.3198 473.261 75.5583C469.387 80.8027 470.933 88.819 476.613 92.9701C482.433 97.2193 490.33 96.4662 494.278 91.2937C498.249 86.0911 496.689 78.025 490.864 73.6785ZM708.849 112.314C704.92 117.611 706.513 125.599 712.359 129.916C718.042 134.108 726.117 133.199 729.95 127.94C733.73 122.751 732.257 114.899 726.716 110.702C720.916 106.312 712.756 107.048 708.849 112.314ZM558.318 -15.8768C552.716 -20.1424 544.602 -19.3405 540.683 -14.1383C536.769 -8.93185 538.24 -0.917597 543.89 3.28278C549.662 7.57387 557.562 6.88558 561.587 1.74749C565.615 -3.40474 564.117 -11.4629 558.318 -15.8768ZM612.062 109.68C615.965 104.544 614.509 96.5796 608.868 92.2528C603.276 87.9631 595.174 88.6568 591.186 93.768C587.168 98.9194 588.671 107.107 594.417 111.387C600.107 115.625 608.136 114.845 612.062 109.68Z" fill="#17171A"/>
<path d="M1708.41 225.56C1704.74 221.281 1701.94 216.7 1701.53 211.137C1701.14 205.906 1702.52 201.334 1705.66 197.438C1706.61 196.259 1706.86 195.338 1706.13 193.799C1695.97 172.136 1685.85 150.458 1675.79 128.756C1675.1 127.265 1674.38 126.846 1672.79 126.915C1663.87 127.288 1655.47 122.589 1651.47 115.105C1647.19 107.114 1647.85 98.1656 1653.14 92.2267C1658.86 85.8247 1667.55 84.0516 1676.52 87.4495C1677.02 87.6384 1677.53 87.7709 1678.09 87.9454L1721.27 30.5045C1719.51 26.2746 1717.31 22.557 1716.47 18.6755C1714.07 7.48714 1721.56 -2.37744 1732.99 -3.79057C1743.88 -5.1422 1755.07 2.66985 1757.65 13.5903C1758.1 15.5138 1758.94 16.0798 1760.8 16.3661C1784.18 19.9488 1807.54 23.593 1830.91 27.3021C1832.77 27.5984 1833.72 27.177 1834.72 25.7509C1841.23 16.5159 1854.81 15.0314 1864.57 22.3708C1874.34 29.7102 1876.69 43.1685 1869.62 51.983C1868.53 53.343 1868.4 54.3789 1869.19 56.0741C1879.29 77.5715 1889.33 99.0894 1899.31 120.627C1900.02 122.171 1900.72 122.727 1902.46 122.644C1911.18 122.23 1919.58 126.92 1923.62 134.289C1928 142.307 1927.36 151.416 1921.99 157.391C1916.31 163.696 1907.45 165.527 1898.84 162.178C1898.34 161.98 1897.81 161.83 1897.17 161.613L1853.41 219.835C1857.11 224.283 1859.22 229.237 1859.18 234.825C1859.12 244.846 1851.11 253.1 1841.06 253.428C1829.97 253.79 1820.03 246.56 1817.58 236.153C1817.11 234.17 1816.32 233.483 1814.3 233.175C1791.01 229.621 1767.72 225.988 1744.45 222.288C1742.53 221.984 1741.48 222.336 1740.41 223.866C1734.81 231.852 1723.87 234.101 1714.27 229.419C1713.79 229.186 1713.28 229.035 1712.78 228.851C1711.33 227.754 1709.87 226.657 1708.41 225.56ZM1810.31 183.129C1787.94 191.459 1765.66 199.748 1743.39 208.041C1743.6 210.099 1743.8 211.972 1744.01 213.994C1768.56 217.822 1793.02 221.631 1816.84 225.343L1824.95 214.55C1820.28 204.522 1815.36 193.948 1810.31 183.124L1810.31 183.129ZM1725.23 119.173C1713.4 117.332 1701.81 115.533 1690.97 113.849L1682.86 124.647C1693.1 146.614 1703.57 169.049 1714.02 191.461C1716.17 191.055 1718.02 190.71 1719.9 190.353C1721.68 166.581 1723.44 142.945 1725.23 119.173ZM1888.29 154.086C1864.84 162.823 1841.47 171.523 1818 180.271C1822.88 190.752 1827.57 200.856 1832.34 210.931C1832.6 211.482 1833.43 212.119 1834.02 212.196C1838.1 212.754 1842.19 213.175 1846.74 213.691L1889.98 156.165C1889.42 155.466 1888.92 154.849 1888.3 154.085L1888.29 154.086ZM1725.85 110.981C1727.73 85.8653 1729.59 60.9929 1731.45 36.0972C1730.38 35.7213 1729.64 35.4623 1728.89 35.1991L1685.65 92.7202C1687.38 96.6369 1689.1 100.121 1690.41 103.716C1690.93 105.131 1691.4 105.676 1692.88 105.892C1702.75 107.367 1712.61 108.941 1722.48 110.477C1723.51 110.638 1724.55 110.79 1725.84 110.982L1725.85 110.981ZM1885.68 133.605L1822.33 85.9894L1803.51 111.034C1805.29 115.322 1806.83 119.131 1808.5 122.895C1808.74 123.439 1809.59 124.051 1810.19 124.146C1834.95 128.029 1859.72 131.86 1884.48 135.691C1884.63 135.718 1884.79 135.591 1885.04 135.507C1885.23 134.931 1885.44 134.306 1885.68 133.605ZM1815.25 80.5317L1751.94 32.9412C1751.27 33.4233 1750.63 33.8986 1749.95 34.3966C1753.11 41.1975 1756.19 47.8253 1759.28 54.4472C1766.71 70.366 1774.13 86.2949 1781.62 102.194C1781.99 102.982 1782.91 104.023 1783.64 104.134C1787.71 104.762 1791.8 105.146 1796.36 105.667L1815.25 80.5266L1815.25 80.5317ZM1814.34 172.452C1815.2 172.152 1815.76 171.963 1816.31 171.752C1838.4 163.527 1860.5 155.307 1882.59 147.083C1883.07 146.902 1883.64 146.824 1884 146.511C1884.3 146.239 1884.57 145.674 1884.48 145.292C1884.37 144.797 1883.96 144.222 1883.51 143.935C1883.1 143.667 1882.48 143.736 1881.95 143.652C1858.04 139.92 1834.14 136.183 1810.24 132.46C1809.48 132.342 1808.7 132.324 1808.68 132.326L1800.63 143.034C1805.04 152.496 1809.64 162.359 1814.34 172.452ZM1734.34 112.329C1745.37 114.046 1756.27 115.739 1766.43 117.317L1774.52 106.558C1774.43 106.357 1774.17 105.699 1773.87 105.058C1763.68 83.2154 1753.5 61.3626 1743.26 39.5392C1742.86 38.6896 1741.83 38.0723 1741.09 37.3486C1740.64 38.1818 1739.86 38.9589 1739.79 39.8488C1738.18 60.5315 1736.64 81.2304 1735.09 101.925C1734.84 105.325 1734.6 108.723 1734.34 112.329ZM1827.31 79.3508L1890.68 126.982C1891.34 126.468 1891.92 126.017 1892.58 125.503C1882.07 102.966 1871.6 80.5364 1861.26 58.3554C1858.15 58.5747 1855.38 59.0962 1852.6 58.8746C1849.83 58.652 1847.06 57.6863 1844.1 57.0027L1827.31 79.3466L1827.31 79.3508ZM1820.13 74.0233L1837.18 51.3436C1833.23 46.7147 1831.26 41.4452 1831.3 35.5974C1806.58 31.7435 1782.11 27.9255 1757.6 24.1079C1757.3 25.0474 1757.09 25.742 1756.87 26.475L1820.13 74.0324L1820.13 74.0233ZM1739.61 200.323C1762.03 191.974 1784.23 183.706 1806.67 175.355C1802.07 165.489 1797.56 155.804 1792.99 146.143C1792.81 145.756 1792.04 145.43 1791.53 145.368C1787.45 144.848 1783.37 144.407 1778.79 143.884L1738.03 198.113C1738.5 198.765 1738.96 199.409 1739.61 200.318L1739.61 200.323ZM1733.69 120.5C1731.89 144.525 1730.13 168.16 1728.35 191.829C1729.38 192.206 1730.11 192.479 1730.84 192.749L1771.76 138.304C1769.69 133.9 1767.81 129.91 1765.74 125.496C1755.55 123.903 1744.74 122.216 1733.68 120.496L1733.69 120.5ZM1712.23 203.159C1708.18 208.481 1709.61 216.429 1715.41 220.787C1721.13 225.084 1729.04 224.348 1733.08 219.143C1737.04 214.039 1735.61 206.1 1729.93 201.698C1724.32 197.354 1716.15 198.027 1712.23 203.159ZM1859.72 28.7551C1854 24.4728 1846.01 25.2307 1842.06 30.4356C1838.12 35.6356 1839.56 43.532 1845.24 47.8785C1850.99 52.2828 1859.15 51.5048 1863.08 46.1802C1866.96 40.9258 1865.44 33.0374 1859.72 28.7551ZM1845.3 223.283C1839.46 218.919 1831.3 219.697 1827.45 224.986C1823.61 230.25 1825.13 238.055 1830.83 242.417C1836.43 246.693 1844.54 245.905 1848.47 240.706C1852.4 235.512 1850.94 227.502 1845.3 223.283ZM1676.86 96.6785C1671.21 92.4599 1663.12 93.3198 1659.26 98.5583C1655.39 103.803 1656.93 111.819 1662.61 115.97C1668.43 120.219 1676.33 119.466 1680.28 114.294C1684.25 109.091 1682.69 101.025 1676.86 96.6785ZM1894.85 135.314C1890.92 140.611 1892.51 148.599 1898.36 152.916C1904.04 157.108 1912.12 156.199 1915.95 150.94C1919.73 145.751 1918.26 137.899 1912.72 133.702C1906.92 129.312 1898.76 130.048 1894.85 135.314ZM1744.32 7.12315C1738.72 2.85763 1730.6 3.65946 1726.68 8.86174C1722.77 14.0681 1724.24 22.0824 1729.89 26.2828C1735.66 30.5739 1743.56 29.8856 1747.59 24.7475C1751.61 19.5953 1750.12 11.5371 1744.32 7.12315ZM1798.06 132.68C1801.97 127.544 1800.51 119.58 1794.87 115.253C1789.28 110.963 1781.17 111.657 1777.19 116.768C1773.17 121.919 1774.67 130.107 1780.42 134.387C1786.11 138.625 1794.14 137.845 1798.06 132.68Z" fill="#17171A"/>
</g>
<defs>
<clipPath id="clip0_133_1936">
<rect width="2353" height="685" fill="white"/>
</clipPath>
</defs>
</svg>
