<svg width="2353" height="685" viewBox="0 0 2353 685" fill="none" xmlns="http://www.w3.org/2000/svg">
<g clip-path="url(#clip0_133_1936)">
<rect width="2353" height="685" fill="#0F0F10"/>
<path d="M2096.07 655.464C2097.52 649.497 2099.8 644.11 2104.46 640.21C2108.84 636.543 2113.77 634.855 2119.21 635.16C2120.86 635.248 2121.83 634.88 2122.73 633.262C2135.44 610.496 2148.19 587.769 2161 565.073C2161.89 563.514 2161.8 562.607 2160.73 561.245C2154.72 553.584 2153.54 543.163 2157.62 534.868C2161.98 526.003 2170.31 520.897 2178.93 521.809C2188.23 522.796 2195.32 529.359 2198.02 539.462C2198.17 540.026 2198.38 540.561 2198.58 541.164L2276.85 542.862C2279.48 538.619 2281.37 534.307 2284.28 531.102C2292.65 521.861 2306.14 522.221 2314.66 531.44C2322.77 540.216 2322.97 555.081 2314.95 564.307C2313.53 565.929 2313.56 567.029 2314.49 568.859C2326.18 591.825 2337.81 614.82 2349.38 637.858C2350.3 639.688 2351.28 640.263 2353.18 640.244C2365.48 640.13 2375.43 651.204 2375.14 664.51C2374.85 677.816 2364.43 688.448 2352.14 687.8C2350.25 687.699 2349.24 688.239 2348.25 690.019C2335.65 712.623 2322.98 735.18 2310.27 757.699C2309.36 759.317 2309.31 760.288 2310.48 761.772C2316.4 769.229 2317.58 779.643 2313.63 787.896C2309.32 796.874 2300.85 802.097 2292.15 801.138C2282.96 800.123 2275.71 793.445 2273.2 783.698C2273.05 783.127 2272.86 782.569 2272.64 781.861L2193.3 780.14C2191.72 786.245 2188.67 791.257 2183.7 794.776C2174.79 801.09 2162.4 799.25 2155.72 790.565C2148.35 780.982 2148.43 767.589 2156.08 758.803C2157.54 757.13 2157.65 755.996 2156.64 754.014C2144.98 731.146 2133.39 708.227 2121.87 685.28C2120.92 683.389 2119.94 682.68 2117.91 682.703C2107.28 682.824 2098.34 674.576 2096.38 663.106C2096.28 662.535 2096.09 661.985 2095.94 661.429C2095.98 659.44 2096.03 657.452 2096.07 655.464ZM2198.39 718.671C2176.8 704.173 2155.3 689.722 2133.81 675.285C2132.12 676.782 2130.59 678.147 2128.93 679.614C2141.15 703.774 2153.33 727.842 2165.18 751.283L2179.89 751.602C2185.8 741.096 2192.02 730.013 2198.4 718.672L2198.39 718.671ZM2200.9 602.726C2195.02 591.088 2189.24 579.693 2183.85 569.031L2169.13 568.712C2156.2 591.742 2143 615.26 2129.81 638.756C2131.54 640.401 2133.02 641.817 2134.53 643.255C2156.7 629.721 2178.74 616.26 2200.9 602.726ZM2273.66 769.222C2251.02 754.02 2228.47 738.873 2205.8 723.656C2199.63 734.643 2193.67 745.215 2187.79 755.834C2187.47 756.418 2187.43 757.554 2187.74 758.129C2189.84 762.093 2192.06 765.978 2194.5 770.339L2272.89 772.04C2273.15 771.096 2273.38 770.263 2273.66 769.23L2273.66 769.222ZM2208.55 598.068C2231.97 583.768 2255.16 569.606 2278.38 555.429C2278.03 554.24 2277.79 553.42 2277.54 552.592L2199.16 550.891C2196.79 554.908 2194.8 558.649 2192.45 562.091C2191.53 563.447 2191.35 564.213 2192.1 565.658C2197.07 575.331 2201.94 585.061 2206.86 594.77C2207.37 595.784 2207.89 596.797 2208.54 598.06L2208.55 598.068ZM2290.12 753.889L2291.99 667.567L2257.86 666.827C2255.2 671.129 2252.81 674.913 2250.54 678.783C2250.21 679.344 2250.21 680.481 2250.51 681.078C2262.81 705.456 2275.16 729.805 2287.51 754.154C2287.58 754.305 2287.8 754.37 2288.03 754.532C2288.66 754.336 2289.35 754.127 2290.12 753.889ZM2292.32 657.83L2294.19 571.552C2293.34 571.272 2292.52 571.007 2291.64 570.719C2287.63 577.842 2283.73 584.779 2279.83 591.725C2270.46 608.415 2261.08 625.106 2251.77 641.836C2251.31 642.663 2250.98 644.144 2251.34 644.863C2253.38 648.863 2255.63 652.726 2258.07 657.086L2292.33 657.83L2292.32 657.83ZM2210.4 715.455C2211.21 716.018 2211.73 716.396 2212.27 716.752C2233.59 731.072 2254.91 745.4 2276.23 759.72C2276.69 760.029 2277.13 760.487 2277.63 760.603C2278.06 760.702 2278.74 760.582 2279.02 760.259C2279.38 759.841 2279.63 759.113 2279.6 758.537C2279.58 758.005 2279.12 757.494 2278.86 756.973C2266.97 733.449 2255.08 709.917 2243.18 686.401C2242.8 685.652 2242.32 684.954 2242.31 684.939L2227.72 684.622C2222.15 694.538 2216.34 704.874 2210.4 715.455ZM2212.75 606.438C2218.25 617.296 2223.67 628.011 2228.74 638.008L2243.4 638.326C2243.52 638.119 2243.94 637.47 2244.31 636.798C2257.17 613.9 2270.04 591.003 2282.84 568.068C2283.34 567.174 2283.23 565.87 2283.4 564.752C2282.37 564.887 2281.19 564.689 2280.36 565.194C2261.03 576.913 2241.73 588.707 2222.44 600.493C2219.27 602.429 2216.11 604.379 2212.75 606.438ZM2301.03 667.756L2299.16 754.108C2300.04 754.366 2300.8 754.592 2301.68 754.85C2314.94 731.222 2328.14 707.704 2341.19 684.452C2339.02 681.839 2336.8 679.72 2335.23 677.12C2333.67 674.529 2332.75 671.458 2331.48 668.409L2301.03 667.748L2301.03 667.756ZM2301.18 658.014L2332.09 658.685C2333.68 652.25 2337.09 647.157 2342.28 643.47C2329.98 619.145 2317.81 595.069 2305.61 570.947C2304.59 571.284 2303.84 571.537 2303.05 571.804L2301.18 658.022L2301.18 658.014ZM2138.24 667.035C2159.87 681.565 2181.3 695.962 2202.95 710.507C2208.76 700.163 2214.46 690.018 2220.11 679.835C2220.34 679.429 2220.14 678.542 2219.87 678.05C2217.73 674.107 2215.53 670.216 2213.08 665.832L2139.18 664.229C2138.91 665.061 2138.63 665.877 2138.24 667.036L2138.24 667.035ZM2205.11 611.058C2182.71 624.737 2160.67 638.199 2138.6 651.675C2138.91 652.818 2139.14 653.646 2139.36 654.458L2213.55 656.068C2216.13 651.435 2218.47 647.238 2221.06 642.598C2215.99 632.564 2210.61 621.924 2205.11 611.051L2205.11 611.058ZM2118.32 644.609C2111.04 644.406 2104.92 650.727 2104.74 658.628C2104.58 666.417 2110.25 672.95 2117.43 673.217C2124.47 673.482 2130.58 667.168 2130.87 659.345C2131.14 651.618 2125.35 644.814 2118.32 644.609ZM2366.41 664.276C2366.56 656.494 2360.81 649.9 2353.69 649.716C2346.59 649.532 2340.51 655.824 2340.28 663.611C2340.04 671.504 2345.91 678.227 2353.12 678.324C2360.24 678.418 2366.25 672.057 2366.41 664.276ZM2185.09 775.153C2185.24 767.214 2179.37 760.49 2172.24 760.44C2165.14 760.391 2159.2 766.694 2158.97 774.519C2158.74 782.187 2164.59 788.865 2171.69 789.042C2178.79 789.218 2184.95 782.83 2185.09 775.153ZM2190.07 545.631C2190.21 537.946 2184.31 531.334 2177.22 531.247C2170.12 531.153 2164.01 537.617 2163.94 545.281C2163.88 553.132 2169.57 559.642 2176.65 559.848C2183.78 560.055 2189.93 553.548 2190.07 545.631ZM2294.44 763.092C2287.25 762.981 2281.19 769.468 2281.09 777.385C2280.99 785.079 2286.93 791.647 2294.02 791.696C2301.01 791.743 2307.03 785.449 2307.22 777.877C2307.42 769.954 2301.58 763.202 2294.44 763.092ZM2312.2 548.4C2312.41 540.732 2306.54 534.061 2299.45 533.899C2292.35 533.746 2286.2 540.141 2286.07 547.811C2285.94 555.646 2291.57 562.2 2298.68 562.496C2305.8 562.785 2311.98 556.338 2312.2 548.4ZM2235.25 675.766C2242.27 675.956 2248.4 669.605 2248.64 661.863C2248.88 654.187 2243.12 647.459 2236.06 647.178C2228.95 646.897 2222.66 653.431 2222.52 661.236C2222.39 668.966 2228.18 675.576 2235.25 675.766Z" fill="#17171A"/>
<path d="M199.338 -16.7521C203.949 -19.0403 208.632 -20.4897 213.649 -19.606C218.367 -18.7748 222.106 -16.5306 224.85 -12.8746C225.681 -11.7726 226.442 -11.3484 227.966 -11.6432C249.425 -15.7848 270.884 -19.8755 292.353 -23.9148C293.828 -24.1915 294.361 -24.7386 294.656 -26.1601C296.328 -34.1451 302.372 -40.5284 309.894 -42.39C317.928 -44.3848 325.702 -41.7965 329.772 -35.7753C334.158 -29.2813 333.779 -21.1906 328.758 -14.0068C328.478 -13.6049 328.247 -13.1831 327.968 -12.7303L369.137 38.3759C373.276 37.7693 377.061 36.6537 380.684 36.7859C391.129 37.1643 398.182 46.0094 396.869 56.4476C395.624 66.3903 386.199 74.5411 375.952 74.3783C374.148 74.3466 373.459 74.9602 372.788 76.5447C364.373 96.4386 355.906 116.308 347.382 136.165C346.703 137.741 346.863 138.678 347.901 139.886C354.618 147.715 352.886 160.071 344.199 167.07C335.512 174.068 323.07 173.129 316.851 164.899C315.891 163.628 315.005 163.277 313.326 163.6C292.028 167.722 270.728 171.78 249.424 175.783C247.895 176.073 247.246 176.567 246.93 178.122C245.34 185.939 239.305 192.323 231.877 194.241C223.795 196.326 215.874 193.716 211.79 187.617C207.48 181.179 207.847 172.922 212.742 166.053C213.031 165.651 213.281 165.222 213.617 164.701L171.888 112.899C167.119 115.182 162.261 115.934 157.323 114.649C148.465 112.345 142.953 103.405 144.917 94.4344C147.084 84.5363 155.714 77.3567 165.477 77.5192C167.337 77.5501 168.122 77.006 168.848 75.2893C177.217 55.4689 185.657 35.6655 194.152 15.8909C194.851 14.2616 194.776 13.2489 193.661 11.9557C187.847 5.20775 188.309 -4.97846 194.606 -12.4259C194.92 -12.7961 195.168 -13.2168 195.443 -13.6148C196.741 -14.6606 198.04 -15.7063 199.338 -16.7521ZM214.049 82.9788C211.691 61.3097 209.349 39.7221 207.002 18.1469C205.133 17.8739 203.43 17.6283 201.594 17.3574C192.699 38.2336 183.841 59.0359 175.212 79.2933L182.948 88.8967C192.873 87.0109 203.339 85.0191 214.053 82.9833L214.049 82.9788ZM289.751 21.9964C294.033 11.9377 298.224 2.08499 302.146 -7.1322L294.406 -16.74C272.661 -12.5951 250.453 -8.36457 228.267 -4.13694C228.145 -2.1414 228.035 -0.428766 227.93 1.31796C248.576 8.22591 269.105 15.0885 289.751 21.9964ZM222.271 158.531C219.797 135.808 217.335 113.171 214.855 90.4234C204.481 92.3997 194.483 94.2852 184.496 96.2433C183.949 96.3533 183.2 96.942 182.998 97.4503C181.59 100.937 180.3 104.461 178.821 108.38L220.052 159.562C220.797 159.218 221.455 158.916 222.27 158.539L222.271 158.531ZM296.864 24.3826C318.677 31.6808 340.279 38.9065 361.902 46.1378C362.476 45.2714 362.871 44.6734 363.271 44.0715L322.045 -7.10608C318.19 -6.45641 314.718 -5.71091 311.243 -5.35951C309.875 -5.22015 309.286 -4.9222 308.763 -3.66302C305.243 4.74489 301.638 13.1263 298.065 21.5182C297.691 22.3928 297.324 23.2763 296.865 24.3742L296.864 24.3826ZM240.99 160.809L297.35 115.407L279.4 93.124C275.204 93.7398 271.487 94.2497 267.78 94.8832C267.244 94.9769 266.513 95.5879 266.292 96.1036C257.303 117.152 248.357 138.215 239.412 159.279C239.354 159.407 239.43 159.581 239.449 159.815C239.916 160.115 240.422 160.443 240.99 160.809ZM303.771 110.36L360.102 64.9819C359.823 64.287 359.546 63.6133 359.259 62.8966C352.528 64.1721 345.97 65.4118 339.414 66.6642C323.656 69.6695 307.89 72.6659 292.136 75.7265C291.355 75.877 290.226 76.4632 289.964 77.0864C288.495 80.5483 287.238 84.0826 285.756 87.9967L303.774 110.364L303.771 110.36ZM222.596 88.9439C222.671 89.7659 222.712 90.3063 222.775 90.8438C225.102 112.244 227.424 133.648 229.751 155.049C229.804 155.514 229.745 156.039 229.942 156.424C230.113 156.757 230.553 157.123 230.912 157.128C231.376 157.136 231.977 156.902 232.331 156.573C232.66 156.272 232.739 155.7 232.932 155.251C241.597 134.928 250.266 114.601 258.922 94.2774C259.197 93.6296 259.388 92.9468 259.39 92.9301L251.715 83.4025C242.35 85.1833 232.588 87.0411 222.596 88.9439ZM293.767 31.5971C289.771 40.9834 285.83 50.2459 282.154 58.8898L289.865 68.4619C290.062 68.4276 290.704 68.3447 291.338 68.2232C312.96 64.1045 334.589 59.9947 356.206 55.8206C357.048 55.657 357.826 54.8838 358.633 54.3876C357.995 53.8059 357.483 52.9397 356.71 52.6799C338.762 46.6131 320.782 40.6079 302.808 34.5987C299.855 33.6104 296.899 32.6389 293.767 31.5971ZM302.11 121.306L245.731 166.723C246.038 167.424 246.307 168.038 246.614 168.739C268.924 164.485 291.128 160.25 313.084 156.068C313.588 153.266 313.747 150.696 314.566 148.287C315.384 145.886 316.862 143.644 318.13 141.182L302.115 121.302L302.11 121.306ZM308.437 116.143L324.692 136.322C329.675 133.866 334.783 133.303 339.952 134.645C348.908 113.624 357.774 92.8223 366.652 71.9747C365.886 71.5036 365.319 71.1591 364.721 70.7958L308.429 116.142L308.437 116.143ZM214.683 16.5323C217.047 38.2484 219.386 59.7639 221.748 81.4967C231.515 79.635 241.1 77.8171 250.677 75.9393C251.06 75.8658 251.521 75.2592 251.691 74.8208C253.066 71.3235 254.372 67.8091 255.862 63.8743L216.994 15.6258C216.311 15.8967 215.638 16.1598 214.686 16.5368L214.683 16.5323ZM286.678 29.1913C265.812 22.2104 245.283 15.3478 224.727 8.47082C224.164 9.29133 223.757 9.88431 223.355 10.465L262.377 58.9051C266.741 58.0584 270.694 57.2921 275.067 56.4459C278.763 47.778 282.682 38.5859 286.683 29.1873L286.678 29.1913ZM218.312 -8.34307C214.509 -13.1237 207.151 -13.6363 201.993 -9.48067C196.907 -5.38398 195.784 1.78389 199.486 6.52861C203.115 11.1842 210.465 11.6962 215.636 7.65569C220.74 3.66179 221.977 -3.72343 218.312 -8.34307ZM339.635 161.344C344.708 157.242 345.83 149.994 342.107 145.332C338.388 140.676 331.075 140.178 325.953 144.231C320.764 148.338 319.623 155.733 323.455 160.41C327.236 165.024 334.561 165.445 339.635 161.344ZM170.655 104.945C175.827 100.757 176.968 93.3612 173.15 88.7617C169.35 84.1845 162.1 83.776 156.958 87.8523C151.918 91.8459 150.796 99.2044 154.517 103.853C158.234 108.497 165.653 108.996 170.655 104.945ZM320.511 -15.7732C325.514 -19.8326 326.567 -27.187 322.795 -31.7794C319.021 -36.3846 311.577 -36.8136 306.628 -32.7169C301.561 -28.5174 300.457 -21.3569 304.151 -16.7015C307.866 -12.0195 315.357 -11.5918 320.511 -15.7732ZM237.42 168.544C233.612 163.878 226.183 163.496 221.05 167.704C216.064 171.794 215.058 179.147 218.855 183.72C222.601 188.23 229.882 188.687 234.84 184.723C240.028 180.573 241.206 173.184 237.42 168.544ZM384.667 64.0277C389.699 60.0251 390.809 52.6616 387.083 48.0254C383.351 43.3932 375.926 42.8976 370.94 46.9582C365.847 51.1052 364.685 58.2536 368.331 62.9695C371.989 67.6903 379.459 68.1718 384.667 64.0277ZM261.458 83.4494C265.13 88.0567 272.507 88.5535 277.603 84.5295C282.655 80.5408 283.858 73.2128 280.227 68.536C276.568 63.8235 268.982 63.3179 263.905 67.4448C258.876 71.5323 257.766 78.8153 261.458 83.4494Z" fill="#17171A"/>
<g filter="url(#filter0_d_133_1936)">
<path d="M-167.16 178.488C-159.245 174.238 -150.973 171.407 -141.458 172.509C-132.511 173.546 -124.995 177.059 -118.941 183.047C-117.109 184.852 -115.589 185.511 -112.848 184.89C-74.2742 176.158 -35.6851 167.513 2.93472 158.954C5.58858 158.367 6.42789 157.396 6.59344 154.96C7.54623 141.273 17.0141 129.958 30.4256 126.202C44.7488 122.179 59.8197 125.956 68.9586 135.854C78.8094 146.529 80.2749 160.293 72.9135 172.885C72.5036 173.59 72.1883 174.324 71.7934 175.115L161.615 258.6C169.106 257.242 175.807 255.049 182.543 254.986C201.96 254.8 217.371 269.254 217.739 287.077C218.099 304.053 202.852 318.636 183.859 319.172C180.514 319.261 179.405 320.358 178.588 323.1C168.354 357.537 158.018 391.935 147.571 426.318C146.738 429.047 147.285 430.625 149.527 432.594C164.045 445.35 164.152 466.461 149.961 479.029C135.77 491.597 112.51 490.99 98.8046 477.513C96.6901 475.432 94.956 474.906 91.9376 475.588C53.6564 484.273 15.3526 492.851 -22.9741 501.335C-25.723 501.949 -26.7908 502.838 -26.9586 505.504C-27.8058 518.898 -37.2578 530.213 -50.4805 534.058C-64.8685 538.238 -80.2158 534.436 -89.4009 524.408C-99.0944 513.821 -100.628 499.777 -93.4144 487.727C-92.9887 487.023 -92.6417 486.275 -92.1587 485.364L-183.202 400.742C-191.409 404.995 -200.192 406.657 -209.669 404.867C-226.666 401.658 -239.253 386.92 -238.023 371.538C-236.667 354.564 -222.631 341.693 -204.531 341.194C-201.084 341.099 -199.778 340.113 -198.896 337.142C-188.726 302.834 -178.423 268.549 -168.009 234.309C-167.152 231.488 -167.562 229.775 -169.969 227.668C-182.528 216.675 -184.402 199.348 -174.751 186.207C-174.271 185.554 -173.924 184.82 -173.522 184.122C-171.401 182.244 -169.28 180.366 -167.16 178.488ZM-113.246 346.61C-123.41 310.015 -133.521 273.557 -143.64 237.12C-147.17 236.805 -150.385 236.523 -153.853 236.209C-164.712 272.35 -175.522 308.364 -186.054 343.434L-169.176 359.122C-151.328 355.134 -132.505 350.923 -113.238 346.617L-113.246 346.61ZM10.4182 237.092C15.6438 219.678 20.7553 202.622 25.5401 186.665L8.6541 170.97C-30.4499 179.73 -70.3857 188.672 -110.282 197.608C-109.974 201.005 -109.718 203.921 -109.446 206.894C-69.4148 216.983 -29.6126 227.003 10.4182 237.092ZM-77.8069 474.204C-88.4684 435.83 -99.0839 397.6 -109.761 359.183C-128.418 363.36 -146.401 367.354 -164.345 371.469C-165.328 371.699 -166.555 372.758 -166.793 373.637C-168.463 379.667 -169.905 385.751 -171.59 392.52L-81.6356 476.13C-80.3488 475.488 -79.2129 474.923 -77.807 474.218L-77.8069 474.204ZM24.2113 240.579C66.5055 251.237 108.39 261.789 150.313 272.349C151.142 270.833 151.713 269.787 152.292 268.733L62.3459 185.131C55.3916 186.54 49.1713 188.08 42.8387 188.952C40.3453 189.297 39.336 189.85 38.7065 192.029C34.449 206.58 30.0258 221.093 25.6657 235.621C25.2086 237.135 24.7671 238.664 24.2114 240.564L24.2113 240.579ZM-42.58 476.586L49.4882 395.049L10.3252 358.649C2.73088 360.027 -4.00757 361.187 -10.6927 362.556C-11.6591 362.758 -12.8474 363.853 -13.1168 364.746C-24.1051 401.187 -35.0067 437.651 -45.9083 474.115C-45.9815 474.336 -45.7946 474.626 -45.6956 475.021C-44.7515 475.494 -43.7287 476.01 -42.58 476.586ZM60.0098 385.973L152.03 304.479C151.33 303.322 150.637 302.2 149.913 301.006C137.808 303.705 126.012 306.329 114.224 308.975C85.8861 315.326 57.5327 321.663 29.2178 328.107C27.8155 328.425 25.8842 329.509 25.5656 330.588C23.7771 336.581 22.3987 342.68 20.7057 349.441L60.0176 385.981L60.0098 385.973ZM-95.8415 356.058C-95.4832 357.447 -95.2627 358.361 -95.0026 359.269C-84.9679 395.41 -74.9413 431.559 -64.9066 467.7C-64.6849 468.485 -64.6539 469.382 -64.1857 470.02C-63.7799 470.571 -62.8685 471.158 -62.2042 471.138C-61.3423 471.114 -60.2946 470.67 -59.7277 470.083C-59.2008 469.545 -59.2073 468.569 -58.9706 467.791C-48.3896 432.607 -37.8006 397.415 -27.2353 362.23C-26.9005 361.109 -26.7312 359.935 -26.7309 359.906L-43.4759 344.342C-60.3184 348.108 -77.874 352.035 -95.8415 356.058ZM20.4161 253.07C15.5416 269.32 10.7323 285.355 6.24945 300.319L23.0728 315.956C23.4292 315.882 24.5931 315.691 25.7339 315.434C64.6161 306.728 103.514 298.037 142.373 289.237C143.886 288.893 145.117 287.519 146.477 286.612C145.142 285.675 143.962 284.246 142.464 283.866C107.647 274.991 72.7894 266.223 37.9398 257.449C32.2143 256.005 26.4886 254.59 20.4161 253.07ZM59.8707 404.685L-32.2294 486.25C-31.4737 487.415 -30.8115 488.436 -30.0558 489.601C10.0622 480.612 49.9902 471.662 89.4744 462.821C89.6545 458.025 89.2615 453.651 90.1312 449.496C91.0008 445.355 93.1331 441.433 94.8183 437.153L59.8787 404.678L59.8707 404.685ZM70.1886 395.42L105.653 428.383C114.211 423.819 123.504 422.458 133.424 424.326C144.356 387.935 155.182 351.921 166.017 315.83C164.475 315.091 163.333 314.551 162.129 313.982L70.1728 395.419L70.1886 395.42ZM-129.868 233.77C-119.681 270.445 -109.593 306.781 -99.4053 343.484C-81.8418 339.549 -64.6032 335.703 -47.3953 331.756C-46.7061 331.601 -46.0161 330.535 -45.8191 329.777C-44.212 323.732 -42.739 317.663 -41.0377 310.865L-125.836 232.048C-127.027 232.562 -128.202 233.062 -129.861 233.777L-129.868 233.77ZM6.66291 249.549C-33.7938 239.354 -73.596 229.333 -113.453 219.29C-114.273 220.727 -114.868 221.766 -115.455 222.783L-30.3197 301.914C-22.4765 300.13 -15.37 298.516 -7.511 296.733C-2.99614 281.726 1.78823 265.813 6.67089 249.542L6.66291 249.549ZM-129.818 191.257C-138.131 183.444 -151.876 183.157 -160.303 190.621C-168.61 197.978 -168.767 210.234 -160.651 217.994C-152.692 225.609 -138.963 225.895 -130.483 218.627C-122.114 211.443 -121.803 198.808 -129.818 191.257ZM139.987 469.672C148.271 462.307 148.405 449.914 140.272 442.297C132.147 434.687 118.489 434.423 110.103 441.708C101.606 449.091 101.477 461.735 109.815 469.369C118.044 476.902 131.703 477.037 139.987 469.672ZM-187.612 387.338C-179.168 379.818 -179.04 367.174 -187.332 359.67C-195.585 352.201 -209.102 352.083 -217.52 359.41C-225.77 366.588 -225.874 379.168 -217.749 386.764C-209.632 394.352 -195.776 394.611 -187.612 387.338ZM57.1886 170.541C65.3532 163.253 65.3308 150.686 57.1256 143.19C48.9126 135.672 35.0323 135.534 26.9778 142.881C18.7319 150.411 18.6072 162.653 26.6849 170.262C34.8096 177.915 48.7769 178.047 57.1886 170.541ZM-47.1113 490C-55.4023 482.38 -69.2439 482.322 -77.6086 489.872C-85.7341 497.21 -85.6247 509.771 -77.3796 517.232C-69.2442 524.591 -55.6569 524.79 -47.5493 517.666C-39.0669 510.211 -38.8673 497.576 -47.1113 490ZM197.203 300.911C205.438 293.718 205.519 281.131 197.385 273.557C189.244 265.99 175.381 265.737 167.248 273.025C158.939 280.468 158.704 292.695 166.71 300.411C174.739 308.134 188.682 308.359 197.203 300.911ZM-25.4453 343.649C-17.4221 351.179 -3.64574 351.437 4.70012 344.202C12.9742 337.031 13.2362 324.497 5.26955 316.846C-2.75976 309.137 -16.9235 308.88 -25.2078 316.288C-33.4124 323.625 -33.5154 336.076 -25.4453 343.649Z" fill="#8257E5"/>
</g>
<path d="M333.77 572.01C336.71 565.094 340.528 559.039 346.932 555.254C352.953 551.696 359.231 550.634 365.747 552.083C367.715 552.516 368.961 552.264 370.372 550.489C390.238 525.518 410.153 500.602 430.127 475.735C431.5 474.027 431.572 472.914 430.549 471.057C424.82 460.614 425.462 447.795 432.036 438.587C439.052 428.745 450.132 424.232 460.364 427.045C471.396 430.082 478.659 439.415 479.912 452.151C479.984 452.862 480.127 453.55 480.248 454.317L574.44 471.901C578.454 467.297 581.593 462.466 585.736 459.171C597.68 449.672 613.902 452.784 622.358 465.608C630.419 477.817 627.707 495.807 616.188 505.358C614.157 507.036 613.976 508.37 614.736 510.765C624.296 540.82 633.775 570.897 643.178 601.015C643.922 603.407 644.989 604.295 647.287 604.649C662.172 606.953 671.985 622.301 668.996 638.313C666.007 654.324 651.317 665.098 636.604 661.876C634.333 661.378 633.016 661.83 631.461 663.783C611.755 688.58 591.986 713.308 572.159 737.98C570.739 739.753 570.488 740.917 571.615 742.942C577.275 753.121 576.643 765.933 570.227 775.114C563.243 785.102 551.98 789.729 541.66 786.844C530.766 783.796 523.331 774.291 522.237 762.022C522.175 761.303 522.045 760.59 521.923 759.693L426.449 741.87C423.328 748.93 418.655 754.378 411.957 757.642C399.945 763.498 385.343 758.817 379.002 747.003C372.005 733.968 374.758 717.81 385.741 708.718C387.833 706.987 388.187 705.638 387.362 703.045C377.821 673.115 368.375 643.137 359.017 613.138C358.246 610.667 357.2 609.616 354.737 609.24C341.88 607.277 332.719 595.542 332.63 581.301C332.627 580.593 332.503 579.891 332.43 579.188C332.876 576.795 333.323 574.403 333.77 572.01ZM444.795 668.648C421.601 646.855 398.504 625.136 375.412 603.437C373.079 604.91 370.957 606.254 368.664 607.697C378.624 639.297 388.555 670.78 398.222 701.442L415.922 704.746C425.138 693.23 434.855 681.081 444.803 668.649L444.795 668.648ZM470.841 529.124C466.038 513.902 461.329 498.995 456.926 485.047L439.218 481.742C419.037 506.989 398.425 532.771 377.834 558.528C379.593 560.858 381.099 562.861 382.64 564.899C412.098 552.954 441.383 541.069 470.841 529.124ZM525.662 744.631C501.339 721.781 477.111 699.013 452.759 676.138C443.129 688.183 433.832 699.768 424.616 711.423C424.113 712.065 423.842 713.429 424.1 714.185C425.85 719.389 427.766 724.522 429.847 730.273L524.179 747.882C524.68 746.793 525.123 745.834 525.669 744.642L525.662 744.631ZM480.995 525.016C512.119 512.395 542.939 499.894 573.787 487.38C573.6 485.874 573.471 484.835 573.344 483.788L479.02 466.18C475.362 470.561 472.219 474.684 468.699 478.374C467.313 479.828 466.943 480.718 467.559 482.611C471.64 495.278 475.601 507.998 479.608 520.698C480.024 522.023 480.456 523.351 480.989 525.005L480.995 525.016ZM548.585 729.381L567.977 625.505L526.908 617.839C522.839 622.506 519.2 626.602 515.691 630.825C515.185 631.438 514.955 632.809 515.2 633.591C525.218 665.472 535.3 697.327 545.383 729.183C545.439 729.38 545.689 729.501 545.933 729.742C546.736 729.631 547.608 729.515 548.585 729.381ZM570.304 613.811L589.685 509.989C588.717 509.482 587.77 508.998 586.77 508.477C580.517 516.283 574.421 523.886 568.34 531.5C553.716 549.799 539.077 568.094 524.51 586.449C523.788 587.357 523.093 589.08 523.393 590.02C525.052 595.254 527.014 600.368 529.087 606.116L570.313 613.812L570.304 613.811ZM459.939 667.146C460.803 667.987 461.361 668.547 461.941 669.084C484.845 690.608 507.747 712.142 530.651 733.666C531.151 734.132 531.584 734.771 532.169 735.011C532.675 735.217 533.51 735.205 533.913 734.871C534.436 734.438 534.88 733.608 534.96 732.906C535.038 732.26 534.583 731.552 534.37 730.87C524.68 700.102 514.992 669.325 505.292 638.564C504.982 637.585 504.544 636.647 504.531 636.626L486.971 633.348C478.276 644.217 469.213 655.547 459.939 667.146ZM484.412 535.958C488.895 550.162 493.319 564.178 497.451 577.256L515.093 580.549C515.28 580.323 515.912 579.622 516.501 578.885C536.569 553.784 556.654 528.686 576.665 503.528C577.444 502.547 577.572 500.951 577.996 499.634C576.736 499.594 575.345 499.12 574.242 499.566C548.574 509.882 522.931 520.296 497.29 530.701C493.076 532.409 488.876 534.138 484.412 535.958ZM578.858 627.527L559.46 731.439C560.466 731.925 561.348 732.35 562.354 732.835C583.057 706.931 603.661 681.148 624.04 655.659C621.937 652.073 619.674 649.072 618.295 645.622C616.922 642.182 616.432 638.293 615.499 634.358L578.859 627.518L578.858 627.527ZM580.972 615.793L618.162 622.735C621.357 615.28 626.486 609.805 633.494 606.384C623.464 574.566 613.543 543.076 603.591 511.524C602.295 511.728 601.338 511.885 600.33 512.05L580.962 615.8L580.972 615.793ZM382.397 594.352C405.641 616.192 428.668 637.832 451.926 659.693C460.99 648.353 469.894 637.234 478.732 626.057C479.087 625.611 479.023 624.501 478.795 623.853C476.999 618.668 475.11 613.531 473.025 607.752L384.1 591.152C383.599 592.101 383.102 593.032 382.405 594.354L382.397 594.352ZM474.266 540.022C444.495 552.094 415.21 563.979 385.88 575.874C386.036 577.318 386.147 578.362 386.253 579.387L475.532 596.054C479.568 590.971 483.225 586.366 487.27 581.275C483.139 568.152 478.755 554.236 474.267 540.013L474.266 540.022ZM362.799 563.317C354.041 561.627 345.394 568.046 343.619 577.554C341.87 586.927 347.431 595.942 356.042 597.689C364.489 599.406 373.126 592.994 375.024 583.602C376.892 574.326 371.251 564.96 362.799 563.317ZM658.497 636.297C660.228 626.93 654.589 617.825 646.034 616.191C637.487 614.558 628.904 620.952 627.072 630.309C625.216 639.793 630.974 649.078 639.665 650.626C648.241 652.152 656.765 645.664 658.497 636.297ZM417.529 734.219C419.287 724.662 413.529 715.377 404.927 713.901C396.366 712.433 387.937 718.865 386.105 728.269C384.308 737.484 390.052 746.711 398.593 748.333C407.125 749.954 415.829 743.462 417.529 734.219ZM469.088 458.024C470.781 448.771 464.965 439.614 456.421 438.103C447.861 436.58 439.199 443.173 437.601 452.416C435.969 461.885 441.544 470.875 450.062 472.531C458.629 474.195 467.343 467.556 469.088 458.024ZM551.972 741.351C543.317 739.791 534.715 746.423 533.019 755.965C531.373 765.236 537.241 774.346 545.794 775.812C554.231 777.257 562.741 770.849 564.474 761.744C566.287 752.215 560.577 742.901 551.972 741.351ZM616.024 485.602C617.804 476.384 612.042 467.163 603.506 465.561C594.969 463.967 586.264 470.468 584.59 479.706C582.88 489.142 588.379 498.174 596.901 499.942C605.441 501.704 614.183 495.144 616.024 485.602ZM497.822 624.147C506.269 625.77 514.923 619.315 516.753 610.013C518.568 600.792 512.943 591.523 504.475 589.784C495.941 588.032 487.048 594.675 485.336 604.074C483.641 613.383 489.325 622.514 497.822 624.147Z" fill="#17171A"/>
<path d="M1334.07 194.464C1335.52 188.497 1337.8 183.11 1342.46 179.21C1346.84 175.543 1351.77 173.855 1357.21 174.16C1358.86 174.248 1359.83 173.88 1360.73 172.262C1373.44 149.496 1386.19 126.769 1399 104.073C1399.89 102.514 1399.8 101.607 1398.73 100.245C1392.72 92.584 1391.54 82.1631 1395.62 73.8682C1399.98 65.0033 1408.31 59.8968 1416.93 60.8093C1426.23 61.7963 1433.32 68.3593 1436.02 78.4616C1436.17 79.0257 1436.38 79.5612 1436.58 80.1638L1514.85 81.8622C1517.48 77.619 1519.37 73.3075 1522.28 70.1023C1530.65 60.861 1544.14 61.221 1552.66 70.4399C1560.77 79.2164 1560.97 94.0806 1552.95 103.307C1551.53 104.929 1551.56 106.029 1552.49 107.859C1564.18 130.825 1575.81 153.82 1587.38 176.858C1588.3 178.688 1589.28 179.263 1591.18 179.244C1603.48 179.13 1613.43 190.204 1613.14 203.51C1612.85 216.816 1602.43 227.448 1590.14 226.8C1588.25 226.699 1587.24 227.239 1586.25 229.019C1573.65 251.623 1560.98 274.18 1548.27 296.699C1547.36 298.317 1547.31 299.288 1548.48 300.772C1554.4 308.229 1555.58 318.643 1551.63 326.896C1547.32 335.874 1538.85 341.097 1530.15 340.138C1520.96 339.123 1513.71 332.445 1511.2 322.698C1511.05 322.127 1510.86 321.569 1510.64 320.861L1431.3 319.14C1429.72 325.245 1426.67 330.257 1421.7 333.776C1412.79 340.09 1400.4 338.25 1393.72 329.565C1386.35 319.982 1386.43 306.589 1394.08 297.803C1395.54 296.13 1395.65 294.996 1394.64 293.014C1382.98 270.146 1371.39 247.227 1359.87 224.28C1358.92 222.389 1357.94 221.68 1355.91 221.703C1345.28 221.824 1336.34 213.576 1334.38 202.106C1334.28 201.535 1334.09 200.985 1333.94 200.429C1333.98 198.44 1334.03 196.452 1334.07 194.464ZM1436.39 257.671C1414.8 243.173 1393.3 228.722 1371.81 214.285C1370.12 215.782 1368.59 217.147 1366.93 218.614C1379.15 242.774 1391.33 266.842 1403.18 290.283L1417.89 290.602C1423.8 280.096 1430.02 269.013 1436.4 257.672L1436.39 257.671ZM1438.9 141.726C1433.02 130.088 1427.24 118.693 1421.85 108.031L1407.13 107.712C1394.2 130.742 1381 154.26 1367.81 177.756C1369.54 179.401 1371.02 180.817 1372.53 182.255C1394.7 168.721 1416.74 155.26 1438.9 141.726ZM1511.66 308.222C1489.02 293.02 1466.47 277.873 1443.8 262.656C1437.63 273.643 1431.67 284.215 1425.79 294.834C1425.47 295.418 1425.43 296.554 1425.74 297.129C1427.84 301.093 1430.06 304.978 1432.5 309.339L1510.89 311.04C1511.15 310.096 1511.38 309.263 1511.66 308.23L1511.66 308.222ZM1446.55 137.068C1469.97 122.768 1493.16 108.606 1516.38 94.4294C1516.03 93.2401 1515.79 92.4197 1515.54 91.5918L1437.16 89.8911C1434.79 93.9081 1432.8 97.6491 1430.45 101.091C1429.53 102.447 1429.35 103.213 1430.1 104.658C1435.07 114.331 1439.94 124.061 1444.86 133.77C1445.37 134.784 1445.89 135.797 1446.54 137.06L1446.55 137.068ZM1528.12 292.889L1529.99 206.567L1495.86 205.827C1493.2 210.129 1490.81 213.913 1488.54 217.783C1488.21 218.344 1488.21 219.481 1488.51 220.078C1500.81 244.456 1513.16 268.805 1525.51 293.154C1525.58 293.305 1525.8 293.37 1526.03 293.532C1526.66 293.336 1527.35 293.127 1528.12 292.889ZM1530.32 196.83L1532.19 110.552C1531.34 110.272 1530.52 110.007 1529.64 109.719C1525.63 116.842 1521.73 123.779 1517.83 130.725C1508.46 147.415 1499.08 164.106 1489.77 180.836C1489.31 181.663 1488.98 183.144 1489.34 183.863C1491.38 187.863 1493.63 191.726 1496.07 196.086L1530.33 196.83L1530.32 196.83ZM1448.4 254.455C1449.21 255.018 1449.73 255.396 1450.27 255.752C1471.59 270.072 1492.91 284.4 1514.23 298.72C1514.69 299.029 1515.13 299.487 1515.63 299.603C1516.06 299.702 1516.74 299.582 1517.02 299.259C1517.38 298.841 1517.63 298.113 1517.6 297.537C1517.58 297.005 1517.12 296.494 1516.86 295.973C1504.97 272.449 1493.08 248.917 1481.18 225.401C1480.8 224.652 1480.32 223.954 1480.31 223.939L1465.72 223.622C1460.15 233.538 1454.34 243.874 1448.4 254.455ZM1450.75 145.438C1456.25 156.296 1461.67 167.011 1466.74 177.008L1481.4 177.326C1481.52 177.119 1481.94 176.47 1482.31 175.798C1495.17 152.9 1508.04 130.003 1520.84 107.068C1521.34 106.174 1521.23 104.87 1521.4 103.752C1520.37 103.887 1519.19 103.689 1518.36 104.194C1499.03 115.913 1479.73 127.707 1460.44 139.493C1457.27 141.429 1454.11 143.379 1450.75 145.438ZM1539.03 206.756L1537.16 293.108C1538.04 293.366 1538.8 293.592 1539.68 293.85C1552.94 270.222 1566.14 246.704 1579.19 223.452C1577.02 220.839 1574.8 218.72 1573.23 216.12C1571.67 213.529 1570.75 210.458 1569.48 207.409L1539.03 206.748L1539.03 206.756ZM1539.18 197.014L1570.09 197.685C1571.68 191.25 1575.09 186.157 1580.28 182.47C1567.98 158.145 1555.81 134.069 1543.61 109.947C1542.59 110.284 1541.84 110.537 1541.05 110.804L1539.18 197.022L1539.18 197.014ZM1376.24 206.035C1397.87 220.565 1419.3 234.962 1440.95 249.507C1446.76 239.163 1452.46 229.018 1458.11 218.835C1458.34 218.429 1458.14 217.542 1457.87 217.05C1455.73 213.107 1453.53 209.216 1451.08 204.832L1377.18 203.229C1376.91 204.061 1376.63 204.877 1376.24 206.036L1376.24 206.035ZM1443.11 150.058C1420.71 163.737 1398.67 177.199 1376.6 190.675C1376.91 191.818 1377.14 192.646 1377.36 193.458L1451.55 195.068C1454.13 190.435 1456.47 186.238 1459.06 181.598C1453.99 171.564 1448.61 160.924 1443.11 150.051L1443.11 150.058ZM1356.32 183.609C1349.04 183.406 1342.92 189.727 1342.74 197.628C1342.58 205.417 1348.25 211.95 1355.43 212.217C1362.47 212.482 1368.58 206.168 1368.87 198.345C1369.14 190.618 1363.35 183.814 1356.32 183.609ZM1604.41 203.276C1604.56 195.494 1598.81 188.9 1591.69 188.716C1584.59 188.532 1578.51 194.824 1578.28 202.611C1578.04 210.504 1583.91 217.227 1591.12 217.324C1598.24 217.418 1604.25 211.057 1604.41 203.276ZM1423.09 314.153C1423.24 306.214 1417.37 299.49 1410.24 299.44C1403.14 299.391 1397.2 305.694 1396.97 313.519C1396.74 321.187 1402.59 327.865 1409.69 328.042C1416.79 328.218 1422.95 321.83 1423.09 314.153ZM1428.07 84.631C1428.21 76.946 1422.31 70.334 1415.22 70.2475C1408.12 70.1532 1402.01 76.6167 1401.94 84.2809C1401.88 92.1321 1407.57 98.6421 1414.65 98.8483C1421.78 99.0553 1427.93 92.5476 1428.07 84.631ZM1532.44 302.092C1525.25 301.981 1519.19 308.468 1519.09 316.385C1518.99 324.079 1524.93 330.647 1532.02 330.696C1539.01 330.743 1545.03 324.449 1545.22 316.877C1545.42 308.954 1539.58 302.202 1532.44 302.092ZM1550.2 87.4004C1550.41 79.732 1544.54 73.0609 1537.45 72.8995C1530.35 72.7456 1524.2 79.1408 1524.07 86.8111C1523.94 94.6458 1529.57 101.2 1536.68 101.496C1543.8 101.785 1549.98 95.3379 1550.2 87.4004ZM1473.25 214.766C1480.27 214.956 1486.4 208.605 1486.64 200.863C1486.88 193.187 1481.12 186.459 1474.06 186.178C1466.95 185.897 1460.66 192.431 1460.52 200.236C1460.39 207.966 1466.18 214.576 1473.25 214.766Z" fill="#17171A"/>
<path d="M2097 80.5137C2098.71 73.5308 2101.37 67.2253 2106.83 62.6609C2111.96 58.3695 2117.72 56.3938 2124.09 56.7509C2126.02 56.8539 2127.15 56.4234 2128.21 54.5295C2143.08 27.8845 2158.01 1.28454 2173.01 -25.279C2174.04 -27.1035 2173.93 -28.1649 2172.68 -29.7588C2165.65 -38.7254 2164.27 -50.922 2169.05 -60.6303C2174.14 -71.0057 2183.9 -76.9823 2193.99 -75.9143C2204.87 -74.7592 2213.17 -67.0779 2216.33 -55.2542C2216.51 -54.5939 2216.75 -53.9672 2216.98 -53.2619L2308.59 -51.2742C2311.67 -56.2404 2313.88 -61.2866 2317.28 -65.0378C2327.08 -75.8539 2342.87 -75.4325 2352.84 -64.6427C2362.34 -54.3708 2362.57 -36.9738 2353.18 -26.1751C2351.52 -24.2767 2351.56 -22.9892 2352.65 -20.8474C2366.33 6.03197 2379.94 32.9448 2393.48 59.9087C2394.55 62.0502 2395.7 62.7227 2397.92 62.7009C2412.32 62.567 2423.97 75.5288 2423.63 91.1016C2423.29 106.674 2411.1 119.119 2396.71 118.361C2394.49 118.242 2393.32 118.873 2392.16 120.958C2377.41 147.413 2362.58 173.814 2347.7 200.17C2346.64 202.063 2346.58 203.2 2347.96 204.937C2354.87 213.665 2356.27 225.853 2351.63 235.512C2346.59 246.019 2336.68 252.133 2326.5 251.01C2315.74 249.823 2307.25 242.006 2304.32 230.599C2304.15 229.93 2303.91 229.277 2303.66 228.449L2210.8 226.434C2208.95 233.58 2205.39 239.446 2199.57 243.565C2189.14 250.953 2174.64 248.801 2166.82 238.635C2158.2 227.42 2158.29 211.745 2167.25 201.462C2168.95 199.504 2169.08 198.176 2167.9 195.857C2154.25 169.092 2140.69 142.268 2127.21 115.41C2126.1 113.198 2124.95 112.368 2122.56 112.395C2110.13 112.536 2099.66 102.882 2097.37 89.4584C2097.26 88.7907 2097.03 88.1468 2096.85 87.4952C2096.9 85.1681 2096.95 82.8409 2097 80.5137ZM2216.76 154.492C2191.49 137.523 2166.33 120.609 2141.17 103.713C2139.2 105.465 2137.41 107.063 2135.47 108.78C2149.77 137.056 2164.02 165.225 2177.9 192.66L2195.11 193.034C2202.02 180.737 2209.31 167.766 2216.77 154.492L2216.76 154.492ZM2219.7 18.7897C2212.81 5.16943 2206.06 -8.16775 2199.74 -20.6464L2182.52 -21.0201C2167.39 5.93441 2151.93 33.4596 2136.5 60.9588C2138.52 62.8846 2140.25 64.5414 2142.02 66.2254C2167.97 50.3854 2193.76 34.6296 2219.7 18.7897ZM2304.85 213.656C2278.36 195.864 2251.96 178.136 2225.44 160.326C2218.22 173.185 2211.24 185.559 2204.35 197.987C2203.98 198.67 2203.93 200 2204.29 200.673C2206.75 205.313 2209.35 209.859 2212.21 214.963L2303.96 216.954C2304.26 215.849 2304.53 214.874 2304.86 213.665L2304.85 213.656ZM2228.65 13.3381C2256.06 -3.39781 2283.21 -19.9732 2310.38 -36.5656C2309.97 -37.9575 2309.69 -38.9177 2309.4 -39.8867L2217.66 -41.8772C2214.89 -37.1757 2212.56 -32.7972 2209.81 -28.7693C2208.73 -27.1822 2208.52 -26.2853 2209.4 -24.5945C2215.21 -13.2734 2220.92 -1.88453 2226.67 9.47895C2227.27 10.6648 2227.88 11.851 2228.64 13.3292L2228.65 13.3381ZM2324.12 195.71L2326.31 94.6796L2286.37 93.8129C2283.25 98.8482 2280.45 103.278 2277.8 107.807C2277.42 108.464 2277.41 109.794 2277.76 110.493C2292.16 139.025 2306.61 167.523 2321.07 196.02C2321.15 196.197 2321.41 196.273 2321.67 196.463C2322.41 196.234 2323.22 195.988 2324.12 195.71ZM2326.7 83.2829L2328.89 -17.6955C2327.89 -18.0234 2326.93 -18.3332 2325.9 -18.6705C2321.21 -10.3345 2316.64 -2.21479 2312.08 5.91403C2301.12 25.449 2290.14 44.9835 2279.24 64.5636C2278.7 65.5322 2278.31 67.2656 2278.74 68.1064C2281.12 72.7883 2283.76 77.3096 2286.61 82.4131L2326.7 83.283L2326.7 83.2829ZM2230.82 150.727C2231.76 151.386 2232.38 151.828 2233.01 152.245C2257.96 169.005 2282.91 185.774 2307.86 202.535C2308.41 202.897 2308.91 203.433 2309.5 203.568C2310.01 203.684 2310.8 203.544 2311.13 203.166C2311.55 202.676 2311.84 201.825 2311.81 201.15C2311.78 200.528 2311.24 199.93 2310.94 199.319C2297.02 171.787 2283.11 144.246 2269.18 116.723C2268.74 115.847 2268.18 115.029 2268.17 115.011L2251.09 114.641C2244.57 126.246 2237.77 138.344 2230.82 150.727ZM2233.57 23.1344C2240 35.8431 2246.35 48.3837 2252.28 60.0836L2269.44 60.4559C2269.58 60.2139 2270.07 59.4542 2270.51 58.6673C2285.55 31.8685 2300.62 5.07011 2315.6 -21.7738C2316.18 -22.8202 2316.05 -24.346 2316.25 -25.6547C2315.06 -25.4968 2313.67 -25.7282 2312.7 -25.1366C2290.08 -11.4215 2267.49 2.382 2244.91 16.1767C2241.2 18.442 2237.5 20.7251 2233.57 23.1344ZM2336.89 94.9004L2334.7 195.966C2335.73 196.269 2336.62 196.533 2337.65 196.835C2353.17 169.18 2368.61 141.655 2383.89 114.441C2381.35 111.384 2378.75 108.903 2376.92 105.861C2375.09 102.828 2374.02 99.2333 2372.53 95.6649L2336.89 94.8916L2336.89 94.9004ZM2337.07 83.4992L2373.24 84.284C2375.1 76.7531 2379.09 70.7914 2385.17 66.4769C2370.78 38.0065 2356.53 9.82823 2342.25 -18.4034C2341.06 -18.0091 2340.18 -17.7131 2339.25 -17.4006L2337.06 83.5078L2337.07 83.4992ZM2146.36 94.0574C2171.68 111.062 2196.76 127.913 2222.1 144.936C2228.9 132.829 2235.57 120.956 2242.18 109.038C2242.45 108.563 2242.21 107.525 2241.9 106.949C2239.4 102.334 2236.82 97.7795 2233.96 92.6495L2147.47 90.7729C2147.14 91.7462 2146.82 92.7019 2146.36 94.0575L2146.36 94.0574ZM2224.63 28.5421C2198.4 44.5512 2172.61 60.307 2146.78 76.0793C2147.15 77.4178 2147.42 78.3865 2147.68 79.3374L2234.51 81.2214C2237.53 75.7989 2240.27 70.8866 2243.29 65.4555C2237.36 53.7117 2231.07 41.2598 2224.63 28.5334L2224.63 28.5421ZM2123.05 67.8095C2114.52 67.5719 2107.36 74.9702 2107.16 84.2177C2106.96 93.3339 2113.61 100.979 2122 101.293C2130.24 101.603 2137.4 94.2131 2137.73 85.0561C2138.06 76.0127 2131.28 68.0493 2123.05 67.8095ZM2413.41 90.8274C2413.59 81.7195 2406.86 74.0022 2398.53 73.7865C2390.21 73.571 2383.1 80.9355 2382.82 90.05C2382.54 99.287 2389.42 107.156 2397.86 107.269C2406.19 107.38 2413.23 99.9352 2413.41 90.8274ZM2201.2 220.597C2201.37 211.306 2194.5 203.436 2186.15 203.378C2177.85 203.32 2170.89 210.697 2170.62 219.855C2170.35 228.83 2177.21 236.646 2185.52 236.853C2193.82 237.059 2201.03 229.583 2201.2 220.597ZM2207.03 -48.0336C2207.19 -57.0281 2200.28 -64.7667 2191.98 -64.868C2183.67 -64.9783 2176.52 -57.4134 2176.44 -48.4433C2176.37 -39.2544 2183.03 -31.635 2191.32 -31.3938C2199.66 -31.1515 2206.86 -38.768 2207.03 -48.0336ZM2329.17 206.481C2320.76 206.351 2313.67 213.944 2313.55 223.21C2313.44 232.214 2320.39 239.901 2328.69 239.959C2336.87 240.014 2343.91 232.648 2344.13 223.786C2344.37 214.513 2337.53 206.61 2329.17 206.481ZM2349.96 -44.7923C2350.21 -53.7673 2343.34 -61.5751 2335.04 -61.764C2326.74 -61.9442 2319.53 -54.4593 2319.38 -45.482C2319.23 -36.3123 2325.82 -28.6418 2334.14 -28.2951C2342.47 -27.9567 2349.7 -35.5023 2349.96 -44.7923ZM2259.9 104.276C2268.12 104.498 2275.29 97.0649 2275.57 88.003C2275.86 79.02 2269.11 71.1448 2260.85 70.8168C2252.52 70.4874 2245.16 78.1352 2245 87.2698C2244.85 96.3169 2251.63 104.053 2259.9 104.276Z" fill="#17171A"/>
<path d="M924.162 415.001C929.663 412.271 935.25 410.542 941.235 411.596C946.864 412.588 951.325 415.265 954.598 419.627C955.59 420.941 956.497 421.448 958.316 421.096C983.917 416.155 1009.52 411.274 1035.13 406.455C1036.89 406.125 1037.53 405.473 1037.88 403.777C1039.87 394.25 1047.08 386.635 1056.06 384.414C1065.64 382.034 1074.92 385.122 1079.77 392.306C1085.01 400.053 1084.55 409.706 1078.56 418.276C1078.23 418.755 1077.95 419.259 1077.62 419.799L1126.74 480.77C1131.67 480.046 1136.19 478.715 1140.51 478.873C1152.97 479.325 1161.39 489.877 1159.82 502.33C1158.34 514.192 1147.09 523.916 1134.87 523.722C1132.71 523.684 1131.89 524.416 1131.09 526.306C1121.05 550.04 1110.95 573.745 1100.78 597.436C1099.97 599.315 1100.16 600.434 1101.4 601.875C1109.41 611.215 1107.35 625.956 1096.98 634.305C1086.62 642.654 1071.78 641.534 1064.36 631.716C1063.21 630.199 1062.16 629.78 1060.15 630.166C1034.74 635.083 1009.33 639.925 983.915 644.701C982.092 645.047 981.318 645.635 980.941 647.492C979.044 656.817 971.843 664.433 962.981 666.721C953.339 669.209 943.889 666.095 939.017 658.819C933.876 651.138 934.313 641.288 940.154 633.092C940.498 632.613 940.796 632.101 941.197 631.479L891.413 569.678C885.724 572.402 879.928 573.299 874.036 571.766C863.469 569.017 856.893 558.352 859.237 547.649C861.821 535.841 872.117 527.275 883.765 527.469C885.984 527.506 886.921 526.857 887.786 524.809C897.771 501.162 907.84 477.536 917.974 453.945C918.809 452.001 918.719 450.793 917.389 449.25C910.453 441.2 911.004 429.047 918.517 420.162C918.891 419.72 919.187 419.218 919.515 418.744C921.064 417.496 922.613 416.248 924.162 415.001ZM941.713 533.983C938.899 508.131 936.106 482.376 933.305 456.636C931.075 456.311 929.043 456.018 926.853 455.694C916.241 480.6 905.673 505.418 895.379 529.586L904.608 541.043C916.448 538.793 928.936 536.417 941.717 533.988L941.713 533.983ZM1032.03 461.229C1037.14 449.229 1042.14 437.474 1046.81 426.478L1037.58 415.015C1011.64 419.96 985.144 425.007 958.675 430.051C958.529 432.432 958.399 434.475 958.272 436.559C982.904 444.8 1007.4 452.987 1032.03 461.229ZM951.522 624.118C948.57 597.01 945.632 570.003 942.674 542.864C930.297 545.222 918.37 547.471 906.455 549.808C905.802 549.939 904.909 550.641 904.668 551.247C902.988 555.407 901.449 559.611 899.685 564.286L948.874 625.348C949.763 624.939 950.548 624.578 951.521 624.128L951.522 624.118ZM1040.51 464.076C1066.54 472.783 1092.31 481.403 1118.11 490.03C1118.79 488.997 1119.26 488.283 1119.74 487.565L1070.55 426.509C1065.96 427.284 1061.81 428.173 1057.67 428.592C1056.04 428.759 1055.33 429.114 1054.71 430.616C1050.51 440.647 1046.21 450.647 1041.95 460.658C1041.5 461.702 1041.06 462.756 1040.51 464.066L1040.51 464.076ZM973.854 626.836L1041.09 572.67L1019.68 546.086C1014.67 546.821 1010.24 547.429 1005.82 548.185C1005.18 548.297 1004.3 549.026 1004.04 549.641C993.315 574.752 982.643 599.881 971.971 625.011C971.902 625.163 971.992 625.371 972.016 625.65C972.573 626.008 973.176 626.399 973.854 626.836ZM1048.75 566.649L1115.96 512.512C1115.63 511.683 1115.29 510.879 1114.95 510.024C1106.92 511.546 1099.1 513.025 1091.28 514.519C1072.48 518.104 1053.67 521.679 1034.87 525.33C1033.94 525.51 1032.59 526.209 1032.28 526.953C1030.53 531.083 1029.03 535.299 1027.26 539.969L1048.76 566.654L1048.75 566.649ZM951.91 541.099C951.999 542.08 952.048 542.724 952.123 543.366C954.899 568.897 957.67 594.433 960.446 619.964C960.509 620.519 960.438 621.146 960.673 621.605C960.878 622.002 961.402 622.439 961.83 622.445C962.385 622.454 963.101 622.176 963.524 621.782C963.916 621.423 964.01 620.742 964.24 620.205C974.578 595.959 984.921 571.709 995.248 547.462C995.576 546.689 995.803 545.875 995.806 545.855L986.649 534.488C975.476 536.613 963.83 538.829 951.91 541.099ZM1036.82 472.683C1032.05 483.881 1027.35 494.931 1022.96 505.244L1032.16 516.664C1032.4 516.623 1033.16 516.524 1033.92 516.379C1059.72 511.465 1085.52 506.562 1111.31 501.582C1112.31 501.387 1113.24 500.464 1114.21 499.873C1113.44 499.178 1112.83 498.145 1111.91 497.835C1090.5 490.597 1069.05 483.433 1047.6 476.264C1044.08 475.085 1040.56 473.926 1036.82 472.683ZM1046.77 579.708L979.51 633.892C979.876 634.728 980.197 635.461 980.564 636.297C1007.18 631.222 1033.67 626.17 1059.86 621.18C1060.46 617.837 1060.66 614.772 1061.63 611.897C1062.61 609.032 1064.37 606.358 1065.88 603.42L1046.78 579.703L1046.77 579.708ZM1054.32 573.548L1073.71 597.622C1079.66 594.692 1085.75 594.02 1091.92 595.621C1102.6 570.543 1113.18 545.726 1123.77 520.854C1122.86 520.292 1122.18 519.881 1121.47 519.448L1054.31 573.548L1054.32 573.548ZM942.469 454.71C945.289 480.618 948.08 506.287 950.897 532.214C962.55 529.993 973.985 527.824 985.41 525.584C985.868 525.497 986.418 524.773 986.62 524.25C988.261 520.077 989.819 515.885 991.596 511.19L945.226 453.629C944.412 453.952 943.608 454.266 942.473 454.715L942.469 454.71ZM1028.36 469.813C1003.47 461.484 978.976 453.297 954.451 445.092C953.78 446.071 953.294 446.779 952.815 447.472L999.369 505.262C1004.58 504.252 1009.29 503.338 1014.51 502.328C1018.92 491.987 1023.59 481.021 1028.37 469.808L1028.36 469.813ZM946.798 425.033C942.262 419.33 933.483 418.718 927.329 423.676C921.262 428.563 919.922 437.115 924.338 442.775C928.668 448.33 937.437 448.94 943.606 444.12C949.695 439.355 951.171 430.544 946.798 425.033ZM1091.54 627.474C1097.59 622.581 1098.93 613.933 1094.49 608.372C1090.05 602.816 1081.33 602.223 1075.22 607.058C1069.03 611.958 1067.67 620.781 1072.24 626.36C1076.75 631.865 1085.49 632.368 1091.54 627.474ZM889.942 560.189C896.113 555.192 897.474 546.369 892.919 540.882C888.385 535.421 879.736 534.934 873.601 539.797C867.589 544.561 866.25 553.34 870.689 558.886C875.123 564.426 883.975 565.022 889.942 560.189ZM1068.72 416.169C1074.69 411.326 1075.95 402.552 1071.45 397.073C1066.95 391.579 1058.07 391.067 1052.16 395.954C1046.12 400.964 1044.8 409.507 1049.21 415.061C1053.64 420.647 1062.58 421.157 1068.72 416.169ZM969.594 636.065C965.052 630.497 956.188 630.042 950.065 635.062C944.117 639.942 942.917 648.714 947.446 654.17C951.915 659.551 960.601 660.096 966.517 655.366C972.706 650.415 974.111 641.6 969.594 636.065ZM1145.26 511.373C1151.27 506.598 1152.59 497.813 1148.15 492.282C1143.69 486.756 1134.84 486.165 1128.89 491.009C1122.81 495.956 1121.43 504.485 1125.77 510.111C1130.14 515.743 1139.05 516.317 1145.26 511.373ZM998.273 534.544C1002.65 540.041 1011.45 540.633 1017.53 535.833C1023.56 531.074 1025 522.331 1020.66 516.752C1016.3 511.13 1007.25 510.527 1001.19 515.45C995.192 520.327 993.868 529.015 998.273 534.544Z" fill="#17171A"/>
<path d="M644.68 176.62C641.012 172.341 638.214 167.76 637.803 162.197C637.417 156.966 638.793 152.394 641.936 148.498C642.882 147.319 643.128 146.398 642.405 144.859C632.239 123.195 622.127 101.518 612.067 79.8163C611.377 78.3249 610.653 77.9062 609.064 77.9749C600.139 78.3477 591.739 73.6486 587.74 66.1652C583.462 58.1739 584.119 49.2256 589.416 43.2866C595.13 36.8846 603.819 35.1116 612.795 38.5094C613.297 38.6984 613.807 38.8308 614.362 39.0053L657.539 -18.4355C655.782 -22.6655 653.58 -26.3831 652.746 -30.2645C650.339 -41.4529 657.831 -51.3175 669.264 -52.7306C680.152 -54.0823 691.338 -46.2702 693.921 -35.3497C694.372 -33.4263 695.209 -32.8603 697.071 -32.574C720.45 -28.9913 743.817 -25.347 767.187 -21.6379C769.041 -21.3416 769.993 -21.7631 770.997 -23.1891C777.501 -32.4242 791.081 -33.9086 800.846 -26.5693C810.61 -19.2299 812.958 -5.77157 805.895 3.04292C804.804 4.40298 804.669 5.43879 805.464 7.13403C815.566 28.6315 825.601 50.1493 835.578 71.6866C836.297 73.231 836.995 73.787 838.732 73.7041C847.456 73.2901 855.855 77.9801 859.888 85.3485C864.275 93.3666 863.634 102.476 858.259 108.45C852.584 114.756 843.721 116.587 835.113 113.238C834.61 113.04 834.087 112.89 833.443 112.673L789.679 170.895C793.384 175.343 795.489 180.297 795.453 185.885C795.389 195.906 787.382 204.16 777.332 204.488C766.243 204.85 756.302 197.62 753.849 187.213C753.382 185.23 752.593 184.543 750.576 184.235C727.287 180.681 703.997 177.048 680.724 173.348C678.806 173.044 677.752 173.396 676.678 174.926C671.079 182.912 660.143 185.161 650.545 180.479C650.067 180.246 649.554 180.095 649.058 179.911C647.599 178.814 646.139 177.717 644.68 176.62ZM746.584 134.189C724.217 142.519 701.933 150.808 679.663 159.101C679.876 161.159 680.073 163.032 680.279 165.054C704.83 168.882 729.292 172.691 753.114 176.403L761.228 165.609C756.557 155.582 751.629 145.008 746.587 134.184L746.584 134.189ZM661.499 70.2331C649.671 68.3923 638.086 66.5932 627.247 64.9085L619.13 75.7071C629.377 97.6742 639.839 120.109 650.292 142.521C652.443 142.115 654.29 141.77 656.173 141.413C657.954 117.641 659.718 94.0052 661.499 70.2331ZM824.567 105.146C801.114 113.882 777.748 122.583 754.269 131.331C759.156 141.812 763.846 151.916 768.609 161.991C768.873 162.542 769.7 163.179 770.294 163.256C774.373 163.813 778.46 164.235 783.017 164.751L826.258 107.225C825.693 106.526 825.195 105.909 824.576 105.145L824.567 105.146ZM662.119 62.0414C664 36.9253 665.861 12.0528 667.723 -12.8429C666.649 -13.2188 665.908 -13.4778 665.161 -13.7409L621.925 43.7801C623.651 47.6968 625.375 51.1813 626.683 54.7755C627.199 56.1906 627.673 56.7355 629.151 56.9518C639.021 58.4271 648.887 60.0005 658.756 61.5365C659.784 61.6982 660.821 61.8498 662.11 62.0423L662.119 62.0414ZM821.951 84.6645L758.605 37.0493L739.78 62.0942C741.562 66.3822 743.103 70.1911 744.772 73.9552C745.015 74.4991 745.86 75.1108 746.467 75.206C771.226 79.0887 795.989 82.9199 820.752 86.751C820.903 86.7783 821.068 86.651 821.311 86.5672C821.504 85.9907 821.716 85.3659 821.951 84.6645ZM751.522 31.5916L688.209 -15.9988C687.546 -15.5168 686.906 -15.0415 686.222 -14.5435C689.386 -7.74251 692.465 -1.11476 695.557 5.5071C702.985 21.426 710.404 37.3549 717.889 53.2543C718.259 54.0418 719.184 55.0828 719.916 55.1939C723.986 55.8217 728.075 56.2057 732.629 56.7267L751.526 31.5866L751.522 31.5916ZM750.617 123.512C751.469 123.212 752.032 123.023 752.586 122.812C774.675 114.587 796.77 106.367 818.86 98.1427C819.339 97.9619 819.913 97.8835 820.269 97.5705C820.575 97.2992 820.846 96.7339 820.755 96.3521C820.638 95.8565 820.229 95.282 819.784 94.9946C819.376 94.7269 818.748 94.7964 818.219 94.7124C794.317 90.9799 770.41 87.2433 746.51 83.52C745.749 83.4024 744.973 83.3838 744.955 83.3856L736.905 94.0941C741.314 103.556 745.911 113.418 750.617 123.512ZM670.61 63.3888C681.647 65.1056 692.538 66.7991 702.702 68.3766L710.789 57.618C710.699 57.4173 710.439 56.7589 710.139 56.1181C699.954 34.2753 689.775 12.4225 679.532 -9.40082C679.132 -10.2505 678.102 -10.8677 677.359 -11.5915C676.913 -10.7582 676.131 -9.98116 676.063 -9.09121C674.45 11.5915 672.91 32.2903 671.365 52.985C671.11 56.3851 670.873 59.7834 670.61 63.3888ZM763.587 30.4107L826.955 78.0424C827.616 77.5279 828.195 77.0771 828.857 76.5626C818.343 54.026 807.877 31.5964 797.534 9.41536C794.424 9.63467 791.654 10.1562 788.876 9.93451C786.108 9.71197 783.331 8.74625 780.377 8.06262L763.581 30.4066L763.587 30.4107ZM756.406 25.0832L773.453 2.40354C769.507 -2.22539 767.536 -7.49485 767.57 -13.3427C742.85 -17.1965 718.386 -21.0145 693.87 -24.8322C693.576 -23.8927 693.363 -23.198 693.138 -22.4651L756.407 25.0924L756.406 25.0832ZM675.884 151.383C698.299 143.034 720.507 134.766 742.94 126.415C738.338 116.549 733.831 106.864 729.263 97.2033C729.082 96.8162 728.314 96.49 727.803 96.4274C723.721 95.9078 719.639 95.4671 715.062 94.9439L674.3 149.173C674.771 149.825 675.232 150.469 675.888 151.378L675.884 151.383ZM669.962 71.5598C668.163 95.5848 666.398 119.22 664.626 142.889C665.649 143.266 666.388 143.539 667.112 143.809L708.036 89.3644C705.964 84.9601 704.087 80.9695 702.013 76.5561C691.819 74.9631 681.008 73.2757 669.956 71.5557L669.962 71.5598ZM648.504 154.219C644.452 159.541 645.887 167.489 651.685 171.847C657.401 176.144 665.311 175.408 669.352 170.203C673.317 165.099 671.885 157.16 666.206 152.758C660.594 148.414 652.422 149.087 648.504 154.219ZM795.995 -20.185C790.277 -24.4672 782.282 -23.7094 778.335 -18.5044C774.392 -13.3045 775.831 -5.40807 781.509 -1.06155C787.264 3.3427 795.421 2.56474 799.354 -2.75984C803.235 -8.01427 801.713 -15.9027 795.995 -20.185ZM781.568 174.343C775.731 169.979 767.575 170.757 763.719 176.046C759.882 181.31 761.398 189.115 767.108 193.477C772.702 197.753 780.814 196.965 784.748 191.766C788.678 186.572 787.213 178.562 781.568 174.343ZM613.137 47.7385C607.483 43.5198 599.394 44.3797 595.534 49.6182C591.66 54.8626 593.206 62.8789 598.886 67.0301C604.706 71.2793 612.603 70.5261 616.551 65.3536C620.522 60.151 618.962 52.0849 613.137 47.7385ZM831.122 86.3744C827.193 91.6706 828.786 99.6592 834.632 103.976C840.314 108.168 848.39 107.259 852.223 102C856.003 96.8106 854.53 88.9593 848.988 84.7624C843.189 80.3717 835.029 81.1081 831.122 86.3744ZM680.591 -41.8169C674.989 -46.0824 666.875 -45.2806 662.956 -40.0783C659.042 -34.8719 660.513 -26.8577 666.163 -22.6573C671.935 -18.3662 679.835 -19.0545 683.86 -24.1926C687.888 -29.3448 686.39 -37.403 680.591 -41.8169ZM734.335 83.7397C738.238 78.604 736.782 70.6395 731.141 66.3127C725.548 62.023 717.447 62.7167 713.459 67.828C709.441 72.9793 710.944 81.1671 716.689 85.4467C722.38 89.6851 730.409 88.9054 734.335 83.7397Z" fill="#17171A"/>
<g filter="url(#filter1_d_133_1936)">
<path d="M1007.91 -102.49C1013.42 -107.996 1019.59 -112.414 1027.77 -113.875C1035.45 -115.248 1042.57 -114.208 1049.1 -110.746C1051.07 -109.705 1052.5 -109.536 1054.62 -110.737C1084.47 -127.622 1114.36 -144.44 1144.3 -161.193C1146.36 -162.343 1146.81 -163.359 1146.34 -165.424C1143.71 -177.029 1148.75 -188.79 1158.95 -195.26C1169.84 -202.178 1183.3 -202.805 1193.36 -196.867C1204.21 -190.461 1208.87 -179.396 1205.9 -167.1C1205.73 -166.412 1205.65 -165.724 1205.52 -164.968L1300.97 -118.065C1306.85 -121.063 1311.87 -124.559 1317.45 -126.293C1333.53 -131.297 1349.94 -123.141 1354.7 -108.431C1359.23 -94.422 1350.21 -78.503 1334.57 -73.3142C1331.82 -72.4048 1331.17 -71.2174 1331.18 -68.7354C1331.28 -37.5799 1331.28 -6.4297 1331.19 24.7348C1331.18 27.2086 1332.03 28.3832 1334.39 29.4579C1349.63 36.4265 1354.99 53.9329 1346.34 67.9149C1337.7 81.8969 1318.23 87.2017 1303.48 79.4318C1301.2 78.2315 1299.63 78.2273 1297.29 79.5475C1267.67 96.3215 1238 113.012 1208.29 129.63C1206.16 130.826 1205.49 131.831 1206.02 134.087C1208.66 145.422 1203.64 157.18 1193.62 163.676C1182.71 170.741 1169.02 171.416 1158.88 165.381C1148.19 159.01 1143.41 147.729 1146.39 135.92C1146.57 135.229 1146.67 134.521 1146.84 133.643L1050.1 86.1009C1044.34 91.6825 1037.46 95.2566 1029.14 96.1366C1014.23 97.7167 1000.09 88.6202 997.272 75.5375C994.159 61.1023 1002.6 46.907 1017.51 41.9727C1020.35 41.0328 1021.19 39.888 1021.18 37.1998C1021.06 6.16682 1021.05 -24.8802 1021.15 -55.9178C1021.16 -58.4749 1020.39 -59.7949 1017.86 -60.9436C1004.69 -66.9371 998.802 -80.8595 1003.54 -94.1837C1003.77 -94.8461 1003.88 -95.5423 1004.04 -96.2218C1005.33 -98.3112 1006.62 -100.401 1007.91 -102.49ZM1094.68 23.6727C1077.09 -4.18156 1059.59 -31.9355 1042.09 -59.6697C1039.08 -59.0496 1036.34 -58.4809 1033.38 -57.8759C1033.39 -25.1478 1033.4 7.46148 1033.41 39.2183L1051.35 48.0319C1065.18 40.2623 1079.76 32.0641 1094.68 23.6768L1094.68 23.6727ZM1170.03 -98.1673C1170.02 -113.935 1170.01 -129.377 1169.99 -143.824L1152.05 -152.642C1121.76 -135.601 1090.83 -118.201 1059.93 -100.816C1061.03 -98.0713 1061.97 -95.7138 1062.94 -93.3123C1098.7 -94.9309 1134.26 -96.5487 1170.03 -98.1673ZM1155.97 120.79C1137.54 91.583 1119.17 62.4838 1100.71 33.2443C1086.26 41.3731 1072.32 49.1808 1058.45 57.0805C1057.69 57.5169 1056.93 58.7027 1056.95 59.492C1057.07 64.9174 1057.4 70.3301 1057.69 76.3727L1153.28 123.346C1154.18 122.492 1154.99 121.739 1155.98 120.802L1155.97 120.79ZM1182.36 -98.7165C1220.14 -100.427 1257.56 -102.124 1295.02 -103.823C1295.33 -105.289 1295.54 -106.301 1295.76 -107.321L1200.18 -154.29C1194.76 -151.384 1189.97 -148.55 1184.93 -146.245C1182.95 -145.335 1182.25 -144.625 1182.27 -142.658C1182.37 -129.51 1182.32 -116.352 1182.33 -103.197C1182.32 -101.825 1182.34 -100.445 1182.35 -98.7284L1182.36 -98.7165ZM1185.83 113.971L1241.93 23.2608L1200.31 2.81019C1194.35 5.8512 1189.04 8.49783 1183.83 11.3045C1183.08 11.7133 1182.36 12.9195 1182.36 13.7283C1182.34 46.7374 1182.39 79.7437 1182.44 112.75C1182.44 112.952 1182.67 113.146 1182.85 113.45C1183.75 113.606 1184.73 113.78 1185.83 113.971ZM1248.4 13.0952L1304.47 -77.568C1303.6 -78.3544 1302.74 -79.1128 1301.84 -79.9235C1292.46 -74.6589 1283.32 -69.5335 1274.19 -64.392C1252.24 -52.0403 1230.28 -39.6968 1208.37 -27.2732C1207.29 -26.6594 1205.95 -25.2762 1205.96 -24.3009C1205.97 -18.8771 1206.35 -13.4675 1206.63 -7.42906L1248.41 13.0993L1248.4 13.0952ZM1111.49 27.1725C1112.13 28.237 1112.55 28.941 1112.99 29.6297C1130.35 57.1397 1147.7 84.6575 1165.06 112.167C1165.44 112.764 1165.69 113.501 1166.24 113.914C1166.72 114.27 1167.62 114.53 1168.17 114.348C1168.88 114.113 1169.64 113.482 1169.96 112.853C1170.26 112.275 1170.01 111.466 1170.02 110.76C1170.02 78.8966 1170.02 47.0251 1170.01 15.1652C1170.01 14.1502 1169.86 13.1329 1169.85 13.109L1152.05 4.36494C1139.01 11.6985 1125.41 19.3448 1111.49 27.1725ZM1182.32 -87.394C1182.33 -72.6812 1182.34 -58.1625 1182.36 -44.6152L1200.23 -35.8302C1200.51 -35.9806 1201.43 -36.4304 1202.31 -36.9283C1232.43 -53.8692 1262.57 -70.8019 1292.64 -87.8148C1293.81 -88.4788 1294.49 -89.9275 1295.4 -91.0198C1294.05 -91.4645 1292.72 -92.3571 1291.38 -92.2983C1260.24 -90.9737 1229.1 -89.5501 1197.97 -88.1344C1192.85 -87.9032 1187.75 -87.6482 1182.32 -87.394ZM1252.96 28.6705L1196.84 119.412C1197.75 120.191 1198.56 120.874 1199.48 121.653C1230.55 104.168 1261.48 86.7634 1292.06 69.56C1291.01 65.5318 1289.59 61.9975 1289.28 58.3294C1288.97 54.6732 1289.76 50.8832 1290.09 46.9078L1252.96 28.6626L1252.96 28.6705ZM1259.21 18.3985L1296.9 36.9178C1302.86 30.9906 1310.24 27.5391 1318.95 26.6134C1318.94 -6.34068 1318.94 -38.9537 1318.92 -71.6344C1317.45 -71.8629 1316.37 -72.0261 1315.23 -72.1982L1259.2 18.4022L1259.21 18.3985ZM1052.69 -65.8909C1070.31 -37.9765 1087.76 -10.3185 1105.39 17.6198C1118.99 9.96567 1132.35 2.46634 1145.66 -5.10909C1146.19 -5.41018 1146.5 -6.46802 1146.47 -7.14636C1146.3 -12.5687 1146 -17.9769 1145.72 -24.0471L1055.61 -68.3282C1054.75 -67.6039 1053.9 -66.8953 1052.7 -65.8868L1052.69 -65.8909ZM1170.02 -86.8841C1133.88 -85.2475 1098.32 -83.6297 1062.71 -82.0167C1062.38 -80.6181 1062.15 -79.6068 1061.92 -78.6152L1152.38 -34.1582C1158.45 -37.598 1163.95 -40.7135 1170.03 -44.1571C1170.04 -57.7478 1170.03 -72.1593 1170.03 -86.8919L1170.02 -86.8841ZM1042.11 -101.211C1033.26 -105.624 1021.77 -102.429 1016.64 -94.1263C1011.58 -85.9414 1014.51 -75.7234 1023.18 -71.3051C1031.7 -66.9687 1043.17 -70.1595 1048.4 -78.3142C1053.55 -86.3708 1050.66 -96.9412 1042.11 -101.211ZM1335.72 62.6344C1340.76 54.4491 1337.78 44.1233 1329.12 39.8283C1320.47 35.5373 1309.07 38.7291 1303.92 46.8731C1298.71 55.1272 1301.76 65.6602 1310.59 69.9183C1319.3 74.119 1330.68 70.8197 1335.72 62.6344ZM1043.09 76.0705C1048.22 67.7161 1045.17 57.1831 1036.41 53.0212C1027.69 48.8799 1016.43 52.1572 1011.27 60.3447C1006.21 68.3672 1009.27 78.8408 1017.91 83.1198C1026.55 87.3947 1038.12 84.1499 1043.09 76.0705ZM1192.25 -165.12C1197.21 -173.211 1194.06 -183.642 1185.37 -187.819C1176.67 -192.012 1165.11 -188.66 1160.25 -180.547C1155.29 -172.234 1158.24 -162.035 1166.85 -157.733C1175.51 -153.406 1187.14 -156.785 1192.25 -165.12ZM1185.41 126.243C1176.62 121.986 1165.11 125.394 1160.05 133.754C1155.14 141.877 1158.36 152.282 1167.07 156.42C1175.67 160.5 1187 157.271 1191.96 149.33C1197.14 141.02 1194.15 130.476 1185.41 126.243ZM1341.1 -91.8127C1346.14 -99.8434 1343.06 -110.317 1334.41 -114.577C1325.76 -118.828 1314.19 -115.575 1309.25 -107.491C1304.21 -99.2347 1307.07 -89.0218 1315.64 -84.613C1324.24 -80.2039 1335.88 -83.4993 1341.1 -91.8127ZM1166.86 -0.713726C1175.4 3.53597 1186.91 0.310012 1192.03 -7.78283C1197.11 -15.805 1194.2 -26.2804 1185.67 -30.6448C1177.08 -35.042 1165.25 -31.7178 1160.22 -23.4967C1155.24 -15.3541 1158.26 -4.98797 1166.86 -0.713726Z" fill="#8257E5"/>
</g>
<g filter="url(#filter2_d_133_1936)">
<path d="M1602.42 412.666C1612.57 407.216 1623.18 403.585 1635.38 404.999C1646.85 406.328 1656.49 410.833 1664.25 418.512C1666.6 420.826 1668.55 421.672 1672.07 420.875C1721.53 409.678 1771.01 398.592 1820.54 387.617C1823.94 386.865 1825.02 385.62 1825.23 382.495C1826.45 364.945 1838.59 350.436 1855.79 345.619C1874.16 340.46 1893.48 345.303 1905.2 357.995C1917.83 371.685 1919.71 389.334 1910.27 405.481C1909.75 406.384 1909.34 407.326 1908.84 408.34L2024.01 515.394C2033.62 513.653 2042.21 510.84 2050.85 510.759C2075.75 510.521 2095.51 529.056 2095.98 551.91C2096.44 573.679 2076.89 592.379 2052.54 593.066C2048.25 593.181 2046.83 594.586 2045.78 598.103C2032.66 642.261 2019.4 686.371 2006.01 730.461C2004.94 733.959 2005.64 735.983 2008.51 738.507C2027.13 754.865 2027.27 781.936 2009.07 798.052C1990.87 814.168 1961.05 813.39 1943.47 796.108C1940.76 793.44 1938.54 792.765 1934.67 793.639C1885.58 804.777 1836.46 815.776 1787.31 826.656C1783.79 827.443 1782.42 828.583 1782.2 832.001C1781.12 849.177 1769 863.686 1752.04 868.616C1733.59 873.977 1713.91 869.101 1702.13 856.242C1689.7 842.666 1687.74 824.657 1696.99 809.206C1697.53 808.303 1697.98 807.344 1698.6 806.175L1581.85 697.664C1571.33 703.117 1560.07 705.249 1547.91 702.953C1526.12 698.839 1509.98 679.94 1511.55 660.215C1513.29 638.45 1531.29 621.945 1554.5 621.305C1558.92 621.184 1560.6 619.919 1561.73 616.109C1574.77 572.116 1587.98 528.152 1601.34 484.246C1602.43 480.628 1601.91 478.432 1598.82 475.73C1582.72 461.634 1580.31 439.415 1592.69 422.564C1593.31 421.726 1593.75 420.785 1594.27 419.891C1596.99 417.483 1599.7 415.074 1602.42 412.666ZM1671.56 628.25C1658.52 581.324 1645.56 534.573 1632.58 487.85C1628.06 487.446 1623.93 487.084 1619.49 486.681C1605.56 533.026 1591.7 579.206 1578.19 624.177L1599.84 644.294C1622.73 639.18 1646.86 633.78 1671.57 628.259L1671.56 628.25ZM1830.13 487.814C1836.83 465.485 1843.39 443.612 1849.52 423.151L1827.87 403.025C1777.73 414.258 1726.52 425.725 1675.36 437.183C1675.75 441.539 1676.08 445.278 1676.43 449.091C1727.76 462.028 1778.8 474.878 1830.13 487.814ZM1717 791.865C1703.33 742.657 1689.72 693.635 1676.03 644.372C1652.1 649.729 1629.04 654.85 1606.03 660.127C1604.77 660.422 1603.2 661.78 1602.89 662.907C1600.75 670.64 1598.9 678.441 1596.74 687.121L1712.09 794.334C1713.74 793.511 1715.2 792.787 1717 791.883L1717 791.865ZM1847.82 492.285C1902.05 505.952 1955.76 519.484 2009.52 533.025C2010.58 531.081 2011.32 529.739 2012.06 528.388L1896.72 421.184C1887.8 422.99 1879.83 424.966 1871.71 426.084C1868.51 426.527 1867.21 427.235 1866.41 430.029C1860.95 448.688 1855.28 467.298 1849.69 485.928C1849.1 487.87 1848.53 489.83 1847.82 492.267L1847.82 492.285ZM1762.17 794.919L1880.23 690.364L1830.01 643.687C1820.28 645.454 1811.63 646.942 1803.06 648.698C1801.82 648.957 1800.3 650.361 1799.95 651.506C1785.86 698.234 1771.88 744.992 1757.91 791.75C1757.81 792.034 1758.05 792.405 1758.18 792.913C1759.39 793.519 1760.7 794.181 1762.17 794.919ZM1893.72 678.726L2011.72 574.225C2010.83 572.741 2009.94 571.303 2009.01 569.772C1993.49 573.233 1978.36 576.598 1963.24 579.991C1926.91 588.135 1890.55 596.26 1854.24 604.524C1852.44 604.931 1849.97 606.322 1849.56 607.705C1847.26 615.389 1845.5 623.21 1843.32 631.881L1893.73 678.735L1893.72 678.726ZM1693.88 640.365C1694.34 642.146 1694.62 643.318 1694.95 644.482C1707.82 690.827 1720.68 737.18 1733.54 783.525C1733.83 784.532 1733.87 785.682 1734.47 786.5C1734.99 787.206 1736.16 787.958 1737.01 787.933C1738.11 787.903 1739.46 787.333 1740.18 786.58C1740.86 785.891 1740.85 784.64 1741.16 783.641C1754.72 738.524 1768.3 693.398 1781.85 648.28C1782.28 646.842 1782.5 645.337 1782.5 645.3L1761.02 625.342C1739.43 630.171 1716.92 635.207 1693.88 640.365ZM1842.95 508.303C1836.7 529.14 1830.54 549.703 1824.79 568.891L1846.36 588.942C1846.82 588.847 1848.31 588.602 1849.77 588.273C1899.63 577.109 1949.51 565.964 1999.34 554.68C2001.28 554.239 2002.86 552.476 2004.6 551.315C2002.89 550.113 2001.38 548.28 1999.46 547.793C1954.81 536.413 1910.11 525.17 1865.42 513.917C1858.08 512.067 1850.74 510.253 1842.95 508.303ZM1893.55 702.72L1775.45 807.311C1776.41 808.806 1777.26 810.115 1778.23 811.609C1829.68 800.081 1880.88 788.605 1931.51 777.269C1931.74 771.119 1931.23 765.51 1932.35 760.182C1933.46 754.872 1936.2 749.843 1938.36 744.354L1893.56 702.711L1893.55 702.72ZM1906.78 690.839L1952.25 733.108C1963.23 727.256 1975.14 725.51 1987.86 727.906C2001.88 681.241 2015.77 635.061 2029.66 588.78C2027.68 587.832 2026.22 587.14 2024.67 586.41L1906.76 690.839L1906.78 690.839ZM1650.24 483.554C1663.31 530.582 1676.24 577.176 1689.31 624.241C1711.83 619.196 1733.93 614.264 1756 609.203C1756.88 609.004 1757.77 607.637 1758.02 606.665C1760.08 598.913 1761.97 591.131 1764.15 582.414L1655.41 481.346C1653.89 482.005 1652.38 482.646 1650.25 483.564L1650.24 483.554ZM1825.32 503.788C1773.44 490.714 1722.4 477.864 1671.29 464.986C1670.24 466.829 1669.48 468.161 1668.72 469.466L1777.89 570.936C1787.95 568.649 1797.06 566.579 1807.14 564.292C1812.93 545.049 1819.07 524.643 1825.33 503.779L1825.32 503.788ZM1650.31 429.04C1639.65 419.021 1622.02 418.653 1611.22 428.223C1600.56 437.658 1600.36 453.374 1610.77 463.325C1620.98 473.09 1638.58 473.457 1649.45 464.136C1660.19 454.924 1660.58 438.723 1650.31 429.04ZM1996.28 786.053C2006.9 776.609 2007.07 760.718 1996.65 750.95C1986.23 741.192 1968.71 740.854 1957.96 750.195C1947.06 759.662 1946.9 775.876 1957.59 785.665C1968.14 795.324 1985.66 795.497 1996.28 786.053ZM1576.2 680.476C1587.02 670.833 1587.19 654.62 1576.56 644.996C1565.97 635.42 1548.64 635.268 1537.85 644.663C1527.27 653.869 1527.13 670 1537.55 679.739C1547.96 689.47 1565.73 689.803 1576.2 680.476ZM1890.11 402.475C1900.58 393.13 1900.55 377.015 1890.03 367.403C1879.49 357.763 1861.7 357.586 1851.37 367.006C1840.79 376.662 1840.63 392.361 1850.99 402.118C1861.41 411.931 1879.32 412.101 1890.11 402.475ZM1756.36 812.12C1745.73 802.35 1727.98 802.275 1717.26 811.956C1706.84 821.366 1706.98 837.473 1717.55 847.04C1727.98 856.477 1745.4 856.731 1755.8 847.597C1766.68 838.037 1766.93 821.834 1756.36 812.12ZM2069.65 569.65C2080.21 560.426 2080.31 544.286 2069.88 534.573C2059.44 524.87 2041.67 524.546 2031.24 533.892C2020.58 543.436 2020.28 559.114 2030.55 569.008C2040.84 578.912 2058.72 579.2 2069.65 569.65ZM1784.15 624.453C1794.43 634.109 1812.1 634.44 1822.8 625.163C1833.41 615.967 1833.75 599.894 1823.53 590.083C1813.24 580.198 1795.07 579.869 1784.45 589.368C1773.93 598.777 1773.8 614.742 1784.15 624.453Z" fill="#8257E5"/>
</g>
</g>
<defs>
<filter id="filter0_d_133_1936" x="-246.106" y="124.616" width="471.851" height="427.117" filterUnits="userSpaceOnUse" color-interpolation-filters="sRGB">
<feFlood flood-opacity="0" result="BackgroundImageFix"/>
<feColorMatrix in="SourceAlpha" type="matrix" values="0 0 0 0 0 0 0 0 0 0 0 0 0 0 0 0 0 0 127 0" result="hardAlpha"/>
<feOffset dy="8"/>
<feGaussianBlur stdDeviation="4"/>
<feComposite in2="hardAlpha" operator="out"/>
<feColorMatrix type="matrix" values="0 0 0 0 0.235294 0 0 0 0 0.172549 0 0 0 0 0.384314 0 0 0 1 0"/>
<feBlend mode="normal" in2="BackgroundImageFix" result="effect1_dropShadow_133_1936"/>
<feBlend mode="normal" in="SourceGraphic" in2="effect1_dropShadow_133_1936" result="shape"/>
</filter>
<filter id="filter1_d_133_1936" x="988.63" y="-200.921" width="375.239" height="386.402" filterUnits="userSpaceOnUse" color-interpolation-filters="sRGB">
<feFlood flood-opacity="0" result="BackgroundImageFix"/>
<feColorMatrix in="SourceAlpha" type="matrix" values="0 0 0 0 0 0 0 0 0 0 0 0 0 0 0 0 0 0 127 0" result="hardAlpha"/>
<feOffset dy="8"/>
<feGaussianBlur stdDeviation="4"/>
<feComposite in2="hardAlpha" operator="out"/>
<feColorMatrix type="matrix" values="0 0 0 0 0.235294 0 0 0 0 0.172549 0 0 0 0 0.384314 0 0 0 1 0"/>
<feBlend mode="normal" in2="BackgroundImageFix" result="effect1_dropShadow_133_1936"/>
<feBlend mode="normal" in="SourceGraphic" in2="effect1_dropShadow_133_1936" result="shape"/>
</filter>
<filter id="filter2_d_133_1936" x="1503.45" y="343.585" width="600.542" height="543.179" filterUnits="userSpaceOnUse" color-interpolation-filters="sRGB">
<feFlood flood-opacity="0" result="BackgroundImageFix"/>
<feColorMatrix in="SourceAlpha" type="matrix" values="0 0 0 0 0 0 0 0 0 0 0 0 0 0 0 0 0 0 127 0" result="hardAlpha"/>
<feOffset dy="8"/>
<feGaussianBlur stdDeviation="4"/>
<feComposite in2="hardAlpha" operator="out"/>
<feColorMatrix type="matrix" values="0 0 0 0 0.235294 0 0 0 0 0.172549 0 0 0 0 0.384314 0 0 0 1 0"/>
<feBlend mode="normal" in2="BackgroundImageFix" result="effect1_dropShadow_133_1936"/>
<feBlend mode="normal" in="SourceGraphic" in2="effect1_dropShadow_133_1936" result="shape"/>
</filter>
<clipPath id="clip0_133_1936">
<rect width="2353" height="685" fill="white"/>
</clipPath>
</defs>
</svg>
