<svg width="313" height="279" viewBox="0 0 313 279" fill="none" xmlns="http://www.w3.org/2000/svg">
<g clip-path="url(#clip0_4_1242)">
<path d="M68.1583 85.9078C67.3206 85.9078 66.5173 86.2411 65.925 86.8343C65.3327 87.4275 65 88.232 65 89.0709C65 89.9098 65.3327 90.7144 65.925 91.3076C66.5173 91.9008 67.3206 92.234 68.1583 92.234H107.858V90.8541C107.858 89.8735 108.101 88.9082 108.565 88.0448C109.029 87.1815 109.701 86.4472 110.518 85.9078H68.1583Z" fill="#E6E6E6"/>
<path d="M104.283 78.7909H90.8604C90.0228 78.7909 89.2195 78.4577 88.6272 77.8645C88.0349 77.2713 87.7021 76.4667 87.7021 75.6278C87.7021 74.7889 88.0349 73.9844 88.6272 73.3912C89.2195 72.798 90.0228 72.4647 90.8604 72.4647H104.283C105.121 72.4647 105.924 72.798 106.516 73.3912C107.109 73.9844 107.441 74.7889 107.441 75.6278C107.441 76.4667 107.109 77.2713 106.516 77.8645C105.924 78.4577 105.121 78.7909 104.283 78.7909Z" fill="#E6E6E6"/>
<path d="M74.1784 56.2538H22.067C21.2293 56.2538 20.426 55.9205 19.8337 55.3274C19.2414 54.7342 18.9087 53.9296 18.9087 53.0907C18.9087 52.2518 19.2414 51.4473 19.8337 50.8541C20.426 50.2609 21.2293 49.9276 22.067 49.9276H74.1784C75.016 49.9276 75.8193 50.2609 76.4116 50.8541C77.0039 51.4473 77.3366 52.2518 77.3366 53.0907C77.3366 53.9296 77.0039 54.7342 76.4116 55.3274C75.8193 55.9205 75.016 56.2538 74.1784 56.2538Z" fill="#E6E6E6"/>
<path d="M51.4785 42.8107H44.7672C43.9295 42.8107 43.1262 42.4774 42.5339 41.8842C41.9416 41.291 41.6089 40.4865 41.6089 39.6476C41.6089 38.8087 41.9416 38.0041 42.5339 37.4109C43.1262 36.8177 43.9295 36.4845 44.7672 36.4845H51.4785C52.3161 36.4845 53.1194 36.8177 53.7117 37.4109C54.304 38.0041 54.6367 38.8087 54.6367 39.6476C54.6367 40.4865 54.304 41.291 53.7117 41.8842C53.1194 42.4774 52.3161 42.8107 51.4785 42.8107Z" fill="#E6E6E6"/>
<path d="M107.461 149.524H58.3353C56.556 149.522 54.8501 148.813 53.5919 147.553C52.3338 146.292 51.626 144.584 51.624 142.802V64.974C51.626 63.192 52.3338 61.4835 53.5919 60.2234C54.8501 58.9633 56.556 58.2544 58.3353 58.2524H136.808C138.587 58.2544 140.293 58.9633 141.551 60.2234C142.81 61.4835 143.517 63.192 143.519 64.974V84.264H142.73V64.974C142.728 63.4016 142.103 61.8941 140.993 60.7823C139.883 59.6704 138.378 59.045 136.808 59.0432H58.3354C56.7654 59.045 55.2602 59.6704 54.15 60.7823C53.0398 61.8941 52.4154 63.4016 52.4136 64.974V142.802C52.4154 144.374 53.0398 145.882 54.15 146.994C55.2602 148.106 56.7654 148.731 58.3354 148.733H107.461V149.524Z" fill="#CCCCCC"/>
<path d="M52.0189 102.933H16.2084C14.4291 102.931 12.7232 102.222 11.465 100.962C10.2068 99.7017 9.49907 97.9932 9.49707 96.2111V32.926C9.49907 31.144 10.2068 29.4355 11.465 28.1754C12.7232 26.9153 14.4291 26.2065 16.2084 26.2045H80.0375C81.8169 26.2065 83.5227 26.9153 84.7809 28.1754C86.0391 29.4355 86.7468 31.144 86.7488 32.926V58.6478H85.9593V32.926C85.9575 31.3536 85.333 29.8462 84.2229 28.7343C83.1127 27.6224 81.6075 26.997 80.0375 26.9952H16.2084C14.6384 26.997 13.1332 27.6224 12.023 28.7343C10.9129 29.8462 10.2884 31.3536 10.2866 32.926V96.2111C10.2884 97.7835 10.9129 99.291 12.023 100.403C13.1332 101.515 14.6384 102.14 16.2084 102.142H52.0189V102.933Z" fill="#CCCCCC"/>
<path d="M211.859 85.9078C212.677 86.4472 213.348 87.1815 213.813 88.0448C214.277 88.9082 214.52 89.8735 214.52 90.8541V92.234H254.22C255.057 92.234 255.861 91.9008 256.453 91.3076C257.045 90.7144 257.378 89.9098 257.378 89.0709C257.378 88.232 257.045 87.4275 256.453 86.8343C255.861 86.2411 255.057 85.9078 254.22 85.9078H211.859Z" fill="#E6E6E6"/>
<path d="M214.937 75.6278C214.938 74.7892 215.271 73.9852 215.863 73.3922C216.455 72.7992 217.258 72.4657 218.095 72.4647H231.518C232.356 72.4647 233.159 72.798 233.751 73.3912C234.343 73.9844 234.676 74.7889 234.676 75.6278C234.676 76.4667 234.343 77.2713 233.751 77.8645C233.159 78.4577 232.356 78.7909 231.518 78.7909H218.095C217.258 78.79 216.455 78.4564 215.863 77.8634C215.271 77.2704 214.938 76.4664 214.937 75.6278Z" fill="#E6E6E6"/>
<path d="M245.042 53.0907C245.042 52.2521 245.376 51.4481 245.968 50.8551C246.56 50.2621 247.362 49.9286 248.2 49.9276H300.311C301.149 49.9276 301.952 50.2609 302.544 50.8541C303.137 51.4473 303.469 52.2518 303.469 53.0907C303.469 53.9296 303.137 54.7342 302.544 55.3274C301.952 55.9205 301.149 56.2538 300.311 56.2538H248.2C247.362 56.2528 246.56 55.9193 245.968 55.3263C245.376 54.7333 245.042 53.9293 245.042 53.0907Z" fill="#E6E6E6"/>
<path d="M267.741 39.6476C267.742 38.809 268.075 38.005 268.667 37.412C269.259 36.819 270.062 36.4855 270.899 36.4845H277.611C278.448 36.4845 279.252 36.8177 279.844 37.4109C280.436 38.0041 280.769 38.8087 280.769 39.6476C280.769 40.4865 280.436 41.291 279.844 41.8842C279.252 42.4774 278.448 42.8107 277.611 42.8107H270.899C270.062 42.8097 269.259 42.4762 268.667 41.8832C268.075 41.2902 267.742 40.4862 267.741 39.6476Z" fill="#E6E6E6"/>
<path d="M214.917 149.524H264.043C265.822 149.522 267.528 148.813 268.786 147.553C270.044 146.292 270.752 144.584 270.754 142.802V64.974C270.752 63.192 270.044 61.4835 268.786 60.2234C267.528 58.9633 265.822 58.2544 264.043 58.2524H185.57C183.791 58.2544 182.085 58.9633 180.827 60.2234C179.569 61.4835 178.861 63.192 178.859 64.974V84.264H179.648V64.974C179.65 63.4016 180.275 61.8941 181.385 60.7823C182.495 59.6704 184 59.045 185.57 59.0432H264.043C265.613 59.045 267.118 59.6704 268.228 60.7823C269.338 61.8941 269.963 63.4016 269.965 64.974V142.802C269.963 144.374 269.338 145.882 268.228 146.994C267.118 148.106 265.613 148.731 264.043 148.733H214.917V149.524Z" fill="#CCCCCC"/>
<path d="M270.359 102.933H306.17C307.949 102.931 309.655 102.222 310.913 100.962C312.171 99.7017 312.879 97.9932 312.881 96.2111V32.926C312.879 31.144 312.171 29.4355 310.913 28.1754C309.655 26.9153 307.949 26.2065 306.17 26.2045H242.341C240.561 26.2065 238.855 26.9153 237.597 28.1754C236.339 29.4355 235.631 31.144 235.629 32.926V58.6478H236.419V32.926C236.421 31.3536 237.045 29.8462 238.155 28.7343C239.266 27.6224 240.771 26.997 242.341 26.9952H306.17C307.74 26.997 309.245 27.6224 310.355 28.7343C311.465 29.8462 312.09 31.3536 312.092 32.926V96.2111C312.09 97.7835 311.465 99.291 310.355 100.403C309.245 101.515 307.74 102.14 306.17 102.142H270.359V102.933Z" fill="#CCCCCC"/>
<path d="M208.433 84.1326H113.78C112.001 84.1361 110.296 84.8454 109.038 86.1052C107.78 87.365 107.072 89.0726 107.068 90.8541V184.755C107.07 186.537 107.778 188.245 109.036 189.505C110.294 190.766 112 191.474 113.78 191.476H208.433C210.212 191.474 211.918 190.766 213.176 189.505C214.435 188.245 215.142 186.537 215.144 184.755V90.8541C215.142 89.072 214.435 87.3635 213.176 86.1033C211.918 84.8432 210.212 84.1344 208.433 84.1326ZM214.355 184.755C214.353 186.327 213.728 187.834 212.618 188.946C211.508 190.058 210.003 190.684 208.433 190.685H113.78C112.21 190.684 110.705 190.058 109.594 188.946C108.484 187.834 107.86 186.327 107.858 184.755V90.8541C107.86 89.2819 108.485 87.7748 109.595 86.6631C110.705 85.5514 112.21 84.9258 113.78 84.9233H208.433C210.003 84.9253 211.508 85.5507 212.618 86.6625C213.728 87.7744 214.353 89.2818 214.355 90.8541V184.755Z" fill="#3F3D56"/>
<path d="M200.979 120.702H121.233C120.395 120.702 119.592 120.369 119 119.775C118.407 119.182 118.075 118.378 118.075 117.539C118.075 116.7 118.407 115.895 119 115.302C119.592 114.709 120.395 114.376 121.233 114.376H200.979C201.817 114.376 202.62 114.709 203.212 115.302C203.805 115.895 204.137 116.7 204.137 117.539C204.137 118.378 203.805 119.182 203.212 119.775C202.62 120.369 201.817 120.702 200.979 120.702Z" fill="#CCCCCC"/>
<path d="M178.279 107.259H143.933C143.095 107.259 142.292 106.926 141.699 106.332C141.107 105.739 140.774 104.935 140.774 104.096C140.774 103.257 141.107 102.452 141.699 101.859C142.292 101.266 143.095 100.933 143.933 100.933H178.279C179.116 100.933 179.92 101.266 180.512 101.859C181.104 102.452 181.437 103.257 181.437 104.096C181.437 104.935 181.104 105.739 180.512 106.332C179.92 106.926 179.116 107.259 178.279 107.259Z" fill="#8257E5"/>
<path d="M155.381 139.681H121.035C120.198 139.681 119.394 139.347 118.802 138.754C118.21 138.161 117.877 137.356 117.877 136.517C117.877 135.679 118.21 134.874 118.802 134.281C119.394 133.688 120.198 133.354 121.035 133.354H155.381C156.219 133.354 157.022 133.688 157.615 134.281C158.207 134.874 158.54 135.679 158.54 136.517C158.54 137.356 158.207 138.161 157.615 138.754C157.022 139.347 156.219 139.681 155.381 139.681Z" fill="#CCCCCC"/>
<path d="M155.381 153.519H121.035C120.198 153.519 119.394 153.186 118.802 152.593C118.21 151.999 117.877 151.195 117.877 150.356C117.877 149.517 118.21 148.713 118.802 148.119C119.394 147.526 120.198 147.193 121.035 147.193H155.381C156.219 147.193 157.022 147.526 157.615 148.119C158.207 148.713 158.54 149.517 158.54 150.356C158.54 151.195 158.207 151.999 157.615 152.593C157.022 153.186 156.219 153.519 155.381 153.519Z" fill="#CCCCCC"/>
<path d="M155.381 167.358H121.035C120.198 167.358 119.394 167.024 118.802 166.431C118.21 165.838 117.877 165.033 117.877 164.194C117.877 163.356 118.21 162.551 118.802 161.958C119.394 161.365 120.198 161.031 121.035 161.031H155.381C156.219 161.031 157.022 161.365 157.615 161.958C158.207 162.551 158.54 163.356 158.54 164.194C158.54 165.033 158.207 165.838 157.615 166.431C157.022 167.024 156.219 167.358 155.381 167.358Z" fill="#CCCCCC"/>
<path d="M198.218 142.392C201.473 142.392 204.112 139.749 204.112 136.489C204.112 133.229 201.473 130.587 198.218 130.587C194.963 130.587 192.324 133.229 192.324 136.489C192.324 139.749 194.963 142.392 198.218 142.392Z" fill="#8257E5"/>
<path d="M197.634 138.741C197.501 138.741 197.372 138.698 197.266 138.619L197.259 138.614L195.874 137.553C195.745 137.453 195.66 137.306 195.639 137.144C195.617 136.982 195.661 136.818 195.76 136.688C195.86 136.558 196.006 136.474 196.168 136.452C196.33 136.431 196.494 136.475 196.623 136.574L197.521 137.263L199.641 134.493C199.69 134.429 199.751 134.375 199.821 134.334C199.891 134.294 199.968 134.268 200.048 134.257C200.128 134.246 200.21 134.252 200.288 134.273C200.366 134.294 200.439 134.33 200.503 134.379L200.49 134.397L200.504 134.379C200.633 134.479 200.718 134.626 200.739 134.788C200.76 134.95 200.717 135.113 200.618 135.243L198.124 138.5C198.066 138.575 197.992 138.636 197.907 138.677C197.822 138.719 197.729 138.741 197.634 138.74L197.634 138.741Z" fill="white"/>
<path d="M48.1227 18.3496C46.3108 18.3496 44.5397 17.8115 43.0332 16.8033C41.5267 15.7952 40.3526 14.3623 39.6592 12.6858C38.9659 11.0093 38.7845 9.16459 39.1379 7.38485C39.4914 5.60512 40.3639 3.97034 41.6451 2.68722C42.9262 1.40411 44.5585 0.5303 46.3355 0.176292C48.1126 -0.177715 49.9545 0.00397644 51.6284 0.698396C53.3023 1.39282 54.733 2.56877 55.7396 4.07756C56.7462 5.58635 57.2835 7.3602 57.2835 9.1748C57.2807 11.6073 56.3147 13.9393 54.5973 15.6593C52.8799 17.3793 50.5514 18.3468 48.1227 18.3496ZM48.1227 0.790779C46.467 0.790788 44.8485 1.28251 43.4719 2.20376C42.0952 3.12502 41.0223 4.43443 40.3887 5.96641C39.7551 7.49839 39.5893 9.18413 39.9123 10.8105C40.2354 12.4368 41.0326 13.9307 42.2034 15.1032C43.3741 16.2757 44.8657 17.0742 46.4896 17.3977C48.1134 17.7212 49.7966 17.5552 51.3262 16.9206C52.8559 16.2861 54.1633 15.2115 55.0831 13.8327C56.003 12.454 56.4939 10.833 56.4939 9.1748C56.4914 6.95198 55.6086 4.82093 54.0393 3.24916C52.4699 1.6774 50.3421 0.793281 48.1227 0.790779Z" fill="#CCCCCC"/>
<path d="M47.2542 12.5239C47.057 12.5242 46.865 12.4603 46.7072 12.3418L46.6975 12.3345L44.6373 10.7561C44.5419 10.6829 44.4618 10.5915 44.4017 10.4873C44.3415 10.383 44.3024 10.2679 44.2867 10.1485C44.2709 10.0292 44.2788 9.90785 44.3099 9.79153C44.341 9.67521 44.3946 9.56615 44.4678 9.47059C44.5409 9.37503 44.6321 9.29484 44.7362 9.23459C44.8403 9.17434 44.9552 9.13521 45.0744 9.11944C45.1936 9.10368 45.3147 9.11157 45.4309 9.14269C45.547 9.1738 45.6559 9.22753 45.7513 9.30079L47.0857 10.3256L50.239 6.20558C50.3121 6.11006 50.4033 6.0299 50.5073 5.96967C50.6114 5.90945 50.7263 5.87033 50.8454 5.85457C50.9645 5.83881 51.0856 5.84671 51.2017 5.87781C51.3178 5.90891 51.4266 5.96262 51.522 6.03585L51.5027 6.06327L51.5228 6.03605C51.7152 6.18416 51.8411 6.40266 51.8729 6.64362C51.9046 6.88458 51.8396 7.12831 51.6921 7.32132L47.9832 12.1652C47.8974 12.2768 47.7871 12.3671 47.6608 12.4292C47.5345 12.4912 47.3956 12.5232 47.255 12.5228L47.2542 12.5239Z" fill="#CCCCCC"/>
<path d="M106.233 50.376C104.422 50.3759 102.65 49.8378 101.144 48.8297C99.6375 47.8215 98.4634 46.3886 97.7701 44.7121C97.0767 43.0357 96.8953 41.1909 97.2488 39.4112C97.6023 37.6315 98.4748 35.9967 99.7559 34.7136C101.037 33.4305 102.669 32.5567 104.446 32.2027C106.223 31.8487 108.065 32.0303 109.739 32.7248C111.413 33.4192 112.844 34.5952 113.85 36.1039C114.857 37.6127 115.394 39.3866 115.394 41.2012C115.392 43.6336 114.426 45.9657 112.708 47.6857C110.991 49.4057 108.662 50.3732 106.233 50.376ZM106.233 32.8171C104.578 32.8172 102.959 33.3089 101.583 34.2302C100.206 35.1514 99.1331 36.4608 98.4995 37.9928C97.8659 39.5248 97.7002 41.2105 98.0232 42.8369C98.3462 44.4632 99.1435 45.9571 100.314 47.1296C101.485 48.3021 102.977 49.1006 104.6 49.4241C106.224 49.7476 107.907 49.5815 109.437 48.947C110.967 48.3124 112.274 47.2378 113.194 45.8591C114.114 44.4803 114.605 42.8594 114.605 41.2012C114.602 38.9783 113.719 36.8473 112.15 35.2755C110.581 33.7037 108.453 32.8196 106.233 32.8171Z" fill="#CCCCCC"/>
<path d="M105.365 44.5503C105.167 44.5506 104.975 44.4867 104.818 44.3682L104.808 44.3608L102.748 42.7825C102.555 42.6345 102.429 42.416 102.397 42.1749C102.365 41.9338 102.43 41.69 102.578 41.497C102.726 41.304 102.944 41.1777 103.185 41.1458C103.426 41.114 103.669 41.1792 103.862 41.3272L105.196 42.352L108.349 38.2319C108.422 38.1364 108.514 38.0563 108.618 37.996C108.722 37.9358 108.837 37.8967 108.956 37.8809C109.075 37.8652 109.196 37.8731 109.312 37.9042C109.428 37.9353 109.537 37.989 109.632 38.0622L109.613 38.0896L109.633 38.0624C109.826 38.2105 109.951 38.429 109.983 38.67C110.015 38.9109 109.95 39.1547 109.802 39.3477L106.094 44.1916C106.008 44.3032 105.897 44.3935 105.771 44.4555C105.645 44.5175 105.506 44.5496 105.365 44.5492L105.365 44.5503Z" fill="#CCCCCC"/>
<path d="M198.218 156.231C201.473 156.231 204.112 153.588 204.112 150.328C204.112 147.068 201.473 144.425 198.218 144.425C194.963 144.425 192.324 147.068 192.324 150.328C192.324 153.588 194.963 156.231 198.218 156.231Z" fill="#8257E5"/>
<path d="M197.634 152.58C197.501 152.58 197.372 152.537 197.266 152.457L197.259 152.452L195.874 151.391C195.81 151.342 195.756 151.28 195.716 151.21C195.675 151.14 195.649 151.063 195.639 150.983C195.628 150.902 195.633 150.821 195.654 150.743C195.675 150.664 195.711 150.591 195.76 150.527C195.81 150.463 195.871 150.409 195.941 150.368C196.011 150.328 196.088 150.301 196.168 150.291C196.248 150.28 196.33 150.285 196.408 150.306C196.486 150.327 196.559 150.363 196.623 150.413L197.521 151.102L199.641 148.332C199.69 148.267 199.751 148.214 199.821 148.173C199.891 148.133 199.968 148.106 200.048 148.096C200.128 148.085 200.21 148.09 200.288 148.111C200.366 148.132 200.439 148.168 200.503 148.218L200.49 148.236L200.504 148.218C200.633 148.317 200.718 148.464 200.739 148.626C200.76 148.788 200.717 148.952 200.618 149.082L198.124 152.339C198.066 152.414 197.992 152.474 197.907 152.516C197.822 152.558 197.729 152.579 197.634 152.579L197.634 152.58Z" fill="white"/>
<path d="M198.218 170.097C201.473 170.097 204.112 167.455 204.112 164.195C204.112 160.935 201.473 158.292 198.218 158.292C194.963 158.292 192.324 160.935 192.324 164.195C192.324 167.455 194.963 170.097 198.218 170.097Z" fill="#8257E5"/>
<path d="M197.634 166.446C197.501 166.446 197.372 166.404 197.266 166.324L197.259 166.319L195.874 165.258C195.745 165.158 195.66 165.011 195.639 164.849C195.618 164.687 195.662 164.523 195.761 164.394C195.86 164.264 196.007 164.179 196.168 164.158C196.33 164.136 196.494 164.18 196.623 164.279L197.52 164.968L199.641 162.198C199.69 162.134 199.751 162.08 199.821 162.04C199.891 161.999 199.968 161.973 200.048 161.962C200.128 161.952 200.21 161.957 200.288 161.978C200.366 161.999 200.439 162.035 200.503 162.084L200.49 162.103L200.504 162.084C200.633 162.184 200.718 162.331 200.739 162.493C200.76 162.655 200.717 162.819 200.618 162.948L198.124 166.205C198.066 166.28 197.992 166.341 197.907 166.383C197.822 166.424 197.729 166.446 197.634 166.446L197.634 166.446Z" fill="white"/>
<path d="M161.114 76.0762C154.897 75.97 152.071 71.2454 152.072 66.9006C152.072 62.5558 154.898 57.8318 161.101 57.7266H161.115C167.319 57.8326 170.145 62.5571 170.144 66.9019C170.144 71.2468 167.318 75.9709 161.114 76.0762ZM161.108 58.5173C155.442 58.6166 152.862 62.9318 152.861 66.9006C152.861 70.8711 155.444 75.1885 161.115 75.2854C166.772 75.1892 169.355 70.8722 169.355 66.9019C169.355 62.9332 166.774 58.6179 161.108 58.5173Z" fill="#8257E5"/>
<path d="M163.164 67.3996C164.749 70.1568 160.399 71.2336 158.735 69.5727L159.152 68.6805C161.858 71.0214 164.242 66.9667 160.109 67.3521V66.3746C163.893 66.6803 161.768 62.8649 159.246 65.122L158.839 64.2301C160.894 62.0944 165.506 64.6768 162.25 66.8111C162.613 66.8962 162.936 67.104 163.164 67.3996Z" fill="#8257E5"/>
<path d="M216.773 50.376C214.961 50.3759 213.19 49.8378 211.683 48.8297C210.177 47.8215 209.002 46.3886 208.309 44.7121C207.616 43.0357 207.434 41.1909 207.788 39.4112C208.141 37.6315 209.014 35.9967 210.295 34.7136C211.576 33.4305 213.208 32.5567 214.985 32.2027C216.762 31.8487 218.604 32.0303 220.278 32.7248C221.952 33.4192 223.383 34.5952 224.39 36.1039C225.396 37.6127 225.933 39.3866 225.933 41.2012C225.931 43.6336 224.965 45.9657 223.247 47.6857C221.53 49.4057 219.201 50.3732 216.773 50.376ZM216.773 32.8171C215.117 32.8172 213.498 33.3089 212.122 34.2302C210.745 35.1514 209.672 36.4608 209.039 37.9928C208.405 39.5248 208.239 41.2105 208.562 42.8369C208.885 44.4632 209.683 45.9571 210.853 47.1296C212.024 48.3021 213.516 49.1006 215.139 49.4241C216.763 49.7476 218.447 49.5815 219.976 48.947C221.506 48.3124 222.813 47.2378 223.733 45.8591C224.653 44.4803 225.144 42.8594 225.144 41.2012C225.141 38.9783 224.259 36.8473 222.689 35.2755C221.12 33.7037 218.992 32.8196 216.773 32.8171Z" fill="#CCCCCC"/>
<path d="M219.316 43.2603H218.359V44.5793H217.166V43.2603H214.229V42.3493L217.384 37.823H218.359V42.302H219.316V43.2603ZM217.166 42.302V39.7302L215.384 42.302H217.166Z" fill="#CCCCCC"/>
<path d="M274.255 18.3496C272.444 18.3496 270.672 17.8115 269.166 16.8033C267.66 15.7952 266.485 14.3622 265.792 12.6858C265.099 11.0093 264.917 9.16455 265.271 7.38483C265.624 5.6051 266.497 3.97031 267.778 2.68721C269.059 1.4041 270.691 0.530291 272.468 0.176288C274.245 -0.177716 276.087 0.00398234 277.761 0.698404C279.435 1.39282 280.866 2.56878 281.872 4.07757C282.879 5.58635 283.416 7.3602 283.416 9.1748C283.414 11.6073 282.447 13.9393 280.73 15.6593C279.013 17.3793 276.684 18.3468 274.255 18.3496ZM274.255 0.79078C272.6 0.790799 270.981 1.28253 269.605 2.20379C268.228 3.12505 267.155 4.43446 266.521 5.96644C265.888 7.49842 265.722 9.18417 266.045 10.8105C266.368 12.4368 267.165 13.9307 268.336 15.1032C269.507 16.2757 270.999 17.0742 272.622 17.3977C274.246 17.7212 275.929 17.5552 277.459 16.9206C278.989 16.286 280.296 15.2114 281.216 13.8327C282.136 12.454 282.627 10.833 282.627 9.1748C282.624 6.95197 281.741 4.82091 280.172 3.24915C278.603 1.67738 276.475 0.793271 274.255 0.79078Z" fill="#CCCCCC"/>
<path d="M275.619 8.46788C275.937 8.64341 276.197 8.90701 276.368 9.22699C276.55 9.57336 276.641 9.96017 276.633 10.3514C276.642 10.7625 276.537 11.1681 276.33 11.5234C276.123 11.8662 275.82 12.1401 275.458 12.3109C275.047 12.5047 274.596 12.6005 274.141 12.5909C273.715 12.5905 273.293 12.5183 272.891 12.3774C272.518 12.2565 272.173 12.0613 271.877 11.8034L272.284 10.9113C272.814 11.349 273.474 11.5963 274.16 11.6136C274.513 11.6378 274.861 11.5238 275.132 11.2956C275.35 11.0458 275.47 10.7245 275.468 10.3924C275.466 10.0602 275.343 9.74021 275.122 9.49265C274.998 9.37778 274.853 9.28881 274.694 9.23097C274.535 9.17312 274.367 9.14756 274.198 9.15579C273.941 9.15411 273.687 9.20414 273.45 9.3029C273.216 9.40095 273.006 9.54817 272.834 9.73458H272.095V5.75867H276.321V6.70756H273.289V8.54839C273.647 8.30926 274.071 8.1867 274.501 8.1974C274.891 8.18919 275.276 8.28239 275.619 8.46788Z" fill="#CCCCCC"/>
<path d="M59.1691 205.937C58.9295 205.408 58.8087 204.832 58.8152 204.251C58.8217 203.67 58.9554 203.097 59.2068 202.573C59.4582 202.05 59.8213 201.587 60.2704 201.219C60.7195 200.851 61.2438 200.586 61.8062 200.443L63.003 186.365L68.7587 190.912L66.7398 203.584C66.9175 204.546 66.7365 205.54 66.2313 206.378C65.726 207.215 64.9315 207.838 63.9983 208.128C63.0651 208.418 62.0581 208.356 61.168 207.952C60.278 207.548 59.5667 206.831 59.1691 205.937Z" fill="#FFB8B8"/>
<path d="M62.8709 198.965C62.4567 198.91 62.0751 198.711 61.7932 198.402C61.5113 198.093 61.3473 197.695 61.3298 197.277L60.6635 181.3C60.424 175.558 61.5909 169.844 64.0624 164.657L69.9715 152.256C70.3673 151.51 70.9351 150.87 71.6277 150.388C72.3203 149.906 73.1177 149.596 73.9537 149.485C74.7652 149.37 75.5923 149.454 76.3645 149.728C77.1368 150.003 77.8313 150.461 78.389 151.062C78.672 151.365 78.9261 151.693 79.1482 152.043C79.594 152.767 79.8522 153.592 79.8992 154.441C79.9462 155.291 79.7807 156.139 79.4175 156.908L70.3567 181.699L69.6596 197.849C69.649 198.094 69.5881 198.334 69.4806 198.554C69.3732 198.774 69.2215 198.969 69.0352 199.128C68.8488 199.287 68.6318 199.405 68.3976 199.476C68.1635 199.547 67.9173 199.568 67.6744 199.539L62.8944 198.968L62.8709 198.965Z" fill="#8257E5"/>
<path d="M45.9185 268.769L50.3503 270.718L59.9625 254.524L53.4217 251.649L45.9185 268.769Z" fill="#FFB8B8"/>
<path d="M45.4231 266.823L54.1509 270.66C54.8814 270.981 55.5418 271.443 56.094 272.02C56.6461 272.596 57.0794 273.276 57.3691 274.021C57.6589 274.765 57.7994 275.559 57.7827 276.358C57.766 277.157 57.5923 277.944 57.2717 278.676L57.1923 278.857L42.9023 272.575L45.4231 266.823Z" fill="#2F2E41"/>
<path d="M105.417 274.158H110.257L112.56 255.461L105.417 255.461L105.417 274.158Z" fill="#FFB8B8"/>
<path d="M104.183 272.575L113.714 272.575C114.512 272.575 115.302 272.732 116.039 273.038C116.776 273.344 117.446 273.792 118.01 274.357C118.574 274.922 119.021 275.592 119.327 276.33C119.632 277.068 119.789 277.86 119.789 278.658V278.856L104.183 278.857L104.183 272.575Z" fill="#2F2E41"/>
<path d="M56.6686 268.842C56.4824 268.842 56.2974 268.813 56.1203 268.755L47.9137 266.113C47.4705 265.969 47.1015 265.656 46.8855 265.242C46.6696 264.829 46.624 264.347 46.7584 263.899L73.9729 177.106L94.3575 173.103L94.4292 173.22C107.906 195.182 112.404 228.732 115.258 264.28C115.293 264.744 115.146 265.204 114.848 265.561C114.55 265.919 114.125 266.146 113.663 266.195L104.691 267.093C104.273 267.137 103.852 267.03 103.505 266.791C103.159 266.552 102.908 266.197 102.8 265.789L86.3725 207.585C86.3402 207.467 86.2719 207.361 86.177 207.283C86.0821 207.205 85.9653 207.158 85.8428 207.149C85.7203 207.141 85.5981 207.17 85.4932 207.234C85.3883 207.298 85.3058 207.393 85.2571 207.506L58.2953 267.766C58.1591 268.085 57.9324 268.357 57.6432 268.549C57.354 268.74 57.0151 268.842 56.6686 268.842Z" fill="#2F2E41"/>
<path d="M84.5049 142.351C89.86 142.351 94.2012 138.003 94.2012 132.64C94.2012 127.277 89.86 122.929 84.5049 122.929C79.1498 122.929 74.8086 127.277 74.8086 132.64C74.8086 138.003 79.1498 142.351 84.5049 142.351Z" fill="#FFB8B8"/>
<path d="M72.2389 179.676L72.1724 179.537C72.1273 179.442 67.6599 169.951 68.0756 159.003C68.2133 155.409 69.7169 152.004 72.2787 149.484C74.8405 146.965 78.2669 145.52 81.8568 145.448C85.1654 145.383 88.3906 146.489 90.9645 148.572C93.5385 150.655 95.2959 153.581 95.9274 156.834C97.1724 163.199 97.1413 169.228 95.8348 174.752L95.8057 174.875L95.6821 174.901L72.2389 179.676Z" fill="#8257E5"/>
<path d="M121.675 193.376C121.101 193.291 120.553 193.081 120.068 192.76C119.584 192.44 119.176 192.017 118.872 191.522C118.569 191.026 118.377 190.47 118.311 189.893C118.246 189.315 118.307 188.73 118.492 188.179L107.323 179.547L114.257 177.164L123.8 185.727C124.704 186.098 125.44 186.789 125.87 187.668C126.299 188.547 126.392 189.554 126.13 190.496C125.868 191.439 125.27 192.253 124.449 192.784C123.628 193.314 122.641 193.525 121.675 193.376Z" fill="#FFB8B8"/>
<path d="M94.2679 174.345L94.2421 174.303L82.4683 155.207C82.0567 154.47 81.8266 153.645 81.7972 152.801C81.7677 151.956 81.9398 151.117 82.299 150.353C82.6423 149.608 83.1604 148.957 83.8092 148.455C84.458 147.954 85.2182 147.617 86.0252 147.473C86.4323 147.399 86.8456 147.363 87.2595 147.365C88.1089 147.382 88.9407 147.611 89.6793 148.032C90.4179 148.452 91.0399 149.051 91.4889 149.773L107.39 170.829L120.568 180.163C120.768 180.304 120.936 180.486 121.063 180.695C121.189 180.905 121.271 181.138 121.303 181.381C121.335 181.624 121.317 181.871 121.25 182.106C121.182 182.342 121.067 182.561 120.911 182.75L117.843 186.465C117.575 186.792 117.199 187.012 116.783 187.085C116.367 187.159 115.939 187.081 115.575 186.865L94.2679 174.345Z" fill="#8257E5"/>
<path d="M82.7709 132.038C83.4855 130.86 85.0626 130.528 86.4318 130.662C87.801 130.796 89.1325 131.278 90.5082 131.268C94.3282 131.238 97.2768 126.575 95.6708 123.104C94.3537 120.257 91.0641 119.007 88.0884 118.026C81.8491 115.968 74.6822 113.992 69.0204 117.327C67.2162 118.422 65.7364 119.979 64.7339 121.837C63.7314 123.696 63.2426 125.789 63.3179 127.9C63.4452 130.525 64.449 133.222 63.6001 135.709C62.6207 138.578 59.5154 140.117 56.5808 140.861C51.4365 142.167 46.0126 141.956 40.8361 143.127C35.6597 144.298 30.3552 147.406 28.9598 152.534C28.0433 155.902 28.9997 159.528 30.5835 162.638C32.1993 165.811 34.4449 168.62 37.1827 170.893C39.9205 173.167 43.0928 174.856 46.5053 175.859C49.9179 176.861 53.4989 177.156 57.0289 176.724C60.559 176.292 63.9639 175.142 67.035 173.346C73.2929 169.687 77.811 163.501 80.5045 156.763C82.0318 152.833 83.1069 148.741 83.7092 144.567C84.3125 140.66 83.8006 136.711 82.7079 132.912C82.6563 132.77 82.6352 132.619 82.646 132.468C82.6569 132.317 82.6994 132.171 82.7709 132.038Z" fill="#2F2E41"/>
<path d="M151.472 279H1.05933C0.954631 279 0.854216 278.958 0.78018 278.884C0.706144 278.81 0.664551 278.709 0.664551 278.605C0.664551 278.5 0.706144 278.399 0.78018 278.325C0.854216 278.251 0.954631 278.209 1.05933 278.209H151.472C151.577 278.209 151.677 278.251 151.751 278.325C151.825 278.399 151.867 278.5 151.867 278.605C151.867 278.709 151.825 278.81 151.751 278.884C151.677 278.958 151.577 279 151.472 279Z" fill="#3F3D56"/>
</g>
<defs>
<clipPath id="clip0_4_1242">
<rect width="312.217" height="279" fill="white" transform="translate(0.664551)"/>
</clipPath>
</defs>
</svg>
