<svg width="107" height="93" viewBox="0 0 107 93" fill="none" xmlns="http://www.w3.org/2000/svg">
<g clip-path="url(#clip0_4_676)">
<path d="M96.4753 48.3987C96.4893 59.9065 92.0318 70.9715 84.0397 79.2677C83.5579 79.7711 83.0631 80.2624 82.5553 80.7415C81.7816 81.4759 80.9819 82.1818 80.1562 82.8593C72.4322 89.2094 62.7896 92.7778 52.7841 92.9887C52.4507 92.9962 52.116 93 51.7801 93C43.8005 93 33.7639 88.7469 24.6558 82.8593C23.9023 82.3722 23.1554 81.8738 22.4153 81.3642C22.0693 81.1282 21.725 80.8888 21.3824 80.6461C17.8696 78.1709 14.5351 75.4527 11.4038 72.5114C9.35354 70.5914 7.43097 68.54 5.64829 66.3703C-1.35011 57.7561 -2.89371 49.9942 7.0837 48.3987C8.26499 48.2104 9.41147 48.0091 10.5231 47.7949C12.1334 47.4861 13.6745 47.1525 15.1464 46.7944C17.129 46.3136 18.9918 45.7922 20.7346 45.2302C21.3208 45.0419 21.8936 44.8498 22.453 44.654C30.7233 41.7554 36.2586 37.9755 40.0264 33.8743C40.6655 33.1801 41.2547 32.4775 41.7939 31.7666C42.619 30.6844 43.3685 29.5469 44.037 28.3621C44.9597 26.7158 45.7347 24.9913 46.353 23.2088L46.387 23.1109C49.3849 14.4817 48.4728 6.47755 51.7802 3.79863C65.9179 -7.65392 83.5189 8.65558 91.7804 27.8888C92.1968 28.8579 92.5885 29.8329 92.9554 30.8138C93.1202 31.2519 93.2791 31.6908 93.4322 32.1306C93.8348 33.2767 94.2 34.4258 94.5279 35.5778C94.6537 36.0172 94.7737 36.4561 94.8877 36.8947C95.0098 37.3679 95.1268 37.8399 95.2349 38.312C96.0388 41.7679 96.4753 45.1762 96.4753 48.3987Z" fill="#F2F2F2"/>
<path d="M52.7838 92.9887C52.4504 92.9963 52.1158 93 51.7799 93C43.8002 93 33.7637 88.7469 24.6556 82.8593C23.902 82.3722 23.1552 81.8739 22.415 81.3642L23.0642 77.4224L42.7158 74.8188L52.5788 82.3446L52.7838 92.9887Z" fill="#2F2E41"/>
<path d="M53.73 22.6025H50.9296C50.8429 22.6026 50.7597 22.637 50.6984 22.6982C50.637 22.7594 50.6026 22.8424 50.6025 22.9289V25.7246C50.6026 25.7674 50.6111 25.8097 50.6275 25.8492C50.644 25.8887 50.6681 25.9246 50.6985 25.9548C50.7289 25.985 50.7649 26.009 50.8046 26.0252C50.8442 26.0415 50.8867 26.0498 50.9296 26.0497H53.73C53.8165 26.0498 53.8995 26.0155 53.9609 25.9546C54.0222 25.8937 54.0568 25.8109 54.0571 25.7246V22.9289C54.0568 22.8424 54.0223 22.7596 53.961 22.6984C53.8997 22.6373 53.8166 22.6028 53.73 22.6025Z" fill="white"/>
<path d="M53.73 27.3666H50.9296C50.8429 27.3666 50.7597 27.401 50.6984 27.4622C50.637 27.5234 50.6026 27.6064 50.6025 27.693V30.4886C50.6026 30.5314 50.6111 30.5738 50.6275 30.6133C50.644 30.6528 50.6681 30.6887 50.6985 30.7189C50.7289 30.7491 50.7649 30.773 50.8046 30.7893C50.8442 30.8056 50.8867 30.8139 50.9296 30.8138H53.73C53.8165 30.8138 53.8995 30.7796 53.9609 30.7187C54.0222 30.6577 54.0568 30.575 54.0571 30.4886V27.693C54.0568 27.6065 54.0223 27.5236 53.961 27.4624C53.8997 27.4013 53.8166 27.3668 53.73 27.3666Z" fill="#E6E6E6"/>
<path d="M53.73 32.1306H50.9296C50.8429 32.1307 50.7597 32.1651 50.6984 32.2263C50.637 32.2875 50.6026 32.3705 50.6025 32.457V35.2514C50.6025 35.2943 50.6109 35.3368 50.6273 35.3764C50.6437 35.4161 50.6678 35.4521 50.6981 35.4824C50.7285 35.5127 50.7646 35.5368 50.8043 35.5531C50.8441 35.5695 50.8866 35.5779 50.9296 35.5778H53.73C53.8167 35.5778 53.8999 35.5434 53.9612 35.4822C54.0226 35.421 54.057 35.338 54.0571 35.2514V32.457C54.0568 32.3705 54.0223 32.2877 53.961 32.2265C53.8997 32.1653 53.8166 32.1309 53.73 32.1306Z" fill="#E6E6E6"/>
<path d="M54.052 37.1633C54.0381 37.0881 53.9983 37.0202 53.9395 36.9711C53.8807 36.9221 53.8066 36.895 53.73 36.8947H50.9296C50.8429 36.8947 50.7597 36.9291 50.6984 36.9903C50.637 37.0515 50.6026 37.1345 50.6025 37.2211V40.0155C50.6025 40.0584 50.6109 40.1008 50.6273 40.1405C50.6437 40.1801 50.6677 40.2161 50.6981 40.2464C50.7285 40.2768 50.7646 40.3008 50.8043 40.3172C50.8441 40.3336 50.8866 40.3419 50.9296 40.3419H53.73C53.8167 40.3418 53.8999 40.3074 53.9612 40.2462C54.0226 40.185 54.057 40.102 54.0571 40.0155V37.2211C54.0573 37.2017 54.0556 37.1823 54.052 37.1633Z" fill="#E6E6E6"/>
<path d="M53.857 41.6838C53.8167 41.6672 53.7736 41.6586 53.73 41.6587H50.9296C50.8866 41.6586 50.8441 41.667 50.8043 41.6834C50.7646 41.6997 50.7285 41.7238 50.6981 41.7541C50.6678 41.7844 50.6437 41.8204 50.6273 41.8601C50.6109 41.8997 50.6025 41.9422 50.6025 41.9851V44.7795C50.6023 44.8224 50.6107 44.8649 50.627 44.9046C50.6434 44.9443 50.6675 44.9804 50.6979 45.0107C50.7283 45.0411 50.7644 45.0651 50.8042 45.0814C50.844 45.0978 50.8866 45.1061 50.9296 45.1059H53.73C53.8167 45.1059 53.8999 45.0715 53.9612 45.0102C54.0226 44.949 54.057 44.866 54.0571 44.7795V41.9851C54.0569 41.9208 54.0379 41.8581 54.0023 41.8045C53.9668 41.751 53.9163 41.709 53.857 41.6838Z" fill="#E6E6E6"/>
<path d="M59.6128 22.6025H56.8124C56.7257 22.6026 56.6425 22.637 56.5812 22.6982C56.5199 22.7594 56.4854 22.8424 56.4854 22.9289V25.7246C56.4854 25.7674 56.4939 25.8097 56.5104 25.8492C56.5268 25.8887 56.5509 25.9246 56.5813 25.9548C56.6117 25.985 56.6477 26.009 56.6874 26.0252C56.7271 26.0415 56.7695 26.0498 56.8124 26.0497H59.6128C59.6993 26.0498 59.7824 26.0155 59.8437 25.9546C59.905 25.8937 59.9396 25.8109 59.9399 25.7246V22.9289C59.9396 22.8424 59.9051 22.7596 59.8438 22.6984C59.7825 22.6373 59.6995 22.6028 59.6128 22.6025Z" fill="#E6E6E6"/>
<path d="M59.6128 27.3666H56.8124C56.7257 27.3666 56.6425 27.401 56.5812 27.4622C56.5199 27.5234 56.4854 27.6064 56.4854 27.693V30.4886C56.4854 30.5314 56.4939 30.5738 56.5104 30.6133C56.5268 30.6528 56.5509 30.6887 56.5813 30.7189C56.6117 30.7491 56.6477 30.773 56.6874 30.7893C56.7271 30.8056 56.7695 30.8139 56.8124 30.8138H59.6128C59.6993 30.8138 59.7824 30.7796 59.8437 30.7187C59.905 30.6577 59.9396 30.575 59.9399 30.4886V27.693C59.9396 27.6065 59.9051 27.5236 59.8438 27.4624C59.7825 27.4013 59.6995 27.3668 59.6128 27.3666Z" fill="#8257E5"/>
<path d="M59.6128 32.1306H56.8124C56.7257 32.1307 56.6425 32.1651 56.5812 32.2263C56.5199 32.2875 56.4854 32.3705 56.4854 32.457V35.2514C56.4853 35.2943 56.4937 35.3368 56.5101 35.3764C56.5265 35.4161 56.5506 35.4521 56.581 35.4824C56.6113 35.5127 56.6474 35.5368 56.6872 35.5531C56.7269 35.5695 56.7694 35.5779 56.8124 35.5778H59.6128C59.6995 35.5778 59.7827 35.5434 59.844 35.4822C59.9054 35.421 59.9398 35.338 59.9399 35.2514V32.457C59.9396 32.3705 59.9051 32.2877 59.8438 32.2265C59.7825 32.1653 59.6995 32.1309 59.6128 32.1306Z" fill="#8257E5"/>
<path d="M59.6128 36.8947H56.8124C56.7438 36.8947 56.677 36.9163 56.6215 36.9564C56.5659 36.9966 56.5244 37.0531 56.503 37.1181C56.4913 37.1512 56.4854 37.186 56.4854 37.2211V40.0155C56.4853 40.0583 56.4937 40.1008 56.5101 40.1405C56.5265 40.1801 56.5506 40.2161 56.5809 40.2464C56.6113 40.2768 56.6474 40.3008 56.6871 40.3172C56.7269 40.3336 56.7694 40.3419 56.8124 40.3419H59.6128C59.6995 40.3418 59.7827 40.3074 59.844 40.2462C59.9054 40.185 59.9398 40.102 59.9399 40.0155V37.2211C59.9396 37.1346 59.9051 37.0517 59.8438 36.9905C59.7825 36.9294 59.6995 36.8949 59.6128 36.8947Z" fill="#8257E5"/>
<path d="M59.6128 41.6587H56.8124C56.7694 41.6586 56.7269 41.667 56.6872 41.6834C56.6474 41.6997 56.6113 41.7238 56.581 41.7541C56.5506 41.7844 56.5265 41.8204 56.5101 41.8601C56.4937 41.8997 56.4853 41.9422 56.4854 41.9851V44.7795C56.4853 44.8224 56.4937 44.8649 56.5101 44.9045C56.5265 44.9441 56.5506 44.9802 56.581 45.0105C56.6113 45.0408 56.6474 45.0648 56.6872 45.0812C56.7269 45.0976 56.7694 45.106 56.8124 45.1059H59.6128C59.6995 45.1059 59.7827 45.0715 59.844 45.0102C59.9054 44.949 59.9398 44.866 59.9399 44.7795V41.9851C59.9398 41.8985 59.9054 41.8155 59.844 41.7543C59.7827 41.6931 59.6995 41.6587 59.6128 41.6587Z" fill="#E6E6E6"/>
<path d="M65.4951 22.6025H62.6947C62.608 22.6026 62.5248 22.637 62.4635 22.6982C62.4022 22.7594 62.3677 22.8424 62.3677 22.9289V25.7246C62.3677 25.7674 62.3762 25.8097 62.3927 25.8492C62.4092 25.8887 62.4333 25.9246 62.4636 25.9548C62.494 25.985 62.5301 26.009 62.5697 26.0252C62.6094 26.0415 62.6519 26.0498 62.6947 26.0497H65.4951C65.5817 26.0498 65.6647 26.0155 65.726 25.9546C65.7873 25.8937 65.8219 25.8109 65.8222 25.7246V22.9289C65.822 22.8424 65.7874 22.7596 65.7261 22.6984C65.6648 22.6373 65.5818 22.6028 65.4951 22.6025Z" fill="#8257E5"/>
<path d="M65.4951 27.3666H62.6947C62.608 27.3666 62.5248 27.401 62.4635 27.4622C62.4022 27.5234 62.3677 27.6064 62.3677 27.693V30.4886C62.3677 30.5314 62.3762 30.5738 62.3927 30.6133C62.4092 30.6528 62.4333 30.6887 62.4636 30.7189C62.494 30.7491 62.5301 30.773 62.5697 30.7893C62.6094 30.8056 62.6519 30.8139 62.6947 30.8138H65.4951C65.5817 30.8138 65.6647 30.7796 65.726 30.7187C65.7873 30.6577 65.8219 30.575 65.8222 30.4886V27.693C65.822 27.6065 65.7874 27.5236 65.7261 27.4624C65.6648 27.4013 65.5818 27.3668 65.4951 27.3666Z" fill="#8257E5"/>
<path d="M65.4951 32.1306H62.6947C62.608 32.1307 62.5248 32.1651 62.4635 32.2263C62.4022 32.2875 62.3677 32.3705 62.3677 32.457V35.2514C62.3676 35.2943 62.376 35.3368 62.3924 35.3764C62.4088 35.4161 62.4329 35.4521 62.4633 35.4824C62.4937 35.5127 62.5298 35.5368 62.5695 35.5531C62.6092 35.5695 62.6518 35.5779 62.6947 35.5778H65.4951C65.5819 35.5778 65.665 35.5434 65.7264 35.4822C65.7877 35.421 65.8222 35.338 65.8222 35.2514V32.457C65.822 32.3705 65.7874 32.2877 65.7261 32.2265C65.6648 32.1653 65.5818 32.1309 65.4951 32.1306Z" fill="#E6E6E6"/>
<path d="M65.4951 36.8947H62.6947C62.608 36.8947 62.5248 36.9291 62.4635 36.9903C62.4022 37.0515 62.3677 37.1345 62.3677 37.2211V40.0155C62.3676 40.0584 62.376 40.1008 62.3924 40.1405C62.4088 40.1801 62.4329 40.2161 62.4633 40.2464C62.4937 40.2768 62.5298 40.3008 62.5695 40.3172C62.6092 40.3336 62.6518 40.3419 62.6947 40.3419H65.4951C65.5819 40.3418 65.665 40.3074 65.7264 40.2462C65.7877 40.185 65.8222 40.102 65.8222 40.0155V37.2211C65.822 37.1346 65.7874 37.0517 65.7261 36.9905C65.6648 36.9294 65.5818 36.8949 65.4951 36.8947Z" fill="#8257E5"/>
<path d="M65.4951 41.6587H62.6947C62.6518 41.6586 62.6092 41.667 62.5695 41.6834C62.5298 41.6997 62.4937 41.7238 62.4633 41.7541C62.4329 41.7844 62.4088 41.8204 62.3924 41.8601C62.376 41.8997 62.3676 41.9422 62.3677 41.9851V44.7795C62.3676 44.8224 62.376 44.8649 62.3924 44.9045C62.4088 44.9441 62.4329 44.9802 62.4633 45.0105C62.4937 45.0408 62.5298 45.0648 62.5695 45.0812C62.6092 45.0976 62.6518 45.106 62.6947 45.1059H65.4951C65.5819 45.1059 65.665 45.0715 65.7264 45.0102C65.7877 44.949 65.8222 44.866 65.8222 44.7795V41.9851C65.8222 41.8985 65.7877 41.8155 65.7264 41.7543C65.665 41.6931 65.5819 41.6587 65.4951 41.6587Z" fill="#8257E5"/>
<path d="M71.3775 22.6025H68.5771C68.4903 22.6026 68.4072 22.637 68.3458 22.6982C68.2845 22.7594 68.25 22.8424 68.25 22.9289V25.7246C68.25 25.7674 68.2585 25.8097 68.275 25.8492C68.2915 25.8887 68.3156 25.9246 68.346 25.9548C68.3764 25.985 68.4124 26.009 68.4521 26.0252C68.4917 26.0415 68.5342 26.0498 68.5771 26.0497H71.3775C71.464 26.0498 71.547 26.0155 71.6083 25.9546C71.6696 25.8937 71.7043 25.8109 71.7046 25.7246V22.9289C71.7043 22.8424 71.6697 22.7596 71.6085 22.6984C71.5472 22.6373 71.4641 22.6028 71.3775 22.6025Z" fill="#8257E5"/>
<path d="M71.3775 27.3666H68.5771C68.4903 27.3666 68.4072 27.401 68.3458 27.4622C68.2845 27.5234 68.25 27.6064 68.25 27.693V30.4886C68.25 30.5314 68.2585 30.5738 68.275 30.6133C68.2915 30.6528 68.3156 30.6887 68.346 30.7189C68.3764 30.7491 68.4124 30.773 68.4521 30.7893C68.4917 30.8056 68.5342 30.8139 68.5771 30.8138H71.3775C71.464 30.8138 71.547 30.7796 71.6083 30.7187C71.6696 30.6577 71.7043 30.575 71.7046 30.4886V27.693C71.7043 27.6065 71.6698 27.5236 71.6085 27.4624C71.5472 27.4013 71.4641 27.3668 71.3775 27.3666Z" fill="white"/>
<path d="M71.3775 32.1306H68.5771C68.4903 32.1307 68.4072 32.1651 68.3458 32.2263C68.2845 32.2875 68.25 32.3705 68.25 32.457V35.2514C68.2499 35.2943 68.2583 35.3368 68.2747 35.3764C68.2911 35.4161 68.3152 35.4521 68.3456 35.4824C68.376 35.5127 68.4121 35.5368 68.4518 35.5531C68.4915 35.5695 68.5341 35.5779 68.5771 35.5778H71.3775C71.4642 35.5778 71.5474 35.5434 71.6087 35.4822C71.67 35.421 71.7045 35.338 71.7046 35.2514V32.457C71.7043 32.3705 71.6698 32.2877 71.6085 32.2265C71.5472 32.1653 71.4641 32.1309 71.3775 32.1306Z" fill="white"/>
<path d="M71.3775 36.8947H68.5771C68.4903 36.8947 68.4072 36.9291 68.3458 36.9903C68.2845 37.0515 68.25 37.1345 68.25 37.2211V40.0155C68.2499 40.0584 68.2583 40.1008 68.2747 40.1405C68.2911 40.1801 68.3152 40.2161 68.3456 40.2464C68.376 40.2768 68.4121 40.3008 68.4518 40.3172C68.4915 40.3336 68.5341 40.3419 68.5771 40.3419H71.3775C71.4642 40.3418 71.5474 40.3074 71.6087 40.2462C71.67 40.185 71.7045 40.102 71.7046 40.0155V37.2211C71.7043 37.1346 71.6698 37.0517 71.6085 36.9905C71.5472 36.9294 71.4641 36.8949 71.3775 36.8947Z" fill="#E6E6E6"/>
<path d="M71.3775 41.6587H68.5771C68.5341 41.6586 68.4915 41.667 68.4518 41.6834C68.4121 41.6997 68.376 41.7238 68.3456 41.7541C68.3152 41.7844 68.2911 41.8204 68.2747 41.8601C68.2583 41.8997 68.2499 41.9422 68.25 41.9851V44.7795C68.2499 44.8224 68.2583 44.8649 68.2747 44.9045C68.2911 44.9441 68.3152 44.9802 68.3456 45.0105C68.376 45.0408 68.4121 45.0648 68.4518 45.0812C68.4915 45.0976 68.5341 45.106 68.5771 45.1059H71.3775C71.4642 45.1059 71.5474 45.0715 71.6087 45.0102C71.67 44.949 71.7045 44.866 71.7046 44.7795V41.9851C71.7045 41.8985 71.67 41.8155 71.6087 41.7543C71.5474 41.6931 71.4642 41.6587 71.3775 41.6587Z" fill="#8257E5"/>
<path d="M77.2603 22.6025H74.4586C74.3721 22.6028 74.2892 22.6374 74.2281 22.6985C74.1671 22.7597 74.1328 22.8426 74.1328 22.9289V25.7246C74.1328 25.8108 74.1672 25.8935 74.2283 25.9545C74.2894 26.0154 74.3722 26.0497 74.4586 26.0497H77.2603C77.3468 26.0498 77.4298 26.0155 77.4912 25.9546C77.5525 25.8937 77.5871 25.8109 77.5874 25.7246V22.9289C77.5871 22.8424 77.5526 22.7596 77.4913 22.6984C77.43 22.6373 77.3469 22.6028 77.2603 22.6025Z" fill="white"/>
<path d="M77.2603 27.3666H74.4586C74.3721 27.3669 74.2892 27.4014 74.2281 27.4626C74.1671 27.5238 74.1328 27.6066 74.1328 27.693V30.4886C74.1328 30.5749 74.1672 30.6575 74.2283 30.7185C74.2894 30.7795 74.3722 30.8137 74.4586 30.8138H77.2603C77.3468 30.8138 77.4298 30.7796 77.4912 30.7187C77.5525 30.6577 77.5871 30.575 77.5874 30.4886V27.693C77.5871 27.6065 77.5526 27.5236 77.4913 27.4624C77.43 27.4013 77.3469 27.3668 77.2603 27.3666Z" fill="white"/>
<path d="M77.2603 32.1306H74.4586C74.3721 32.1309 74.2892 32.1654 74.2281 32.2266C74.1671 32.2878 74.1328 32.3707 74.1328 32.457V35.2514C74.1327 35.2942 74.141 35.3366 74.1574 35.3762C74.1737 35.4158 74.1976 35.4517 74.2279 35.482C74.2582 35.5124 74.2941 35.5364 74.3337 35.5528C74.3733 35.5693 74.4158 35.5778 74.4586 35.5778H77.2603C77.347 35.5778 77.4302 35.5434 77.4915 35.4822C77.5529 35.421 77.5873 35.338 77.5874 35.2514V32.457C77.5871 32.3705 77.5526 32.2877 77.4913 32.2265C77.43 32.1653 77.3469 32.1309 77.2603 32.1306Z" fill="white"/>
<path d="M77.2603 36.8947H74.4586C74.3721 36.895 74.2892 36.9295 74.2281 36.9907C74.1671 37.0519 74.1328 37.1347 74.1328 37.2211V40.0155C74.1327 40.0583 74.141 40.1007 74.1573 40.1402C74.1737 40.1798 74.1976 40.2158 74.2279 40.2461C74.2582 40.2764 74.2941 40.3005 74.3337 40.3169C74.3733 40.3333 74.4158 40.3418 74.4586 40.3419H77.2603C77.347 40.3418 77.4302 40.3074 77.4915 40.2462C77.5529 40.185 77.5873 40.102 77.5874 40.0155V37.2211C77.5871 37.1346 77.5526 37.0517 77.4913 36.9905C77.43 36.9294 77.3469 36.8949 77.2603 36.8947Z" fill="#8257E5"/>
<path d="M77.2603 41.6587H74.4586C74.4158 41.6587 74.3733 41.6672 74.3337 41.6837C74.2941 41.7001 74.2582 41.7241 74.2279 41.7545C74.1976 41.7848 74.1737 41.8208 74.1573 41.8603C74.141 41.8999 74.1327 41.9423 74.1328 41.9851V44.7795C74.1327 44.8223 74.141 44.8647 74.1573 44.9042C74.1737 44.9438 74.1976 44.9798 74.2279 45.0101C74.2582 45.0404 74.2941 45.0645 74.3337 45.0809C74.3733 45.0974 74.4158 45.1058 74.4586 45.1059H77.2603C77.347 45.1058 77.4302 45.0714 77.4915 45.0102C77.5529 44.949 77.5873 44.866 77.5874 44.7795V41.9851C77.5873 41.8985 77.5529 41.8155 77.4915 41.7543C77.4302 41.6931 77.347 41.6587 77.2603 41.6587Z" fill="#E6E6E6"/>
<path d="M83.1426 22.6025H80.341C80.2544 22.6028 80.1715 22.6374 80.1105 22.6985C80.0494 22.7597 80.0151 22.8426 80.0151 22.9289V25.7246C80.0152 25.8108 80.0495 25.8935 80.1106 25.9545C80.1717 26.0154 80.2546 26.0497 80.341 26.0497H83.1426C83.2291 26.0497 83.3122 26.0155 83.3735 25.9546C83.4348 25.8936 83.4694 25.8109 83.4697 25.7246V22.9289C83.4694 22.8424 83.4349 22.7596 83.3736 22.6984C83.3123 22.6373 83.2293 22.6028 83.1426 22.6025Z" fill="white"/>
<path d="M83.1426 27.3666H80.341C80.2544 27.3669 80.1715 27.4014 80.1105 27.4626C80.0494 27.5238 80.0151 27.6066 80.0151 27.693V30.4886C80.0152 30.5749 80.0495 30.6575 80.1106 30.7185C80.1717 30.7795 80.2546 30.8137 80.341 30.8138H83.1426C83.2291 30.8138 83.3122 30.7796 83.3735 30.7186C83.4348 30.6577 83.4694 30.575 83.4697 30.4886V27.693C83.4694 27.6065 83.4349 27.5236 83.3736 27.4625C83.3123 27.4013 83.2293 27.3668 83.1426 27.3666Z" fill="white"/>
<path d="M83.1426 32.1306H80.341C80.2544 32.1309 80.1715 32.1654 80.1105 32.2266C80.0494 32.2878 80.0151 32.3707 80.0151 32.457V35.2514C80.015 35.2942 80.0234 35.3366 80.0397 35.3762C80.056 35.4158 80.08 35.4517 80.1102 35.482C80.1405 35.5124 80.1765 35.5364 80.216 35.5528C80.2556 35.5693 80.2981 35.5778 80.341 35.5778H83.1426C83.2293 35.5778 83.3125 35.5434 83.3738 35.4822C83.4352 35.421 83.4697 35.338 83.4697 35.2514V32.457C83.4694 32.3705 83.4349 32.2877 83.3736 32.2265C83.3123 32.1653 83.2293 32.1309 83.1426 32.1306Z" fill="#8257E5"/>
<path d="M83.1426 36.8947H80.341C80.2544 36.895 80.1715 36.9295 80.1105 36.9907C80.0494 37.0519 80.0151 37.1347 80.0151 37.2211V40.0155C80.015 40.0583 80.0234 40.1007 80.0397 40.1402C80.056 40.1798 80.08 40.2158 80.1102 40.2461C80.1405 40.2764 80.1764 40.3005 80.216 40.3169C80.2556 40.3333 80.2981 40.3418 80.341 40.3419H83.1426C83.2293 40.3418 83.3125 40.3074 83.3738 40.2462C83.4352 40.185 83.4697 40.102 83.4697 40.0155V37.2211C83.4694 37.1346 83.4349 37.0517 83.3736 36.9905C83.3123 36.9294 83.2293 36.8949 83.1426 36.8947Z" fill="#E6E6E6"/>
<path d="M83.1426 41.6587H80.341C80.2981 41.6587 80.2556 41.6672 80.216 41.6837C80.1764 41.7001 80.1405 41.7241 80.1102 41.7545C80.08 41.7848 80.056 41.8208 80.0397 41.8603C80.0234 41.8999 80.015 41.9423 80.0151 41.9851V44.7795C80.015 44.8223 80.0234 44.8647 80.0397 44.9042C80.056 44.9438 80.08 44.9798 80.1102 45.0101C80.1405 45.0404 80.1764 45.0645 80.216 45.0809C80.2556 45.0974 80.2981 45.1058 80.341 45.1059H83.1426C83.2293 45.1058 83.3125 45.0714 83.3738 45.0102C83.4352 44.949 83.4697 44.866 83.4697 44.7795V41.9851C83.4697 41.8985 83.4352 41.8155 83.3738 41.7543C83.3125 41.6931 83.2293 41.6587 83.1426 41.6587Z" fill="white"/>
<path d="M89.0254 22.6025H86.2238C86.1372 22.6028 86.0544 22.6374 85.9933 22.6985C85.9322 22.7597 85.8979 22.8426 85.8979 22.9289V25.7246C85.898 25.8108 85.9323 25.8935 85.9934 25.9545C86.0545 26.0154 86.1374 26.0497 86.2238 26.0497H89.0254C89.1119 26.0497 89.195 26.0155 89.2563 25.9546C89.3176 25.8936 89.3522 25.8109 89.3525 25.7246V22.9289C89.3522 22.8424 89.3177 22.7596 89.2564 22.6984C89.1951 22.6373 89.1121 22.6028 89.0254 22.6025Z" fill="#8257E5"/>
<path d="M89.0254 27.3666H86.2238C86.1372 27.3669 86.0543 27.4014 85.9933 27.4626C85.9322 27.5238 85.8979 27.6066 85.8979 27.693V30.4886C85.898 30.5749 85.9323 30.6575 85.9934 30.7185C86.0545 30.7795 86.1374 30.8137 86.2238 30.8138H89.0254C89.1119 30.8138 89.195 30.7796 89.2563 30.7186C89.3176 30.6577 89.3522 30.575 89.3525 30.4886V27.693C89.3522 27.6065 89.3177 27.5236 89.2564 27.4625C89.1951 27.4013 89.1121 27.3668 89.0254 27.3666Z" fill="#8257E5"/>
<path d="M89.0254 32.1306H86.2238C86.1372 32.1309 86.0543 32.1654 85.9933 32.2266C85.9322 32.2878 85.8979 32.3707 85.898 32.457V35.2514C85.8978 35.2942 85.9062 35.3366 85.9225 35.3762C85.9388 35.4158 85.9628 35.4517 85.993 35.482C86.0233 35.5124 86.0593 35.5364 86.0989 35.5528C86.1384 35.5693 86.1809 35.5778 86.2238 35.5778H89.0254C89.1121 35.5778 89.1953 35.5434 89.2566 35.4822C89.318 35.421 89.3525 35.338 89.3525 35.2514V32.457C89.3522 32.3705 89.3177 32.2877 89.2564 32.2265C89.1951 32.1653 89.1121 32.1309 89.0254 32.1306Z" fill="#E6E6E6"/>
<path d="M89.0254 36.8947H86.2238C86.1372 36.895 86.0544 36.9295 85.9933 36.9907C85.9322 37.0519 85.8979 37.1347 85.898 37.2211V40.0155C85.8978 40.0583 85.9062 40.1007 85.9225 40.1402C85.9388 40.1798 85.9628 40.2158 85.993 40.2461C86.0233 40.2764 86.0593 40.3005 86.0989 40.3169C86.1384 40.3333 86.1809 40.3418 86.2238 40.3419H89.0254C89.1121 40.3418 89.1953 40.3074 89.2567 40.2462C89.318 40.185 89.3525 40.102 89.3525 40.0155V37.2211C89.3522 37.1346 89.3177 37.0517 89.2564 36.9905C89.1951 36.9294 89.1121 36.8949 89.0254 36.8947Z" fill="white"/>
<path d="M89.0254 41.6587H86.2238C86.1809 41.6587 86.1384 41.6672 86.0989 41.6837C86.0593 41.7001 86.0233 41.7241 85.993 41.7545C85.9628 41.7848 85.9388 41.8208 85.9225 41.8603C85.9062 41.8999 85.8978 41.9423 85.898 41.9851V44.7795C85.8978 44.8223 85.9062 44.8647 85.9225 44.9042C85.9388 44.9438 85.9628 44.9798 85.993 45.0101C86.0233 45.0404 86.0593 45.0645 86.0989 45.0809C86.1384 45.0974 86.1809 45.1058 86.2238 45.1059H89.0254C89.1121 45.1058 89.1953 45.0714 89.2567 45.0102C89.318 44.949 89.3525 44.866 89.3525 44.7795V41.9851C89.3525 41.8985 89.318 41.8155 89.2567 41.7543C89.1953 41.6931 89.1121 41.6587 89.0254 41.6587Z" fill="#8257E5"/>
<path d="M94.9077 22.6025H92.1061C92.0196 22.6028 91.9367 22.6374 91.8756 22.6985C91.8145 22.7597 91.7802 22.8426 91.7803 22.9289V25.7246C91.7803 25.8108 91.8146 25.8935 91.8757 25.9545C91.9368 26.0154 92.0197 26.0497 92.1061 26.0497H94.9077C94.9943 26.0497 95.0773 26.0155 95.1386 25.9546C95.1999 25.8936 95.2345 25.8109 95.2348 25.7246V22.9289C95.2346 22.8424 95.2 22.7596 95.1387 22.6984C95.0774 22.6373 94.9944 22.6028 94.9077 22.6025Z" fill="#8257E5"/>
<path d="M94.9077 27.3666H92.1061C92.0196 27.3669 91.9367 27.4014 91.8756 27.4626C91.8145 27.5238 91.7802 27.6066 91.7803 27.693V30.4886C91.7803 30.5749 91.8146 30.6575 91.8757 30.7185C91.9368 30.7795 92.0197 30.8137 92.1061 30.8138H94.9077C94.9943 30.8138 95.0773 30.7796 95.1386 30.7186C95.1999 30.6577 95.2345 30.575 95.2348 30.4886V27.693C95.2346 27.6065 95.2 27.5236 95.1387 27.4625C95.0774 27.4013 94.9944 27.3668 94.9077 27.3666Z" fill="#8257E5"/>
<path d="M94.9077 32.1306H92.1061C92.0196 32.1309 91.9367 32.1654 91.8756 32.2266C91.8145 32.2878 91.7802 32.3707 91.7803 32.457V35.2514C91.7802 35.2942 91.7885 35.3366 91.8048 35.3762C91.8211 35.4158 91.8451 35.4517 91.8754 35.482C91.9056 35.5124 91.9416 35.5364 91.9812 35.5528C92.0208 35.5693 92.0632 35.5778 92.1061 35.5778H94.9077C94.9945 35.5778 95.0776 35.5434 95.139 35.4822C95.2003 35.421 95.2348 35.338 95.2348 35.2514V32.457C95.2346 32.3705 95.2 32.2877 95.1387 32.2265C95.0775 32.1653 94.9944 32.1309 94.9077 32.1306Z" fill="#E6E6E6"/>
<path d="M94.9077 36.8947H92.1061C92.0196 36.895 91.9367 36.9295 91.8756 36.9907C91.8145 37.0519 91.7802 37.1347 91.7803 37.2211V40.0155C91.7802 40.0583 91.7885 40.1007 91.8048 40.1402C91.8211 40.1798 91.8451 40.2158 91.8754 40.2461C91.9056 40.2764 91.9416 40.3005 91.9812 40.3169C92.0208 40.3333 92.0632 40.3418 92.1061 40.3419H94.9077C94.9945 40.3418 95.0776 40.3074 95.139 40.2462C95.2003 40.185 95.2348 40.102 95.2348 40.0155V37.2211C95.2346 37.1346 95.2 37.0517 95.1387 36.9905C95.0774 36.9294 94.9944 36.8949 94.9077 36.8947Z" fill="#8257E5"/>
<path d="M94.9077 41.6587H92.1061C92.0632 41.6587 92.0208 41.6672 91.9812 41.6837C91.9416 41.7001 91.9056 41.7241 91.8754 41.7545C91.8451 41.7848 91.8211 41.8208 91.8048 41.8603C91.7885 41.8999 91.7802 41.9423 91.7803 41.9851V44.7795C91.7802 44.8223 91.7885 44.8647 91.8048 44.9042C91.8211 44.9438 91.8451 44.9798 91.8754 45.0101C91.9056 45.0404 91.9416 45.0645 91.9812 45.0809C92.0208 45.0974 92.0632 45.1058 92.1061 45.1059H94.9077C94.9945 45.1058 95.0776 45.0714 95.139 45.0102C95.2003 44.949 95.2348 44.866 95.2348 44.7795V41.9851C95.2348 41.8985 95.2003 41.8155 95.139 41.7543C95.0776 41.6931 94.9945 41.6587 94.9077 41.6587Z" fill="#8257E5"/>
<path d="M100.791 22.6025H97.9889C97.9024 22.6028 97.8195 22.6374 97.7584 22.6985C97.6973 22.7597 97.6631 22.8426 97.6631 22.9289V25.7246C97.6631 25.8108 97.6974 25.8935 97.7585 25.9545C97.8196 26.0154 97.9025 26.0497 97.9889 26.0497H100.791C100.877 26.0497 100.96 26.0155 101.021 25.9546C101.083 25.8936 101.117 25.8109 101.118 25.7246V22.9289C101.117 22.8424 101.083 22.7596 101.022 22.6984C100.96 22.6373 100.877 22.6028 100.791 22.6025Z" fill="#E6E6E6"/>
<path d="M100.791 27.3666H97.9889C97.9024 27.3669 97.8195 27.4014 97.7584 27.4626C97.6973 27.5238 97.6631 27.6066 97.6631 27.693V30.4886C97.6631 30.5749 97.6974 30.6575 97.7585 30.7185C97.8196 30.7795 97.9025 30.8137 97.9889 30.8138H100.791C100.877 30.8138 100.96 30.7796 101.021 30.7186C101.083 30.6577 101.117 30.575 101.118 30.4886V27.693C101.117 27.6065 101.083 27.5236 101.022 27.4625C100.96 27.4013 100.877 27.3668 100.791 27.3666Z" fill="#8257E5"/>
<path d="M100.791 32.1306H97.9889C97.9024 32.1309 97.8195 32.1654 97.7584 32.2266C97.6973 32.2878 97.6631 32.3707 97.6631 32.457V35.2514C97.663 35.2942 97.6713 35.3366 97.6876 35.3762C97.7039 35.4158 97.7279 35.4517 97.7582 35.482C97.7884 35.5124 97.8244 35.5364 97.864 35.5528C97.9036 35.5693 97.946 35.5778 97.9889 35.5778H100.791C100.877 35.5778 100.96 35.5434 101.022 35.4822C101.083 35.421 101.118 35.338 101.118 35.2514V32.457C101.117 32.3705 101.083 32.2877 101.022 32.2265C100.96 32.1653 100.877 32.1309 100.791 32.1306Z" fill="#8257E5"/>
<path d="M100.791 36.8947H97.9889C97.9024 36.895 97.8195 36.9295 97.7584 36.9907C97.6973 37.0519 97.6631 37.1347 97.6631 37.2211V40.0155C97.663 40.0583 97.6713 40.1007 97.6876 40.1402C97.7039 40.1798 97.7279 40.2158 97.7582 40.2461C97.7884 40.2764 97.8244 40.3005 97.864 40.3169C97.9036 40.3333 97.946 40.3418 97.9889 40.3419H100.791C100.877 40.3418 100.96 40.3074 101.022 40.2462C101.083 40.185 101.118 40.102 101.118 40.0155V37.2211C101.117 37.1346 101.083 37.0517 101.022 36.9905C100.96 36.9294 100.877 36.8949 100.791 36.8947Z" fill="#8257E5"/>
<path d="M100.791 41.6587H97.9889C97.946 41.6587 97.9036 41.6672 97.864 41.6837C97.8244 41.7001 97.7884 41.7241 97.7582 41.7545C97.7279 41.7848 97.7039 41.8208 97.6876 41.8603C97.6713 41.8999 97.663 41.9423 97.6631 41.9851V44.7795C97.663 44.8223 97.6713 44.8647 97.6876 44.9042C97.7039 44.9438 97.7279 44.9798 97.7582 45.0101C97.7884 45.0404 97.8244 45.0645 97.864 45.0809C97.9036 45.0974 97.946 45.1058 97.9889 45.1059H100.791C100.877 45.1058 100.96 45.0714 101.022 45.0102C101.083 44.949 101.118 44.866 101.118 44.7795V41.9851C101.118 41.8985 101.083 41.8155 101.022 41.7543C100.96 41.6931 100.877 41.6587 100.791 41.6587Z" fill="#E6E6E6"/>
<path d="M106.673 22.6025H103.871C103.785 22.6028 103.702 22.6374 103.641 22.6985C103.58 22.7597 103.545 22.8426 103.545 22.9289V25.7246C103.545 25.8108 103.58 25.8935 103.641 25.9545C103.702 26.0154 103.785 26.0497 103.871 26.0497H106.673C106.759 26.0497 106.842 26.0155 106.904 25.9546C106.965 25.8936 107 25.8109 107 25.7246V22.9289C107 22.8424 106.965 22.7596 106.904 22.6984C106.843 22.6373 106.76 22.6028 106.673 22.6025Z" fill="#E6E6E6"/>
<path d="M106.673 27.3666H103.871C103.785 27.3669 103.702 27.4014 103.641 27.4626C103.58 27.5238 103.545 27.6066 103.545 27.693V30.4886C103.545 30.5749 103.58 30.6575 103.641 30.7185C103.702 30.7795 103.785 30.8137 103.871 30.8138H106.673C106.759 30.8138 106.842 30.7796 106.904 30.7186C106.965 30.6577 107 30.575 107 30.4886V27.693C107 27.6065 106.965 27.5236 106.904 27.4625C106.843 27.4013 106.76 27.3668 106.673 27.3666Z" fill="#E6E6E6"/>
<path d="M106.673 32.1306H103.871C103.785 32.1309 103.702 32.1654 103.641 32.2266C103.58 32.2878 103.545 32.3707 103.545 32.457V35.2514C103.545 35.2942 103.554 35.3366 103.57 35.3762C103.586 35.4158 103.61 35.4517 103.641 35.482C103.671 35.5123 103.707 35.5364 103.746 35.5528C103.786 35.5693 103.828 35.5778 103.871 35.5778H106.673C106.76 35.5778 106.843 35.5434 106.904 35.4822C106.965 35.421 107 35.338 107 35.2514V32.457C107 32.3705 106.965 32.2877 106.904 32.2265C106.843 32.1653 106.76 32.1309 106.673 32.1306Z" fill="#8257E5"/>
<path d="M106.673 36.8947H103.871C103.785 36.895 103.702 36.9295 103.641 36.9907C103.58 37.0519 103.545 37.1347 103.545 37.2211V40.0155C103.545 40.0583 103.554 40.1007 103.57 40.1402C103.586 40.1798 103.61 40.2158 103.641 40.2461C103.671 40.2764 103.707 40.3005 103.746 40.3169C103.786 40.3333 103.828 40.3418 103.871 40.3419H106.673C106.76 40.3418 106.843 40.3074 106.904 40.2462C106.965 40.185 107 40.102 107 40.0155V37.2211C107 37.1346 106.965 37.0517 106.904 36.9905C106.843 36.9294 106.76 36.8949 106.673 36.8947Z" fill="#E6E6E6"/>
<path d="M106.673 41.6587H103.871C103.828 41.6587 103.786 41.6672 103.746 41.6837C103.707 41.7001 103.671 41.7241 103.641 41.7545C103.61 41.7848 103.586 41.8208 103.57 41.8603C103.554 41.8999 103.545 41.9423 103.545 41.9851V44.7795C103.545 44.8223 103.554 44.8647 103.57 44.9042C103.586 44.9438 103.61 44.9798 103.641 45.0101C103.671 45.0404 103.707 45.0645 103.746 45.0809C103.786 45.0974 103.828 45.1058 103.871 45.1059H106.673C106.76 45.1058 106.843 45.0714 106.904 45.0102C106.965 44.949 107 44.866 107 44.7795V41.9851C107 41.8985 106.965 41.8155 106.904 41.7543C106.843 41.6931 106.76 41.6587 106.673 41.6587Z" fill="#E6E6E6"/>
<path d="M42.2816 82.8595H42.2036L42.2703 82.8507L42.2816 82.8595Z" fill="#2F2E41"/>
<path d="M35.579 30.7629C40.3259 30.7629 44.174 26.923 44.174 22.1862C44.174 17.4493 40.3259 13.6094 35.579 13.6094C30.832 13.6094 26.9839 17.4493 26.9839 22.1862C26.9839 26.923 30.832 30.7629 35.579 30.7629Z" fill="#FFB6B6"/>
<path d="M43.1057 15.8978C43.1057 15.8978 45.3537 11.6094 40.408 11.2196C40.408 11.2196 36.1918 7.40301 31.8942 10.5218C31.8942 10.5218 29.5501 10.5218 28.2683 13.1688C28.2683 13.1688 26.4246 12.4711 26.0195 14.3384C26.0195 14.3384 24.6705 18.2369 26.0195 21.7456C27.3685 25.2543 27.8166 25.6441 27.8166 25.6441C27.8166 25.6441 25.5999 18.288 30.9957 17.8981C36.3914 17.5083 42.4295 14.1435 42.8791 18.4318C43.3288 22.7202 44.0055 23.7769 44.0055 23.7769C44.0055 23.7769 48.2764 17.6522 43.1057 15.8978Z" fill="#2F2E41"/>
<path d="M57.8125 43.3233L57.7848 43.4689L57.4741 45.1059L55.3266 56.4291L55.1996 57.0957L54.9329 58.5055L54.5681 60.4287L53.7591 64.6906L53.5277 65.9121L53.4409 66.3703L53.4107 66.5309L53.1704 67.7951L53.0974 68.1767L52.5112 72.5114L51.9991 76.2888L53.7126 77.9985L52.6911 79.0179L52.0206 82.8505L52.0218 82.8593H24.6559C23.5489 82.1437 22.4577 81.406 21.3826 80.6461L21.6077 78.9639C21.6077 78.9639 22.3827 75.9599 22.0568 75.6008C21.7323 75.2418 21.0202 74.6003 21.0202 74.6003L21.9172 72.5114L22.0418 72.2214L21.8329 67.8993L21.8279 67.7951L21.7587 66.3702L21.7499 66.187L21.7361 65.912L21.4706 60.4287L21.4656 60.3383L21.3851 58.6762L21.3096 57.0957L21.2769 56.4291L20.9536 49.7595L20.7347 45.2302L20.5435 41.2871L21.3121 41.0273L29.5333 38.2391L32.9388 33.8215L40.0265 33.8743L43.4962 33.9006L49.2856 39.2585L50.6028 39.8861L50.6128 39.8911L51.5576 40.3418L53.9529 41.4829L56.4853 42.6906L57.7848 43.3095L57.8125 43.3233Z" fill="#CACACA"/>
<path d="M33.8545 69.9921C33.3351 70.1929 32.7779 70.2776 32.2222 70.2403C31.6664 70.2029 31.1257 70.0444 30.6379 69.776C30.1502 69.5075 29.7274 69.1356 29.3993 68.6865C29.0712 68.2373 28.8458 67.7219 28.7389 67.1764L15.3335 65.2785L19.9936 60.0184L32.0091 62.627C32.9394 62.5086 33.8808 62.7348 34.6551 63.2628C35.4294 63.7907 35.9827 64.5838 36.2102 65.4916C36.4376 66.3995 36.3235 67.3591 35.8893 68.1885C35.4551 69.018 34.7312 69.6597 33.8545 69.9921Z" fill="#FFB6B6"/>
<path d="M27.8774 60.4287C27.6291 60.1146 27.2776 59.898 26.8849 59.8173L21.3848 58.6762L20.8199 58.5595C20.4917 58.4911 20.1816 58.3544 19.9099 58.1581C19.6383 57.9619 19.4112 57.7107 19.2436 57.4209C19.0697 57.1166 18.9645 56.7782 18.9354 56.4291C18.9092 56.1118 18.9472 55.7925 19.0473 55.4902L20.9533 49.7595L22.1899 46.0411C22.3398 45.5927 22.4282 45.1261 22.4528 44.654C22.5217 43.3475 22.1167 42.06 21.3118 41.0273C20.6042 40.1196 19.6228 39.463 18.5125 39.1547C17.4022 38.8463 16.222 38.9025 15.1462 39.315C15.1148 39.3263 15.082 39.3388 15.0506 39.3514C14.2791 39.6588 13.5898 40.141 13.0372 40.76C12.4846 41.379 12.0838 42.1177 11.8665 42.9178L10.523 47.7949L7.75152 57.849C7.47408 58.8563 7.41804 59.9115 7.58721 60.9425C7.75638 61.9734 8.14678 62.9558 8.73168 63.8222C9.31659 64.6886 10.0822 65.4187 10.9761 65.9625C11.87 66.5063 12.8711 66.8509 13.9108 66.9728L21.8326 67.8993L25.4985 68.3286C25.9224 68.3794 26.3499 68.269 26.6959 68.0194C27.0419 67.7698 27.281 67.3992 27.3654 66.9816C27.3714 66.9589 27.376 66.9358 27.3793 66.9126L27.4673 66.3702L28.2133 61.8033L28.2209 61.7568C28.2597 61.5238 28.2493 61.2852 28.1901 61.0565C28.131 60.8277 28.0245 60.6139 27.8774 60.4287Z" fill="#CACACA"/>
<path d="M42.3934 70.1385C42.936 70.2642 43.4996 70.2697 44.0445 70.1545C44.5894 70.0393 45.1024 69.8063 45.5473 69.4719C45.9922 69.1375 46.3583 68.7099 46.6196 68.219C46.881 67.7282 47.0313 67.1861 47.06 66.6311L60.0633 62.8658L54.7064 58.314L43.1796 62.5874C42.2419 62.601 41.3418 62.9574 40.6498 63.5891C39.9579 64.2207 39.5222 65.0837 39.4253 66.0145C39.3284 66.9453 39.577 67.8792 40.1241 68.6393C40.6711 69.3994 41.4786 69.9328 42.3934 70.1385Z" fill="#FFB6B6"/>
<path d="M66.5194 54.4432L60.335 40.2402C59.8291 39.0741 58.9257 38.1246 57.7849 37.56C57.4323 37.3868 57.062 37.2521 56.6804 37.1583C56.6213 37.1432 56.5621 37.1294 56.503 37.1181C55.6938 36.9419 54.8545 36.9574 54.0524 37.1633C53.3192 37.3513 52.6339 37.6914 52.0413 38.1614C51.4486 38.6314 50.9619 39.2208 50.6129 39.8912C50.6091 39.8968 50.6058 39.9026 50.6029 39.9088C50.213 40.6613 50.0057 41.4947 49.9976 42.3418C49.9896 43.1888 50.1809 44.026 50.5563 44.7858L50.6331 44.939L55.0035 53.6975C55.1527 53.997 55.2368 54.3246 55.2502 54.6589C55.2636 54.9931 55.2061 55.3263 55.0813 55.6368C54.9566 55.9473 54.7675 56.2279 54.5264 56.4603C54.2854 56.6927 53.9978 56.8716 53.6825 56.9853L53.3756 57.0958L47.8553 59.0855C47.4411 59.233 47.1004 59.5351 46.9049 59.9282C46.7095 60.3214 46.6745 60.7749 46.8074 61.1932L46.8212 61.2372L48.3686 66.1782C48.3761 66.2008 48.3837 66.2234 48.3925 66.246C48.4061 66.2886 48.4229 66.3302 48.4428 66.3703C48.6073 66.7383 48.898 67.0357 49.2626 67.209C49.6271 67.3823 50.0417 67.4201 50.4318 67.3156L53.4108 66.531L54.0184 66.3703L61.7112 64.3429C62.7235 64.076 63.6659 63.594 64.4741 62.9298C65.2823 62.2657 65.9371 61.4351 66.3938 60.495C66.8504 59.5548 67.098 58.5273 67.1197 57.4828C67.1414 56.4383 66.9366 55.4014 66.5194 54.4432Z" fill="#CACACA"/>
<path d="M5.64844 66.3702C7.43112 68.54 9.35369 70.5914 11.4039 72.5114H68.263C68.8108 72.5123 69.3359 72.7299 69.7231 73.1165C70.1104 73.5032 70.3281 74.0273 70.3287 74.574L70.4104 88.9515C73.9083 87.3478 77.1841 85.3001 80.1564 82.8593C80.9816 82.1826 81.7813 81.4767 82.5554 80.7415C83.0624 80.2619 83.5572 79.7707 84.0399 79.2677C87.6585 75.5061 90.5887 71.1409 92.6976 66.3702H5.64844Z" fill="#3F3D56"/>
<path d="M84.0396 79.2677C83.5578 79.7711 83.063 80.2624 82.5551 80.7415H70.4517V79.2677H84.0396Z" fill="white"/>
<path d="M57.6993 32.1306C57.6395 32.0205 57.551 31.9286 57.4431 31.8645C57.3353 31.8004 57.2121 31.7666 57.0866 31.7666H15.8434C15.6585 31.7671 15.4813 31.8407 15.3507 31.9713C15.2201 32.1019 15.1466 32.2788 15.1465 32.4633V57.0958H57.7848V32.4633C57.7855 32.3469 57.756 32.2323 57.6993 32.1306Z" fill="#3F3D56"/>
<path d="M15.1089 56.4288V59.4685C15.1089 59.5945 15.1338 59.7193 15.1821 59.8357C15.2304 59.9521 15.3012 60.0579 15.3905 60.147C15.4798 60.2361 15.5858 60.3068 15.7025 60.355C15.8192 60.4033 15.9442 60.4281 16.0705 60.4281H31.808V66.427H31.5989C31.5825 66.427 31.5663 66.4302 31.5511 66.4365C31.536 66.4427 31.5222 66.4519 31.5106 66.4635C31.499 66.4751 31.4898 66.4888 31.4835 66.5039C31.4773 66.519 31.474 66.5353 31.474 66.5516V66.9689C31.474 66.9852 31.4773 67.0015 31.4835 67.0166C31.4898 67.0317 31.499 67.0454 31.5106 67.057C31.5222 67.0686 31.536 67.0778 31.5511 67.084C31.5663 67.0903 31.5825 67.0935 31.5989 67.0935H41.3686C41.385 67.0935 41.4012 67.0903 41.4164 67.084C41.4315 67.0778 41.4453 67.0686 41.4569 67.057C41.4685 67.0454 41.4777 67.0317 41.484 67.0166C41.4903 67.0015 41.4935 66.9852 41.4935 66.9689V66.5516C41.4935 66.5353 41.4903 66.519 41.484 66.5039C41.4777 66.4888 41.4685 66.4751 41.4569 66.4635C41.4453 66.4519 41.4315 66.4427 41.4164 66.4365C41.4012 66.4302 41.385 66.427 41.3686 66.427H41.1595V60.4281H56.897C57.0233 60.4281 57.1484 60.4033 57.265 60.355C57.3817 60.3068 57.4877 60.2361 57.577 60.147C57.6663 60.0579 57.7371 59.9521 57.7854 59.8357C57.8338 59.7193 57.8586 59.5945 57.8586 59.4685V56.4288H15.1089Z" fill="#3F3D56"/>
<path d="M35.9672 47.7046C38.1424 47.7046 39.9057 45.945 39.9057 43.7745C39.9057 41.604 38.1424 39.8445 35.9672 39.8445C33.7921 39.8445 32.0288 41.604 32.0288 43.7745C32.0288 45.945 33.7921 47.7046 35.9672 47.7046Z" fill="#8257E5"/>
<path d="M46.0022 21.7175H45.3732C45.3732 16.9723 40.6669 13.8628 35.9191 13.8603C35.2286 13.8583 34.5395 13.9251 33.8623 14.0599C33.0999 14.2118 32.3086 14.3938 31.5311 14.6311C28.4653 15.5688 25.6222 17.3815 25.6222 21.7175C25.6215 22.5596 25.7289 23.3983 25.9417 24.2132L25.3328 24.3713C25.107 23.5047 24.9928 22.6129 24.9932 21.7175C24.9932 17.9289 26.5519 15.3265 29.244 13.7749C30.6593 12.9589 32.3866 12.433 34.3655 12.1769C35.189 12.0675 36.0215 12.0423 36.8501 12.1015C42.3099 12.4932 46.0022 16.671 46.0022 21.7175Z" fill="#8257E5"/>
<path d="M47.0501 22.0652L46.8023 20.2374C46.7412 19.7758 46.5183 19.3507 46.1733 19.0373C45.9518 18.833 45.6866 18.6816 45.3978 18.5946C45.109 18.5076 44.8042 18.4873 44.5064 18.5352L44.1126 18.5891C44.0049 18.6033 43.901 18.6386 43.8071 18.6932C43.7131 18.7477 43.631 18.8203 43.5654 18.9067C43.4992 18.9929 43.4508 19.0913 43.423 19.1962C43.3951 19.3011 43.3884 19.4105 43.4031 19.5181L43.9755 23.7285C43.9991 23.9001 44.0762 24.06 44.1958 24.1855C44.3155 24.311 44.4717 24.3957 44.6423 24.4278C44.6928 24.4379 44.7442 24.4429 44.7957 24.4428C44.8328 24.4428 44.8698 24.4403 44.9065 24.4353L45.3468 24.3763C45.6152 24.3407 45.8735 24.2508 46.1059 24.112C46.3382 23.9732 46.5397 23.7884 46.6979 23.5691C46.7318 23.5214 46.7646 23.4724 46.7947 23.4222C47.0305 23.0115 47.1205 22.5333 47.0501 22.0652Z" fill="#8257E5"/>
<path d="M43.8585 18.6657C43.743 18.7217 43.6425 18.8043 43.5654 18.9067C43.4992 18.9929 43.4508 19.0913 43.423 19.1962C43.3951 19.3011 43.3884 19.4105 43.4031 19.5181L43.9755 23.7285C43.9991 23.9001 44.0762 24.06 44.1958 24.1855C44.3155 24.311 44.4717 24.3957 44.6423 24.4278L43.8585 18.6657Z" fill="white"/>
<path d="M47.0502 22.0652L46.8024 20.2374C46.7412 19.7758 46.5184 19.3507 46.1733 19.0373L46.7432 23.2264C46.7518 23.2936 46.7691 23.3595 46.7948 23.4222C47.0306 23.0115 47.1206 22.5333 47.0502 22.0652Z" fill="#3F3D56"/>
<path d="M45.0914 23.3821C45.2635 23.3588 45.35 22.9501 45.2847 22.4692C45.2193 21.9883 45.0267 21.6173 44.8546 21.6406C44.6825 21.6639 44.596 22.0727 44.6613 22.5536C44.7267 23.0345 44.9193 23.4054 45.0914 23.3821Z" fill="#3F3D56"/>
<path d="M44.7139 21.1226C44.8861 21.0993 44.9726 20.6905 44.9072 20.2096C44.8418 19.7287 44.6493 19.3577 44.4772 19.381C44.3051 19.4043 44.2185 19.8131 44.2839 20.294C44.3493 20.7749 44.5418 21.1459 44.7139 21.1226Z" fill="#3F3D56"/>
<path d="M47.1041 22.0013C47.2762 21.978 47.3627 21.5692 47.2973 21.0883C47.232 20.6074 47.0394 20.2365 46.8673 20.2598C46.6952 20.2831 46.6087 20.6918 46.674 21.1727C46.7394 21.6536 46.932 22.0246 47.1041 22.0013Z" fill="#3F3D56"/>
<path d="M35.9187 13.8602C35.2282 13.8582 34.5391 13.9251 33.8619 14.0598C33.0995 14.2117 32.3082 14.3938 31.5307 14.631C30.3167 14.572 29.4236 14.2582 29.2437 13.7749C30.6589 12.9589 32.3862 12.4329 34.3651 12.1768C35.1886 12.0675 36.0211 12.0422 36.8497 12.1015C36.9374 12.1528 37.0132 12.2221 37.0722 12.3047C37.1312 12.3874 37.172 12.4815 37.1919 12.581C37.251 13.0179 36.7516 13.4824 35.9187 13.8602Z" fill="#3F3D56"/>
<path d="M27.8875 26.0735L26.9188 22.0552C26.8843 21.9102 26.8076 21.7786 26.6983 21.677C26.5891 21.5754 26.4522 21.5082 26.3049 21.484C26.2633 21.4775 26.2212 21.4742 26.1791 21.4739C26.1197 21.4741 26.0606 21.4813 26.003 21.4953L25.6281 21.5857C25.1454 21.7022 24.7287 22.005 24.4695 22.4277C24.2103 22.8503 24.1297 23.3584 24.2455 23.8403L24.6795 25.643C24.7786 26.0674 25.0146 26.4475 25.3513 26.7251C25.4059 26.769 25.463 26.8097 25.5224 26.8468C25.7333 26.9787 25.9685 27.0671 26.2141 27.1068C26.4598 27.1465 26.711 27.1366 26.9528 27.0778L27.3264 26.9874C27.4252 26.9644 27.5181 26.9213 27.5994 26.8606C27.7202 26.7727 27.8121 26.651 27.8634 26.5108C27.9147 26.3707 27.9231 26.2185 27.8875 26.0735Z" fill="#8257E5"/>
<path d="M25.857 25.3259C26.0259 25.2853 26.0705 24.87 25.9567 24.3981C25.843 23.9263 25.6138 23.5766 25.4449 23.6172C25.2761 23.6577 25.2314 24.0731 25.3452 24.545C25.459 25.0168 25.6881 25.3664 25.857 25.3259Z" fill="#3F3D56"/>
<path d="M24.5987 25.7025C24.7676 25.6619 24.8122 25.2465 24.6984 24.7747C24.5847 24.3029 24.3555 23.9532 24.1866 23.9938C24.0178 24.0343 23.9731 24.4497 24.0869 24.9216C24.2007 25.3934 24.4298 25.743 24.5987 25.7025Z" fill="#3F3D56"/>
<path d="M27.9491 26.0585L26.9804 22.0401C26.9427 21.8833 26.8594 21.741 26.741 21.6311C26.6227 21.5213 26.4745 21.4487 26.3149 21.4225L27.6371 26.9109C27.7677 26.8154 27.867 26.6836 27.9226 26.5319C27.9781 26.3802 27.9873 26.2154 27.9491 26.0585Z" fill="white"/>
<path d="M24.4644 23.0444C24.4377 22.9326 24.3875 22.8278 24.3172 22.7368C24.1811 23.0887 24.156 23.4738 24.2455 23.8403L24.6795 25.6429C24.7786 26.0673 25.0147 26.4475 25.3513 26.7251L24.4644 23.0444Z" fill="#3F3D56"/>
</g>
<defs>
<clipPath id="clip0_4_676">
<rect width="107" height="93" fill="white"/>
</clipPath>
</defs>
</svg>
