<svg width="203" height="49" viewBox="0 0 203 49" fill="none" xmlns="http://www.w3.org/2000/svg">
<path d="M96.4373 17.638C96.2896 15.433 95.3983 13.4968 93.5996 11.9531C91.7057 10.3279 89.3751 9.44187 86.7536 9.26045C84.9502 9.13557 83.1329 9.15453 81.3218 9.14022C79.4805 9.12555 77.6381 9.12555 75.7975 9.16527C74.8007 9.18674 74.3655 9.63832 74.3655 10.5161C74.3647 13.7405 74.3651 16.9645 74.3647 20.189H76.8021V11.2786C79.5869 11.2786 82.3411 11.2847 85.0953 11.2754C86.1989 11.2718 87.2905 11.2829 88.3585 11.5946C89.9727 12.0655 91.4767 12.6677 92.537 13.9158C93.154 14.6419 93.5837 15.4345 93.8402 16.3119C94.1748 17.4566 94.1992 18.6249 94.0773 19.7796C94.0665 19.8823 94.0541 19.9843 94.0406 20.0859H96.4091C96.4942 19.2765 96.4915 18.4592 96.4366 17.638H96.4373Z" fill="#EEEEEE"/>
<path d="M74.3671 36.2605C74.3671 36.5257 74.3775 36.7994 74.4475 37.0546C74.6286 37.7148 75.4026 38.0057 76.0625 37.7037C76.6702 37.4256 76.7658 36.925 76.7662 36.3876C76.7662 36.2326 76.7662 36.078 76.7662 35.9231H74.3667C74.3667 36.0355 74.3667 36.1482 74.3667 36.2605H74.3671Z" fill="#EEEEEE"/>
<path d="M97.2095 36.2513C96.9357 35.8921 96.627 35.5521 96.3032 35.2294C95.27 34.2002 94.2167 33.1879 93.1819 32.1602C91.6048 30.594 90.0297 29.0256 88.4692 27.4451C88.0402 27.0107 87.5606 26.7996 86.9096 26.8057C84.5457 26.8275 82.1818 26.8143 79.8179 26.8146C78.8675 26.8146 77.9167 26.8146 76.9415 26.8146C76.2382 27.4548 75.2778 27.3227 74.3652 27.2354C74.3652 30.1313 74.366 33.0276 74.3668 35.9235H76.7663C76.7678 33.768 76.7663 31.612 76.7488 29.4565C76.7461 29.1226 76.8475 29.0271 77.2107 29.0285C80.1548 29.0414 83.0993 29.0514 86.0431 29.0246C86.6508 29.0192 87.0484 29.1681 87.4712 29.6007C89.2939 31.4668 91.1793 33.281 93.0403 35.1152C93.8523 35.9153 94.6561 36.7219 95.4727 37.518C95.8877 37.9224 96.485 37.9685 96.9225 37.6526C97.4613 37.2633 97.5844 36.7433 97.2091 36.2517L97.2095 36.2513Z" fill="#EEEEEE"/>
<path d="M62.4214 22.8008V24.9181C72.0928 24.9177 81.7645 24.9177 91.4359 24.9174C101.19 24.9174 110.949 24.9174 120.707 24.9166V22.8036C101.278 22.8026 81.85 22.8022 62.4214 22.8011V22.8008Z" fill="#EEEEEE"/>
<path d="M53.5581 22.7972C53.6003 23.5032 53.7384 24.2092 53.8664 24.9156C56.7181 24.9256 59.5697 24.9217 62.4214 24.9181V22.8008C59.4668 22.7958 56.5123 22.7922 53.5581 22.7972Z" fill="#EEEEEE"/>
<path d="M52.1413 24.9116C52.3289 24.9241 52.518 24.9188 52.7068 24.9188C54.005 24.9188 55.3028 24.9188 56.601 24.9188C56.6071 24.2117 56.6071 23.5021 56.5499 22.7968C55.2509 22.7968 53.9524 22.7968 52.6534 22.7968C52.4793 22.7968 52.3045 22.7922 52.1316 22.8051C51.5262 22.8498 50.9905 23.3565 51.0001 23.8675C51.0106 24.4189 51.4984 24.869 52.1413 24.9116Z" fill="#EEEEEE"/>
<path d="M69.647 35.9338C69.4593 35.9213 69.2702 35.9263 69.0814 35.9263C67.7832 35.9263 66.4854 35.9263 65.1873 35.9263C65.1811 36.6448 65.1811 37.3658 65.2383 38.0826C66.5373 38.0826 67.8358 38.0826 69.1348 38.0826C69.3089 38.0826 69.4837 38.0872 69.6566 38.0743C70.262 38.0289 70.7978 37.514 70.7881 36.9948C70.7776 36.4344 70.2899 35.9771 69.647 35.9338Z" fill="#EEEEEE"/>
<path d="M52.194 38.0751C52.3816 38.0877 52.5708 38.0826 52.7595 38.0826C54.0577 38.0826 55.3555 38.0826 56.6537 38.0826C56.6599 37.3641 56.6599 36.6431 56.6026 35.9264C55.3037 35.9264 54.0051 35.9264 52.7061 35.9264C52.5321 35.9264 52.3572 35.9217 52.1843 35.9346C51.5789 35.98 51.0432 36.4949 51.0529 37.0142C51.0633 37.5745 51.5511 38.0318 52.194 38.0751Z" fill="#EEEEEE"/>
<path d="M65.1863 35.9268C61.9475 35.9268 58.7086 35.9275 55.4697 35.9271C55.4604 36.6453 55.4066 37.3624 55.3076 38.0752C57.2042 38.0752 59.1004 38.0752 60.997 38.0752V38.0834C62.4105 38.0834 63.8239 38.0834 65.2374 38.0834C65.1801 37.3667 65.1805 36.6456 65.1863 35.9271V35.9268Z" fill="#EEEEEE"/>
<path d="M171.732 21.6077C171.876 21.4575 172.001 21.3512 172.095 21.2249C173.691 19.0782 175.283 16.9284 176.877 14.7803C178.054 13.1937 179.233 11.6078 180.415 10.0241C180.545 9.84872 180.688 9.67661 180.85 9.5256C181.296 9.11088 181.911 9.08297 182.385 9.44044C182.807 9.75891 182.938 10.4316 182.626 10.8557C181.984 11.7288 181.32 12.5879 180.67 13.4553C178.199 16.7498 175.721 20.0401 173.274 23.3493C173.064 23.6338 172.971 24.046 172.97 24.3995C172.955 28.2723 172.971 32.1455 172.972 36.0187C172.972 36.3368 172.966 36.6631 172.891 36.9712C172.751 37.5545 172.328 37.8708 171.824 37.8346C171.06 37.7799 170.712 37.4822 170.637 36.8055C170.615 36.6069 170.615 36.4055 170.616 36.2051C170.619 32.1852 170.627 28.1653 170.617 24.1455C170.617 23.9236 170.526 23.671 170.391 23.4853C169.772 22.6304 169.121 21.7956 168.486 20.9504C168.371 20.7973 168.267 20.6348 168.18 20.4666C167.933 19.9886 168.021 19.6325 168.455 19.289C168.929 18.9144 169.304 18.87 169.781 19.2131C170.06 19.4139 170.295 19.6805 170.505 19.9474C170.913 20.4645 171.288 21.0027 171.733 21.6077H171.732Z" fill="#EEEEEE"/>
<path d="M148.77 9.00072C150.547 9.07014 152.244 9.36535 153.789 10.1819C156.042 11.3717 157.217 13.256 157.737 15.5347C157.829 15.9373 157.898 16.3538 157.894 16.7631C157.887 17.5625 157.063 18.0374 156.273 17.7329C155.922 17.5976 155.731 17.3593 155.662 17.0136C155.542 16.4114 155.445 15.8009 155.261 15.2148C154.68 13.3705 153.411 12.1249 151.388 11.5699C149.516 11.0565 147.623 11.045 145.78 11.5957C144.364 12.019 143.244 12.8284 142.659 14.1846C142.006 15.6982 141.905 17.2505 142.378 18.7763C142.977 20.71 144.44 21.8751 146.622 22.2286C146.892 22.2723 147.161 22.332 147.423 22.4061C147.989 22.5657 148.363 23.1382 148.253 23.6549C148.145 24.1656 147.59 24.5538 146.979 24.4457C145.6 24.2024 144.229 23.923 143.048 23.1497C141.791 22.327 140.976 21.2396 140.404 19.9156C139.752 18.4074 139.675 16.8905 139.891 15.3257C140.322 12.2165 142.823 9.92141 146.023 9.34387C146.928 9.18035 147.854 9.112 148.771 9L148.77 9.00072Z" fill="#EEEEEE"/>
<path d="M193.749 11.2516C192.488 11.1557 191.432 11.3862 190.411 11.749C189.04 12.2368 188.086 13.1113 187.597 14.4074C187.078 15.7825 187.002 17.1841 187.36 18.5879C187.879 20.6207 189.375 21.7483 191.519 22.232C191.912 22.3204 192.31 22.4077 192.681 22.5498C193.201 22.7484 193.409 23.2225 193.244 23.7017C193.068 24.2137 192.604 24.4939 192.054 24.4198C190.773 24.2466 189.526 23.9969 188.408 23.3349C186.786 22.3734 185.723 21.0433 185.203 19.3429C184.608 17.3981 184.606 15.4572 185.442 13.5736C186.56 11.0545 188.694 9.71226 191.554 9.25603C193.322 8.9737 195.087 8.9873 196.814 9.42242C199.25 10.0365 201.059 11.3744 202.068 13.5532C202.53 14.5526 202.883 15.5746 202.928 16.6742C202.947 17.153 202.775 17.5083 202.305 17.7241C201.846 17.9349 201.42 17.7957 201.037 17.5616C200.899 17.4772 200.791 17.2972 200.749 17.1423C200.66 16.8202 200.624 16.4864 200.569 16.1568C200.341 14.7906 199.706 13.5987 198.599 12.6776C197.491 11.7569 196.146 11.2864 194.639 11.2538C194.291 11.2463 193.944 11.2527 193.749 11.2527V11.2516Z" fill="#EEEEEE"/>
<path d="M148.92 37.9618C147.576 37.9833 146.254 37.8455 144.995 37.3932C142.1 36.353 140.42 34.3985 139.923 31.5813C139.85 31.1645 139.799 30.7318 139.835 30.3139C139.881 29.8036 140.268 29.512 140.817 29.454C141.272 29.4061 141.795 29.6755 141.956 30.1003C142.069 30.3984 142.119 30.7218 142.159 31.0378C142.472 33.544 144.441 35.3736 147.148 35.7086C148.671 35.8971 150.193 35.9522 151.67 35.5343C154.059 34.858 155.312 33.5891 155.487 31.391C155.562 30.4449 155.498 29.4626 155.307 28.5301C154.89 26.5095 153.436 25.3572 151.32 24.8573C151.123 24.8112 150.925 24.7715 150.735 24.7078C150.07 24.4845 149.815 24.0018 150.017 23.3677C150.181 22.8556 150.792 22.5576 151.407 22.6953C152.7 22.9848 153.912 23.4378 154.973 24.1975C156.344 25.1794 157.185 26.4787 157.583 28.012C158.06 29.8469 158.121 31.6937 157.377 33.4861C157.123 34.0976 156.754 34.692 156.323 35.2133C154.797 37.0579 152.601 37.6752 150.224 37.9178C149.893 37.9514 149.558 37.9482 149.225 37.96C149.124 37.9636 149.022 37.9607 148.92 37.9607L148.92 37.9618Z" fill="#EEEEEE"/>
<path d="M193.808 37.9536C192.316 38.0742 190.923 37.7185 189.571 37.214C188.118 36.6723 186.967 35.7712 186.142 34.5442C185.415 33.4632 184.982 32.2774 184.846 31.0114C184.815 30.7169 184.846 30.3909 184.954 30.115C185.136 29.6559 185.546 29.4194 185.934 29.4509C186.463 29.4938 186.956 29.847 187.064 30.3129C187.169 30.7681 187.183 31.2429 187.307 31.6927C187.978 34.1324 189.957 35.5505 192.613 35.777C193.864 35.8836 195.104 35.889 196.33 35.6356C198.985 35.0867 200.273 33.7305 200.542 31.3771C200.677 30.1919 200.591 28.9936 200.133 27.8618C199.54 26.3957 198.392 25.4367 196.776 24.9572C196.474 24.8674 196.157 24.8166 195.853 24.7307C195.231 24.5547 194.872 24.0033 195.015 23.4644C195.171 22.8779 195.738 22.5766 196.43 22.7162C199.097 23.255 201.184 24.5275 202.22 26.916C203.268 29.3299 203.289 31.8011 202.106 34.1925C201.39 35.6396 200.049 36.5459 198.512 37.199C197.019 37.8334 195.417 37.9472 193.807 37.9529L193.808 37.9536Z" fill="#EEEEEE"/>
<path d="M54.6851 9.13776C54.7891 9.8706 54.8452 10.5877 54.8363 11.3209C58.1402 11.3198 61.444 11.3202 64.7479 11.3173C64.7409 10.5884 64.7348 9.85915 64.7317 9.13025C61.3829 9.13025 58.0338 9.13383 54.6851 9.13812V9.13776Z" fill="#EEEEEE"/>
<path d="M70.189 9.26681C69.8622 9.17628 69.5075 9.13191 69.1655 9.13155C67.6875 9.13012 66.209 9.12976 64.731 9.12976C64.7341 9.85866 64.7402 10.5879 64.7472 11.3168C65.6485 11.3161 66.5502 11.3154 67.4515 11.314C68.263 11.3129 69.075 11.2946 69.8858 11.261C70.3724 11.241 70.8598 10.7865 70.9337 10.3339C70.9964 9.95098 70.6382 9.39098 70.1887 9.26645L70.189 9.26681Z" fill="#EEEEEE"/>
<path d="M51.805 11.1798C52.1319 11.2703 52.4866 11.3147 52.8285 11.315C54.3066 11.3165 55.785 11.3168 57.2631 11.3168C57.26 10.5879 57.2538 9.85866 57.2468 9.12976C56.3455 9.13048 55.4439 9.13119 54.5426 9.13262C53.731 9.1337 52.9191 9.15195 52.1083 9.18558C51.6216 9.20562 51.1342 9.66006 51.0604 10.1127C50.9977 10.4956 51.3559 11.0556 51.8054 11.1801L51.805 11.1798Z" fill="#EEEEEE"/>
<path d="M160.768 10.3991C160.768 9.74784 161.043 9.36245 161.456 9.24437C161.907 9.11555 162.642 9.34134 162.928 9.72709C164.384 11.6851 165.825 13.6518 167.284 15.6077C167.834 16.3444 167.484 16.8136 167.069 17.1109C166.564 17.473 165.92 17.3893 165.463 16.8454C164.923 16.2038 164.452 15.5125 163.951 14.8437C163.045 13.6371 162.13 12.4366 161.238 11.2217C161.017 10.9205 160.867 10.5751 160.768 10.3991H160.768Z" fill="#EEEEEE"/>
<path d="M74.3671 19.9452C74.3671 20.2104 74.3779 20.4841 74.4487 20.7393C74.6328 21.3994 75.4189 21.6904 76.0892 21.3884C76.7066 21.1103 76.8037 20.6097 76.8041 20.0723C76.8041 19.9173 76.8041 19.7627 76.8041 19.6078H74.3667C74.3667 19.7201 74.3667 19.8329 74.3667 19.9452H74.3671Z" fill="#EEEEEE"/>
<path d="M94.0511 20.0048C94.0198 20.2686 93.9977 20.5416 94.0356 20.8021C94.1343 21.4762 94.8542 21.8427 95.5334 21.6079C96.1589 21.3918 96.3113 20.9041 96.3752 20.3695C96.3937 20.2156 96.4119 20.0617 96.4305 19.9079C95.6506 19.8284 94.8708 19.749 94.091 19.6696C94.0778 19.7812 94.0643 19.8932 94.0511 20.0048Z" fill="#EEEEEE"/>
<path d="M77.5813 26.8146H74.3652V28.0183H77.5813V26.8146Z" fill="#EEEEEE"/>
<path d="M128.476 37.4289C128.49 37.4156 128.505 37.402 128.502 37.4049C128.307 37.3323 128.085 37.2836 127.899 37.1737C127.173 36.7436 126.896 35.7145 127.549 34.9835C127.841 34.6564 128.15 34.344 128.438 34.0127C129.774 32.4708 130.783 30.741 131.457 28.8148C131.871 27.6343 132.135 26.4213 132.268 25.1832C132.373 24.2028 132.383 23.2148 132.305 22.2293C132.151 20.2924 131.687 18.4342 130.862 16.6704C130.071 14.9807 129.017 13.4743 127.698 12.1517C127.376 11.829 127.162 11.455 127.189 10.9838C127.223 10.3823 127.523 9.93891 128.068 9.69845C128.578 9.47374 129.103 9.50845 129.531 9.88202C129.923 10.2248 130.28 10.6138 130.623 11.007C132.094 12.6878 133.233 14.5714 134.036 16.6529C134.546 17.9751 134.901 19.3388 135.101 20.7429C135.231 21.6611 135.304 22.5825 135.304 23.5096C135.304 24.7524 135.183 25.9837 134.937 27.2028C134.253 30.5922 132.741 33.5693 130.452 36.1597C130.297 36.335 130.139 36.5089 129.979 36.6796C129.648 37.0328 129.304 37.3655 128.769 37.3781C128.821 37.3952 128.873 37.4121 128.925 37.4292C128.776 37.4292 128.625 37.4292 128.476 37.4292V37.4289Z" fill="#EEEEEE"/>
<path d="M100.613 23.0202C100.651 22.3897 100.655 21.7546 100.735 21.1294C101.046 18.6973 101.786 16.3996 102.988 14.253C103.85 12.7122 104.919 11.3285 106.152 10.0628C106.855 9.34143 107.936 9.47346 108.446 10.1752C108.843 10.7219 108.82 11.4716 108.36 11.9937C108.109 12.2778 107.834 12.5408 107.583 12.8249C105.775 14.8721 104.55 17.2158 103.956 19.881C103.645 21.2733 103.51 22.681 103.56 24.1055C103.61 25.5397 103.849 26.9431 104.28 28.3136C104.686 29.6014 105.24 30.8213 105.956 31.9674C106.608 33.0116 107.364 33.9752 108.245 34.8397C108.555 35.1435 108.724 35.5049 108.736 35.9422C108.754 36.6153 108.162 37.2622 107.492 37.3524C106.92 37.4293 106.482 37.2383 106.093 36.84C104.069 34.7656 102.562 32.3761 101.617 29.6383C101.173 28.3494 100.854 27.0297 100.715 25.676C100.639 24.9353 100.656 24.1853 100.633 23.4392C100.628 23.3 100.632 23.1605 100.632 23.0209C100.626 23.0206 100.619 23.0202 100.613 23.0199L100.613 23.0202Z" fill="#EEEEEE"/>
<path d="M114.68 23.6757C114.699 22.0501 116.079 20.6796 117.926 20.6384C119.692 20.5991 121.272 21.9359 121.282 23.6814C121.291 25.2963 119.86 26.694 118.069 26.7355C116.183 26.7788 114.67 25.3453 114.68 23.6757H114.68Z" fill="#EEEEEE"/>
<path d="M128.917 23.4943C128.956 24.9106 128.712 26.2918 128.252 27.6315C127.628 29.4543 126.627 31.0495 125.314 32.445C124.808 32.9832 124.205 33.1206 123.587 32.8244C122.729 32.4132 122.475 31.3354 123.027 30.6505C123.288 30.3271 123.586 30.0336 123.846 29.7098C124.772 28.5579 125.41 27.2597 125.757 25.8144C126.03 24.6744 126.1 23.5186 125.967 22.3603C125.842 21.2754 125.558 20.2291 125.084 19.2354C124.612 18.2478 124.007 17.3632 123.252 16.5799C122.996 16.3144 122.798 16.0196 122.752 15.6388C122.664 14.9024 123.174 14.1832 123.891 14.0354C124.417 13.9266 124.862 14.0812 125.237 14.4609C126.104 15.3404 126.831 16.3266 127.416 17.4194C127.936 18.3902 128.335 19.4104 128.583 20.4853C128.811 21.4711 128.959 22.4691 128.917 23.4943H128.917Z" fill="#EEEEEE"/>
<path d="M106.975 23.4824C107.012 19.9839 108.238 16.9782 110.656 14.4701C111.055 14.0568 111.539 13.899 112.099 14.0608C112.655 14.2214 112.997 14.6065 113.124 15.1679C113.238 15.676 113.087 16.1215 112.729 16.4944C112.22 17.0243 111.752 17.5883 111.367 18.2177C110.679 19.3424 110.214 20.5511 110.01 21.8622C109.777 23.3554 109.849 24.8293 110.268 26.2796C110.715 27.8312 111.5 29.1909 112.622 30.3456C112.911 30.6434 113.12 30.9686 113.154 31.3955C113.198 31.9759 112.884 32.5384 112.35 32.8111C111.825 33.0798 111.2 33.0058 110.768 32.6014C110.181 32.0503 109.679 31.4231 109.223 30.7593C108.411 29.577 107.805 28.2942 107.428 26.9051C107.125 25.7869 106.949 24.6497 106.975 23.4821V23.4824Z" fill="#EEEEEE"/>
<path d="M22.0651 0C23.0005 0.227807 23.8483 0.598873 24.4723 1.38563C25.0589 2.12541 25.3388 2.96501 25.3096 3.90207C25.3015 4.18507 25.3621 4.35064 25.6175 4.49977C29.2108 6.59935 32.7981 8.70715 36.3809 10.8243C36.6269 10.97 36.7681 10.9512 36.9768 10.7621C38.1512 9.70175 39.7723 9.45985 41.0797 10.1304C42.4769 10.8455 43.3014 12.2593 43.1883 13.7447C43.0658 15.3464 42.0663 16.59 40.5001 17.0914C40.4126 17.1196 40.3298 17.1571 40.2365 17.1935V30.6541C40.9071 31.0897 41.5858 31.3986 42.0955 31.8859C43.565 33.2903 43.5545 35.6107 42.1456 37.109C40.8045 38.5369 38.4871 38.6262 37.0211 37.2816C36.7634 37.0444 36.592 37.0538 36.3097 37.2206C32.7678 39.3155 29.2212 41.3998 25.6677 43.4747C25.3855 43.6391 25.2991 43.8094 25.3085 44.1358C25.368 46.2506 23.6746 48.0015 21.5986 48.0015C19.5227 48.0015 17.8293 46.2506 17.8888 44.1358C17.8981 43.8094 17.8107 43.6391 17.5296 43.4747C13.962 41.3927 10.4015 39.3002 6.84673 37.1983C6.59132 37.048 6.43971 37.0433 6.21229 37.2511C5.06936 38.295 3.44944 38.5381 2.14907 37.8887C0.734407 37.1818 -0.108793 35.7457 0.0113312 34.2462C0.138453 32.6633 1.15542 31.3915 2.66688 30.9242C2.75552 30.8972 2.84182 30.8608 2.95145 30.8208V17.1771C1.99396 16.9282 1.20207 16.4232 0.636442 15.5825C-0.378197 14.0747 -0.133284 11.9375 1.19857 10.7574C2.66805 9.45515 4.75681 9.41875 6.15281 10.701C6.41871 10.9453 6.59598 10.9594 6.90154 10.7785C10.4283 8.68954 13.9632 6.61227 17.5028 4.54674C17.7943 4.37647 17.9016 4.20503 17.8911 3.8551C17.8363 2.02912 19.0924 0.461485 20.8744 0.0821983C20.963 0.0634101 21.0482 0.0281823 21.1345 0C21.4447 0 21.7549 0 22.0651 0ZM12.5544 17.8229C14.7422 14.0583 16.9231 10.3088 19.1017 6.5606C18.8626 6.27643 18.6445 6.01809 18.4101 5.73862C14.6839 7.92861 10.9718 10.1116 7.35638 12.237V14.7663C9.01479 15.7422 10.7642 16.7708 12.5544 17.8241V17.8229ZM30.6441 17.8229C32.4389 16.7673 34.1965 15.7328 35.8409 14.7652V12.2346C32.2057 10.0987 28.4935 7.91687 24.7848 5.73744C24.5341 6.0404 24.3183 6.29991 24.0991 6.5653C26.2846 10.3253 28.4585 14.063 30.6441 17.8229ZM4.92591 30.9488C7.21993 27.001 9.50578 23.0684 11.8021 19.1158C10.0679 18.0965 8.39901 17.1113 6.7231 16.1391C6.63097 16.0862 6.4537 16.0839 6.36507 16.1391C5.75395 16.5148 5.15566 16.9117 4.4839 17.3474V30.8279C4.63202 30.869 4.76264 30.9054 4.92475 30.95L4.92591 30.9488ZM31.3963 19.1193C33.7055 23.0919 35.9925 27.0256 38.2819 30.9629C38.4661 30.8983 38.5932 30.8537 38.7215 30.8091V17.3298C38.0871 16.9376 37.497 16.6099 36.9523 16.2189C36.7377 16.0651 36.6176 16.0369 36.3949 16.1708C34.9032 17.0608 33.4023 17.9357 31.9048 18.8164C31.7485 18.908 31.5922 19.0019 31.3975 19.1182L31.3963 19.1193ZM7.37271 33.7213H20.8406V27.8523C20.1606 27.4108 19.5624 27.0139 18.9512 26.6381C18.8626 26.5841 18.6853 26.5876 18.5932 26.6416C14.8332 28.8469 11.0779 31.0604 7.32256 33.2739C7.29923 33.2868 7.2899 33.3244 7.26541 33.3643C7.29807 33.4723 7.33305 33.5898 7.37271 33.7213ZM22.3602 33.7412H35.8211C35.8619 33.5945 35.9004 33.4512 35.9424 33.2997C34.8181 32.6374 33.723 31.9916 32.6267 31.3481C29.9921 29.8004 27.3576 28.2504 24.7172 26.7121C24.5866 26.6358 24.3545 26.5841 24.2437 26.6499C23.6267 27.0139 23.032 27.4167 22.3602 27.8511V33.7424V33.7412ZM13.0967 19.8756C13.0115 20.0165 12.9544 20.1081 12.9007 20.202C10.7397 23.9197 8.57744 27.6374 6.41638 31.3551C6.36973 31.4362 6.29976 31.5125 6.28343 31.5994C6.26943 31.6745 6.29043 31.7896 6.34174 31.8366C6.40822 31.8976 6.52251 31.9376 6.61231 31.9305C6.69511 31.9247 6.77325 31.8436 6.85372 31.7967C10.4819 29.6654 14.1113 27.5341 17.7383 25.4016C17.8538 25.3335 17.9611 25.249 17.9634 25.2466V22.7372C16.3983 21.8166 14.7667 20.8572 13.0967 19.8756ZM30.1053 19.8732C28.4305 20.8584 26.778 21.8307 25.2362 22.7384V25.2595C25.2688 25.2795 25.3715 25.3488 25.4776 25.411C29.0918 27.5353 32.706 29.6618 36.3261 31.7767C36.4672 31.8589 36.6701 31.8354 36.845 31.8601C36.8205 31.6851 36.8474 31.4808 36.7657 31.3399C34.8729 28.0613 32.9684 24.7887 31.0651 21.516C30.7525 20.9782 30.4377 20.4427 30.1053 19.8732ZM20.8417 35.276H7.36921C7.33189 35.4275 7.29923 35.5602 7.26191 35.7116C10.9916 37.9028 14.7038 40.0834 18.3739 42.2405C18.774 41.8577 19.097 41.4679 19.497 41.1884C19.8959 40.9101 20.3717 40.7422 20.8429 40.512V35.276H20.8417ZM22.3614 35.2654V40.5801C23.3702 40.8291 24.176 41.3962 24.7685 42.2758C28.5203 40.0705 32.2337 37.8887 35.954 35.7011C35.898 35.5273 35.8561 35.3993 35.8117 35.2643H22.3602L22.3614 35.2654ZM20.4032 7.29099C18.2107 11.0639 16.038 14.8016 13.8431 18.5768C15.4758 19.5362 17.0771 20.4791 18.6842 21.4115C18.7483 21.4491 18.8859 21.4115 18.9617 21.3633C19.5694 20.9817 20.1688 20.5883 20.8441 20.1515V7.44364C20.7134 7.39902 20.5852 7.3544 20.4032 7.29216V7.29099ZM29.3589 18.5768C27.15 14.7769 24.9761 11.0392 22.7999 7.29569C22.6226 7.3544 22.4943 7.39667 22.3684 7.43777V20.1961C23.0996 20.6224 23.762 21.0087 24.4944 21.4361C26.0421 20.5273 27.683 19.5632 29.36 18.5768H29.3589ZM23.8332 3.78465C23.8402 2.53171 22.8337 1.50305 21.601 1.50305C20.3857 1.50305 19.3863 2.50353 19.3688 3.73767C19.3513 4.94834 20.3566 5.97582 21.5776 5.99578C22.7835 6.01457 23.825 4.99413 23.8332 3.78465ZM21.6056 46.4996C22.8197 46.4972 23.8285 45.4839 23.8332 44.2603C23.8378 43.0379 22.836 42.0174 21.6208 42.0057C20.3892 41.9939 19.3606 43.0285 19.3699 44.2685C19.3793 45.4921 20.3916 46.5019 21.6056 46.4996ZM3.70135 15.748C4.93991 15.7445 5.96854 14.71 5.95221 13.484C5.93589 12.264 4.93291 11.2659 3.71185 11.2553C2.51527 11.2447 1.49364 12.2757 1.49014 13.497C1.48664 14.717 2.50361 15.7515 3.70135 15.748ZM39.5111 15.748C40.71 15.7433 41.7211 14.7041 41.7106 13.4852C41.7013 12.264 40.6727 11.2377 39.4773 11.2553C38.2527 11.2741 37.2567 12.2757 37.2486 13.4946C37.2404 14.7205 38.276 15.7527 39.5111 15.748ZM5.95221 34.4975C5.94522 33.2621 4.91308 32.2452 3.67802 32.257C2.47795 32.2687 1.47381 33.3138 1.49014 34.5327C1.50646 35.7351 2.50827 36.745 3.68969 36.7497C4.92591 36.7544 5.95921 35.7257 5.95221 34.4975ZM39.4924 36.7497C40.689 36.7579 41.7095 35.7246 41.7106 34.5045C41.7106 33.2844 40.6925 32.2499 39.4959 32.257C38.2737 32.264 37.2707 33.2563 37.2486 34.4787C37.2276 35.7034 38.2539 36.7415 39.4924 36.7497ZM19.3699 23.9984C19.3641 25.2067 20.3752 26.2354 21.5835 26.2483C22.7812 26.2612 23.811 25.2455 23.8308 24.0313C23.8507 22.8077 22.8104 21.7508 21.5928 21.7567C20.3869 21.7626 19.3758 22.783 19.3699 23.9984Z" fill="#8257E5"/>
</svg>
